<svg width="312" height="355" viewBox="0 0 312 355" fill="none" xmlns="http://www.w3.org/2000/svg">
<path d="M179.906 149.974L159.443 101.01C156.979 101.01 152.417 101.01 150.26 101.01L167.922 150.547C170.724 158.068 167.922 162.526 151.766 162.526V163.667H202V161.88C184.755 161.88 183.901 160.219 179.932 150L179.906 149.974Z" fill="#6B725C"/>
<mask id="mask0_83_2" style="mask-type:luminance" maskUnits="userSpaceOnUse" x="33" y="0" width="126" height="165">
<path d="M33.0677 0H158.401V164.891H33.0677V0Z" fill="white"/>
</mask>
<g mask="url(#mask0_83_2)">
<path d="M80.9688 95.5938L149.354 95.9271C150.339 95.9271 157.964 95.8229 158.172 95.875L119.635 0H113.672C113.516 0.776041 113.281 1.52604 113.021 2.41146C112.76 3.31771 112.682 3.34375 112.323 4.74479C112.297 4.84896 111.464 7.93229 110.609 10.1927L59.6771 148.859C55.3438 160.688 50.6771 162.5 33.4062 162.5V163.641H77.2865V162.5C59.9844 162.5 57.3698 158.792 61.026 148.859L80.9948 95.5938H80.9688ZM112.531 8.58333L147.979 94.3698L81.4062 94.0625L112.531 8.58333Z" fill="#6B725C"/>
</g>
<path d="M173.578 198.651H175.755C207.526 198.651 229.984 172.562 229.984 149.25C229.984 125.932 203.818 94.3698 169.792 94.3698H141.625C141.625 94.4479 141.651 94.8125 141.651 94.8906C141.651 95.2031 141.703 95.6406 141.625 95.901L168.651 95.8489C186.802 95.8489 218.703 111.385 217.146 151.583C215.901 183.458 195.078 197.536 175.781 197.536L136.365 196.708V118.229C136.339 117.427 136.339 117.01 136.286 115.87L107.729 115.818V116.958C122.49 116.958 125.885 119.219 125.885 130.578V264.474C125.885 275.833 127.391 278.219 112.63 278.219V279.359H155.552V277.568C140.823 277.568 136.365 275.417 136.365 264.057V198.599L167.068 198.651" fill="#6B725C"/>
<path d="M167.016 198.625C176.12 200.885 222.151 258.87 229.958 268.625C241.552 283.068 248.24 293.104 263.75 293.104C264.76 293.104 276.875 291.938 282.448 281.693C282.969 280.76 282.891 281.073 282.682 280.969C282.474 280.865 282.63 280.969 282.266 280.656C280.193 283.328 274.307 289.682 265.359 290.12C257.917 290.484 251.719 287.01 246.891 281.333C239.036 272.073 220.104 246.214 211.182 236.359C200.833 224.922 197.802 220.594 187.063 208.146C177.854 197.458 173.135 198.651 173.135 198.651" fill="#6B725C"/>
<mask id="mask1_83_2" style="mask-type:luminance" maskUnits="userSpaceOnUse" x="0" y="323" width="23" height="25">
<path d="M0 323.557H22.401V347.557H0V323.557Z" fill="white"/>
</mask>
<g mask="url(#mask1_83_2)">
<path d="M21.9948 346.969V347.125H14.2917V346.969C16.2344 346.969 16.5729 346.349 16.2344 345.286L14.2917 339.422H5.10938L3.34896 345.052C2.90625 346.453 3.21875 346.969 5.31771 346.969V347.125H0V346.969C2.07812 346.969 2.64583 346.708 3.16667 345.052L9.3125 325.469C9.57292 324.667 9.02604 324.198 7.20833 324.198V324.042H11.6979L18.6979 345.078C19.1927 346.531 19.8646 346.995 21.9688 346.995L21.9948 346.969ZM14.2396 339.266L9.57292 325.24L5.16146 339.266H14.2396Z" fill="#6B725C"/>
</g>
<path d="M44.8646 324.016V324.172C42.7917 324.172 42.3021 324.484 42.3021 326.094V347.125H42.1458L25.1302 325.443V345.026C25.1302 346.63 25.625 346.943 27.6979 346.943V347.099H22.4062V346.943C24.4844 346.943 24.974 346.63 24.974 345.026V325.938C24.974 324.484 24.4844 324.172 22.4062 324.172V324.016H26.8958L42.1458 343.286V326.12C42.1458 324.51 41.651 324.198 39.5781 324.198V324.042H44.8646V324.016Z" fill="#6B725C"/>
<mask id="mask2_83_2" style="mask-type:luminance" maskUnits="userSpaceOnUse" x="45" y="322" width="25" height="26">
<path d="M45.0677 322.224H69.0677V347.62H45.0677V322.224Z" fill="white"/>
</mask>
<g mask="url(#mask2_83_2)">
<path d="M68.1042 338.151V338.307C66.0313 338.307 65.5365 338.62 65.5365 340.229V345.052C64.7083 344.401 63.6667 345.052 62.9688 345.698C61.6458 346.865 59.8802 347.62 57.6771 347.62C51.0417 347.62 45.6458 342.224 45.6458 335.583C45.6458 328.948 51.0417 323.552 57.6771 323.552C64.3177 323.552 63.6458 326.354 64.3438 327.547C64.6563 327.984 64.8906 328.193 64.8906 326.458H65.0417V331.589H64.8906C64.8906 329.516 64.5521 328.089 63.6198 326.818C62.1927 324.953 60.0886 323.708 57.6511 323.708C52.4115 323.708 48.3177 329.151 48.3177 335.583C48.3177 342.016 52.4115 347.464 57.6511 347.464C62.8906 347.464 61.4636 346.839 62.9427 345.464V340.229C62.9427 338.62 62.4479 338.307 60.375 338.307V338.151H68.1042Z" fill="#6B725C"/>
</g>
<path d="M82.2656 344.557V347.125H67.5052V346.969C69.5833 346.969 70.0729 346.656 70.0729 345.052V326.12C70.0729 324.51 69.5833 324.198 67.5052 324.198V324.042H81.7969V326.609H81.6406C81.6406 324.693 81.3281 324.198 79.724 324.198H72.6667V335.427H77.8021C79.4115 335.427 79.724 334.937 79.724 332.859H79.8802V338.151H79.724C79.724 336.078 79.4115 335.583 77.8021 335.583H72.6667V346.969H80.2136C81.8229 346.969 82.1354 346.479 82.1354 344.557H82.2917H82.2656Z" fill="#6B725C"/>
<path d="M100.104 344.557H100.26V347.125H83.5625V346.969C85.6354 346.969 86.1302 346.656 86.1302 345.052V326.12C86.1302 324.51 85.6354 324.198 83.5625 324.198V324.042H91.2604V324.198C89.1875 324.198 88.6979 324.51 88.6979 326.12V346.995H98.1615C99.7708 346.995 100.078 346.682 100.078 344.583L100.104 344.557ZM97.6927 326.12V339.917C97.6927 341.526 98.1875 341.833 100.26 341.833V341.99H92.5573V341.833C94.6354 341.833 95.125 341.526 95.125 339.917V326.12C95.125 324.51 94.6354 324.198 92.5573 324.198V324.042H100.26V324.198C98.1875 324.198 97.6927 324.51 97.6927 326.12Z" fill="#6B725C"/>
<mask id="mask3_83_2" style="mask-type:luminance" maskUnits="userSpaceOnUse" x="101" y="322" width="39" height="26">
<path d="M101.068 322.224H139.734V347.62H101.068V322.224Z" fill="white"/>
</mask>
<g mask="url(#mask3_83_2)">
<path d="M139.604 346.969V347.125H131.901V346.969C133.849 346.969 134.182 346.349 133.849 345.286L131.901 339.422H122.693C121.552 342.948 119.141 347.62 113.594 347.62C108.042 347.62 101.557 342.224 101.557 335.583C101.557 328.948 106.953 323.552 113.594 323.552C120.229 323.552 118.599 325.24 119.844 326.896C119.896 326.974 120.151 327.339 120.281 327.547C120.568 327.984 120.828 328.141 120.828 326.432H120.984V331.563H120.828C120.828 329.49 120.437 327.984 119.557 326.792C118.13 324.901 116.031 323.682 113.594 323.682C108.354 323.682 104.281 329.125 104.281 335.557C104.281 341.99 108.354 347.438 113.594 347.438C118.833 347.438 121.297 343.26 122.594 339.24L127 325.083C127 324.484 126.38 324.146 124.849 324.146V323.995H129.333L136.339 345.026C136.828 346.479 137.505 346.943 139.604 346.943V346.969ZM131.849 339.266L127.156 325.161L122.771 339.266H131.875H131.849Z" fill="#6B725C"/>
</g>
<path d="M170.359 346.734V346.891H167.302C166.911 346.479 166.448 345.984 165.901 345.437C164.422 346.63 162.505 347.385 160.25 347.385C155.76 347.385 151.896 344.922 151.896 340.073C151.896 335.224 154.255 334.104 157.214 333.146C156.797 332.057 156.51 330.969 156.385 329.88C155.891 325.859 157.99 323.448 160.87 323.448C163.75 323.448 165.354 325.057 165.354 327.932C165.354 330.812 162.917 332.161 161.516 332.708L166.474 332.422L165.979 332.911H163.75C165.536 333.328 168.313 334.677 168.833 338.021C169.141 340.021 168.599 342.042 167.458 343.703C168.651 344.974 169.661 346.01 170.307 346.708L170.359 346.734ZM165.693 345.182C163.099 342.432 159.26 338.151 157.422 333.615C155.63 334.755 154.49 336.984 154.49 339.839C154.49 346.995 160.87 348.656 164.943 345.828C165.229 345.62 165.484 345.411 165.719 345.208L165.693 345.182ZM167.458 337.917C166.859 334.755 164.474 332.937 162.635 332.937H160.74V332.781C162.766 332.552 163.62 330.219 163.62 328.141C163.62 326.068 162.661 323.656 160.896 323.656C159.13 323.656 157.682 326.38 158.172 329.594C158.797 333.771 163.516 339.422 167.068 343.286C167.771 341.677 167.792 339.786 167.458 337.969V337.917Z" fill="#6B725C"/>
<path d="M202.208 346.969V347.125C200.443 347.125 197.073 346.63 195.776 341.5C194.688 337.193 192.922 335.714 191.604 335.714H188.229V345.026C188.229 346.63 188.724 346.943 190.797 346.943V347.099H183.094V346.943C185.172 346.943 185.661 346.63 185.661 345.026V326.094C185.661 324.484 185.172 324.172 183.094 324.172V324.016H191.604C194.974 324.016 199.458 325.781 199.458 330.036C199.458 334.286 196.583 335.349 192.615 335.688C194.505 336.078 197.333 337.609 198.266 341.344C198.917 343.911 200.318 346.969 202.208 346.969ZM191.63 335.583C194.349 335.583 196.917 332.708 196.917 330.036C196.917 325.781 193.547 324.172 191.63 324.172H188.255V335.557H191.63V335.583Z" fill="#6B725C"/>
<mask id="mask4_83_2" style="mask-type:luminance" maskUnits="userSpaceOnUse" x="201" y="322" width="26" height="26">
<path d="M201.068 322.224H226.401V347.62H201.068V322.224Z" fill="white"/>
</mask>
<g mask="url(#mask4_83_2)">
<path d="M225.318 335.583C225.318 342.224 219.922 347.62 213.281 347.62C206.646 347.62 201.25 342.224 201.25 335.583C201.25 328.948 206.646 323.552 213.281 323.552C219.922 323.552 225.318 328.948 225.318 335.583ZM222.594 335.583C222.594 329.151 218.521 323.708 213.281 323.708C208.042 323.708 203.974 329.151 203.974 335.583C203.974 342.016 208.042 347.464 213.281 347.464C218.521 347.464 222.594 342.016 222.594 335.583Z" fill="#6B725C"/>
</g>
<path d="M234.651 347.125H226.146V346.969C228.219 346.969 228.714 346.656 228.714 345.052V326.12C228.714 324.51 228.219 324.198 226.146 324.198V324.042H234.161C237.531 324.042 241.214 325.599 241.214 329.333C241.214 333.068 239.448 334.312 235.406 334.833C239.604 335.094 242.979 336.469 242.979 340.719C242.979 344.974 240.411 347.151 234.625 347.151L234.651 347.125ZM231.281 334.781C231.281 334.781 233.719 334.781 233.745 334.781C237.089 334.755 238.672 332.214 238.672 329.333C238.672 326.458 236.104 324.198 234.188 324.198H231.307V334.781H231.281ZM240.411 340.719C240.411 336.104 235.661 334.964 233.719 334.937H231.255V346.969H234.469C238.333 346.969 240.411 344.016 240.411 340.719Z" fill="#6B725C"/>
<path d="M258.589 344.557V347.125H243.833V346.969C245.906 346.969 246.401 346.656 246.401 345.052V326.12C246.401 324.51 245.906 324.198 243.833 324.198V324.042H258.125V326.609H257.969C257.969 324.693 257.656 324.198 256.047 324.198H248.995V335.427H254.13C255.734 335.427 256.047 334.937 256.047 332.859H256.203V338.151H256.047C256.047 336.078 255.734 335.583 254.13 335.583H248.995V346.969H256.542C258.146 346.969 258.458 346.479 258.458 344.557H258.615H258.589Z" fill="#6B725C"/>
<path d="M279 346.969V347.125C277.234 347.125 273.865 346.63 272.568 341.5C271.479 337.193 269.714 335.714 268.391 335.714H265.021V345.026C265.021 346.63 265.516 346.943 267.589 346.943V347.099H259.885V346.943C261.958 346.943 262.453 346.63 262.453 345.026V326.094C262.453 324.484 261.958 324.172 259.885 324.172V324.016H268.391C271.766 324.016 276.25 325.781 276.25 330.036C276.25 334.286 273.37 335.349 269.406 335.688C271.297 336.078 274.125 337.609 275.057 341.344C275.703 343.911 277.104 346.969 279 346.969ZM268.417 335.583C271.141 335.583 273.708 332.708 273.708 330.036C273.708 325.781 270.339 324.172 268.417 324.172H265.047V335.557H268.417V335.583Z" fill="#6B725C"/>
<mask id="mask5_83_2" style="mask-type:luminance" maskUnits="userSpaceOnUse" x="277" y="323" width="35" height="25">
<path d="M277.068 323.557H311.286V347.557H277.068V323.557Z" fill="white"/>
</mask>
<g mask="url(#mask5_83_2)">
<path d="M290.255 346.969V347.125H282.552V346.969C284.625 346.969 285.12 346.656 285.12 345.052V324.172H279.49C277.885 324.172 277.573 324.667 277.573 326.583H277.417V324.016H301.667V326.583H301.51C301.51 324.667 301.198 324.172 299.589 324.172H287.714V345.052C287.714 346.656 288.208 346.969 290.281 346.969H290.255ZM311.286 337.505C311.286 342.818 306.984 347.125 301.667 347.125C296.349 347.125 292.042 342.818 292.042 337.505C292.042 332.187 296.349 327.88 301.667 327.88C306.984 327.88 311.286 332.187 311.286 337.505ZM308.719 337.505C308.719 332.37 305.839 328.036 301.667 328.036C297.49 328.036 294.609 332.37 294.609 337.505C294.609 342.641 297.49 346.969 301.667 346.969C305.839 346.969 308.719 342.641 308.719 337.505Z" fill="#6B725C"/>
</g>
<mask id="mask6_83_2" style="mask-type:luminance" maskUnits="userSpaceOnUse" x="66" y="316" width="18" height="39">
<path d="M83.7344 316.891H66.401V354.224H83.7344V316.891Z" fill="white"/>
</mask>
<g mask="url(#mask6_83_2)">
<mask id="mask7_83_2" style="mask-type:luminance" maskUnits="userSpaceOnUse" x="66" y="317" width="17" height="31">
<path d="M66.8073 317.865H82.401V347.557H66.8073V317.865Z" fill="white"/>
</mask>
<g mask="url(#mask7_83_2)">
<path d="M82.0545 343.754H82.2212V346.317H67.5545V346.15C68.5806 346.15 69.2629 346.036 69.5962 345.796C69.94 345.562 70.117 345.046 70.117 344.254V325.421C70.117 324.645 69.94 324.14 69.5962 323.9C69.2629 323.65 68.5806 323.525 67.5545 323.525V323.358H81.7629V325.921H81.5962C81.5962 324.963 81.4712 324.327 81.2212 324.004C80.9816 323.687 80.4608 323.525 79.6587 323.525H72.6795V334.671H77.7629C78.565 334.671 79.0806 334.515 79.3045 334.192C79.5389 333.858 79.6587 333.166 79.6587 332.108H79.8254V337.4H79.6587C79.6587 336.348 79.5389 335.661 79.3045 335.338C79.0806 335.004 78.565 334.838 77.7629 334.838H72.6795V346.15H80.1587C80.9347 346.15 81.44 345.994 81.6795 345.671C81.9295 345.353 82.0545 344.713 82.0545 343.754ZM78.5337 318.733L75.367 320.796H74.9087L77.4295 317.942L78.5337 318.733Z" fill="#6B725C"/>
</g>
</g>
</svg>
