<svg width="66" height="74" viewBox="0 0 66 74" fill="none" xmlns="http://www.w3.org/2000/svg">
<mask id="mask0_97_2544" style="mask-type:luminance" maskUnits="userSpaceOnUse" x="0" y="0" width="66" height="74">
<path d="M0 0H65.5156V73.875H0V0Z" fill="white"/>
</mask>
<g mask="url(#mask0_97_2544)">
<path fill-rule="evenodd" clip-rule="evenodd" d="M32.3542 0.140637L32.375 0.135429C33.6771 0.0260526 35.0573 0.531261 36.0729 1.34376C38.0938 2.95834 38.9323 5.38022 39.2083 7.87501H44.224C44.2865 7.76043 44.2812 7.57293 44.2969 7.43751L44.4219 6.66147C44.6979 5.20314 45.2865 3.67189 46.2083 2.50522C47.1719 1.28647 48.5156 0.364595 50.0833 0.187512C51.474 0.0312612 52.8333 0.546886 53.9115 1.41147C55.8542 2.96876 56.7083 5.50001 56.9792 7.89064C58.2396 7.88543 59.6406 7.76043 60.875 8.04168C62.401 8.39064 63.7448 9.4323 64.5625 10.7552C65.0781 11.5938 65.3958 12.5208 65.4583 13.5052C65.5312 14.6198 65.4688 15.7761 65.4688 16.8958L65.4844 23.9271L65.4896 51.2031L65.4792 65.0781L65.4688 68.474C65.4688 69.1823 65.5417 70.0104 65.3698 70.6979L65.349 70.7656C65.1615 71.5104 64.8177 72.1354 64.2708 72.6771C63.6979 73.2396 62.9948 73.6719 62.1979 73.8021C61.7344 73.875 61.276 73.8646 60.8125 73.8646H59.0938L53.6094 73.8594L33.1094 73.8646L13.9167 73.8542L8.79688 73.8594C7.92709 73.8594 6.97396 73.9375 6.11979 73.8073C5.13542 73.6511 4.15625 73.1667 3.44792 72.4688C2.375 71.4011 1.98438 70.0417 1.97917 68.5625C1.42709 68.5573 0.973961 68.4167 0.578128 68.0104C0.307294 67.7396 0.0989612 67.3542 0.0625025 66.9688C0.00521182 66.349 0.0416692 65.6927 0.0416692 65.0677V61.5261L0.0364608 49.9479L0.0312525 15.4583C0.0312525 14.724 2.49222e-06 13.9583 0.0833358 13.2292C0.239587 11.8177 0.901043 10.5417 1.90625 9.54689C2.79688 8.67189 3.97917 8.09376 5.21875 7.9271C5.69271 7.85939 6.16667 7.88022 6.64063 7.88022L8.625 7.88543C8.86459 5.9271 9.54167 3.90626 10.7813 2.35418C11.7135 1.18751 12.9792 0.322928 14.4896 0.171887C15.8906 0.0364709 17.276 0.531261 18.349 1.41668C20.2031 2.93751 21.1979 5.53647 21.4167 7.8698L26.2604 7.89064C26.4844 5.9271 27.0833 3.97397 28.3333 2.41147C29.3438 1.15105 30.7396 0.312512 32.3542 0.140637ZM50.349 3.50001C49.474 3.69793 48.9167 4.29168 48.4479 5.02605C47.8958 5.89585 47.6667 6.85939 47.4948 7.8646L50.8281 7.87501L53.6042 7.88543C53.4167 6.47397 52.9479 4.82814 51.7552 3.9271C51.3177 3.59376 50.8958 3.47918 50.349 3.50001ZM32.375 1.06772C31 1.2448 29.8281 2.01564 28.9844 3.10939C27.4323 5.10939 27.0104 7.69793 27.3281 10.1615C27.5781 12.099 28.4688 14.1927 30.0573 15.4063C30.4427 15.7031 30.9271 16.0104 31.401 16.1406L31.4635 16.1563C31.6875 16.2188 31.9948 16.2083 32.1979 16.0781C32.4167 15.9323 32.5573 15.75 32.6042 15.4896C32.6302 15.3333 32.5938 15.1406 32.4948 15.0104C32.3594 14.8386 32.1094 14.6771 31.8854 14.6667C31.8125 14.6615 31.7448 14.6719 31.6719 14.6823C31.625 14.6875 31.4792 14.7188 31.4427 14.7083C31.3021 14.6667 31.0833 14.5052 30.9688 14.4115C29.7656 13.4583 29.0365 11.6302 28.7969 10.1563C28.4948 8.15626 28.6823 5.87501 29.9167 4.19793C30.5156 3.38543 31.3125 2.70314 32.3385 2.5521C33.1927 2.4271 33.8906 2.66668 34.5625 3.1823C35.8438 4.16668 36.5938 5.87501 36.8021 7.45314L36.8333 7.89064L38.2552 7.88543C38.0313 5.63543 37.224 3.4896 35.4167 2.03126C34.8073 1.53647 34 1.19272 33.224 1.08335L33.1563 1.07293C32.9219 1.04168 32.6042 1.02605 32.375 1.06772ZM32.6667 3.4323C31.8229 3.56251 31.25 3.98959 30.75 4.6771C30.0417 5.63543 29.7552 6.71876 29.6406 7.88543L32.9115 7.87501L35.875 7.88022C35.7188 6.47397 35.224 4.90105 34.0781 3.97918C33.6615 3.64585 33.1979 3.46355 32.6667 3.4323ZM14.8177 3.46355C14.0365 3.63022 13.4479 4.16147 13.0156 4.81772C12.4219 5.72397 12.0833 6.8021 11.9844 7.88022L15.3854 7.87501L18.1563 7.88022C17.9271 6.43751 17.4219 4.77085 16.1875 3.8646C15.7604 3.5521 15.3385 3.4323 14.8177 3.46355ZM14.5938 1.10418C13.1927 1.31251 12.151 2.0521 11.3177 3.18751C9.8125 5.23959 9.28646 8.04168 9.67709 10.5313C9.97396 12.4219 10.8698 14.3854 12.4583 15.5208C12.9063 15.8438 13.6563 16.2865 14.224 16.1875C14.4427 16.1458 14.6354 16.0313 14.7656 15.8438C14.9063 15.6406 14.9427 15.3854 14.8854 15.1458C14.8438 15 14.7552 14.8542 14.6198 14.7761C14.3125 14.6042 13.9583 14.7552 13.6406 14.6511C13.474 14.5938 13.2917 14.4583 13.1563 14.349C12.2917 13.6875 11.7083 12.5781 11.3698 11.5625L11.0469 10.2188C10.776 8.08855 11.1198 5.71876 12.4635 3.98439C13.0052 3.28647 13.776 2.65626 14.6823 2.54689C15.4688 2.45314 16.1979 2.69272 16.8125 3.1823C17.901 4.04689 18.5521 5.40105 18.9115 6.71355C18.9896 6.9896 19.0469 7.26564 19.0938 7.54689C19.099 7.58335 19.1302 7.8698 19.1406 7.88022C19.1563 7.89585 20.3229 7.88022 20.4531 7.88022C20.25 5.8073 19.4063 3.46355 17.7448 2.1146C16.901 1.4271 15.724 0.994804 14.625 1.09897L14.5938 1.10418ZM5.83334 8.82814C4.45834 8.91147 3.27604 9.41668 2.35417 10.4583C1.71355 11.1823 1.26563 12.0313 1.06771 12.9792C0.968754 13.4688 0.989586 13.9844 0.989586 14.4792V16.4844L1.00521 23.599L64.5312 23.6042L64.526 17.0677V14.8386C64.526 14.0677 64.5365 13.3177 64.349 12.5625C64.1302 11.6979 63.6354 10.9063 63.0052 10.2761C62.3958 9.67189 61.5833 9.18751 60.7448 8.9896C59.8229 8.77085 58.8802 8.81251 57.9427 8.81772L55.2708 8.82293L47.6458 8.81251C47.5885 8.81251 47.5312 8.82293 47.474 8.82814L47.4375 8.90626C47.4792 10.5052 47.9271 12.2396 49.125 13.3802C49.1979 13.4531 49.4219 13.7031 49.5156 13.7292C49.5833 13.75 49.7083 13.7292 49.7812 13.7292C49.9948 13.7344 50.1771 13.7396 50.3802 13.8021L50.4427 13.8229C50.8385 13.9479 51.1615 14.2813 51.3438 14.6458C51.5208 14.9844 51.5521 15.375 51.474 15.75L51.4635 15.8073C51.375 16.2448 51.0885 16.6094 50.7135 16.849C50.2812 17.125 49.75 17.2292 49.25 17.1146C47.7969 16.7813 46.401 15.4011 45.651 14.1719C44.625 12.4948 44.2969 10.7396 44.2188 8.8073L29.6094 8.82814C29.7135 10.5521 30.2188 12.5365 31.6198 13.6823C31.7813 13.8125 32.0781 13.7656 32.2813 13.8021C32.9479 13.9271 33.4688 14.474 33.5573 15.1458C33.6146 15.599 33.4792 16.0833 33.1927 16.4323C32.8594 16.8438 32.3854 17.099 31.8542 17.1354C30.8646 17.1979 29.7448 16.4583 29.0573 15.8177C27.7083 14.5625 26.9115 12.875 26.526 11.0886C26.3802 10.3906 26.2865 9.70314 26.2552 8.9896C26.2552 8.97397 26.25 8.8021 26.25 8.8021C26.2292 8.78647 25.599 8.8021 25.5313 8.8021L22.2083 8.8073L11.8698 8.81251C11.9323 10.3906 12.3125 11.974 13.3542 13.2083C13.5208 13.4063 13.724 13.5833 13.9167 13.7604C14.4792 13.7656 14.9896 13.8281 15.4063 14.2552C15.6823 14.5365 15.8646 15.0208 15.8594 15.4167C15.8542 15.875 15.651 16.3281 15.3177 16.6406C14.9479 16.9844 14.4427 17.1302 13.9479 17.1094C12.8281 17.0677 11.6354 16.2552 10.9167 15.4479C9.26042 13.6042 8.64584 11.2344 8.58334 8.8073L5.83334 8.82814ZM0.989586 24.5208L1.01563 52.1094L1.01042 61.474V66.7917C1.01563 67.0208 1.04688 67.1719 1.21354 67.3333C1.32813 67.4479 1.48959 67.5417 1.64584 67.5781C2.11459 67.6771 2.71875 67.6094 3.20313 67.6042L5.66146 67.599L16.526 67.5938H42.0469L49.9635 67.6042L54.5469 67.5886C55.7292 67.5365 56.7448 67.0365 57.5885 66.2292C58.3281 65.4479 58.849 64.5469 59.0052 63.4688C59.0781 62.9531 59.0573 62.4167 59.0573 61.9011V59.6615L59.0521 52.0677V31.5573L59.026 24.5365L0.989586 24.5208ZM23.6458 35.0573C23.9375 35.0156 24.3125 35.0417 24.6042 35.0625C26.224 35.1927 27.6875 35.7865 28.8906 36.8854C29.2031 37.1667 29.4688 37.4948 29.7396 37.8125C29.8125 37.7865 29.875 37.6771 29.9271 37.6146C30.0781 37.4323 30.2292 37.2604 30.3906 37.0938C31.6667 35.8073 33.526 35.0313 35.3438 35.0469C37.0521 35.0625 38.7969 35.8073 40 37.0104C41.3438 38.3594 42.1042 40.1511 42.099 42.0573C42.0938 43.375 41.7448 44.5261 41.0573 45.6511C40.6563 46.3073 40.1354 46.7865 39.599 47.3229L38.224 48.7292L34.1615 52.8073L31.276 55.6823C30.875 56.0886 30.4948 56.5625 30.0677 56.9323C29.9635 57.0156 29.849 57.099 29.7083 57.1146C29.5625 57.125 29.4479 57.0781 29.3385 56.9896C28.9635 56.6875 28.6354 56.2865 28.2969 55.9427L26.3646 54.0156L21.1615 48.8073C20.25 47.8958 19.1667 47.0417 18.4271 45.9792C17.7656 45.0365 17.3021 43.8542 17.2031 42.6979C17.0521 40.8542 17.5677 38.9427 18.7813 37.5261C19.6563 36.5104 20.9219 35.6511 22.2188 35.2917C22.6823 35.1563 23.1615 35.099 23.6458 35.0573ZM23.8073 35.9896C22.0885 36.1354 20.6146 36.8125 19.4844 38.1458C18.4896 39.3229 18 40.9688 18.1458 42.5052C18.2396 43.4844 18.5313 44.4063 19.0729 45.2292C19.5469 45.9479 20.1875 46.5469 20.7917 47.1458L22.7448 49.0938L29.6719 56.0208L34.1615 51.5313L37.3854 48.2917L39.0885 46.5469C39.5781 46.0261 40.0573 45.5469 40.4167 44.9219C40.901 44.0677 41.1563 43.0313 41.1719 42.0573C41.1927 40.4688 40.5677 38.9115 39.4531 37.7761C38.3646 36.6719 36.8229 36.0104 35.2708 36.0104C33.6823 36.0052 32.1198 36.6823 31.0104 37.8177C30.8385 37.9896 30.6719 38.1719 30.526 38.3646C30.3177 38.6354 30.1302 39.125 29.7292 39.1198C29.5677 39.1198 29.4219 39.0469 29.3177 38.9219C29.0365 38.5833 28.8125 38.2031 28.5104 37.8698C27.6094 36.8698 26.2708 36.1875 24.9375 36.0208C24.6198 35.9844 24.1146 35.9167 23.8073 35.9896ZM59.9948 24.5261V61.8854C59.9948 62.5677 60 63.2344 59.8802 63.9115C59.6719 65.0833 59.0052 66.1615 58.1615 66.9844C57.3438 67.7761 56.3177 68.3021 55.1927 68.4636C54.5729 68.5521 53.9323 68.5313 53.3073 68.5313H41.9271L9.63021 68.5417L3.64063 68.5313C3.57813 68.5313 2.95834 68.5208 2.9375 68.5417C2.9375 68.5417 2.93229 68.6302 2.93229 68.6406C2.91146 69.8021 3.23438 70.875 4.05729 71.724C4.91667 72.6146 5.89584 72.9219 7.10417 72.9323H7.58334L44.724 72.9479L56.7344 72.9427L60.0312 72.9323C60.6354 72.9323 61.2708 72.9688 61.8698 72.9011C62.5365 72.8281 63.1615 72.5 63.6302 72.0261C64.1406 71.5104 64.4323 70.8438 64.5104 70.125C64.5625 69.5886 64.5312 69.0208 64.5312 68.4844L64.526 65.5156L64.5208 55.9479L64.5156 35.2604L64.5208 25.1146L64.5052 24.5261H59.9948ZM50.3594 1.10939C48.9583 1.27085 47.8646 1.94272 46.9896 3.04689C45.5052 4.91147 44.9427 7.63543 45.2135 9.97918C45.4583 12.0781 46.3073 14.0313 48.0104 15.3542C48.526 15.75 49.2188 16.2656 49.9062 16.1667C50.1354 16.1354 50.2865 16.0417 50.4219 15.849C50.5469 15.6771 50.6094 15.5 50.5729 15.2813C50.5417 15.0833 50.4062 14.9063 50.2396 14.7969C50.0729 14.6875 49.8906 14.6302 49.6927 14.6771L49.375 14.7656C48.0521 13.9583 47.1667 12.6406 46.8021 11.1406L46.6719 10.5417C46.349 8.27085 46.5781 5.9323 47.9948 4.03647C48.5052 3.35939 49.3698 2.6771 50.2344 2.56251C51.0365 2.45314 51.7604 2.75001 52.3854 3.2396C53.6406 4.21355 54.3333 6.01043 54.5208 7.54689L54.5521 7.89585L56.0156 7.89064C55.9323 7.28126 55.8542 6.66668 55.6979 6.07293C55.3125 4.60418 54.4583 3.02085 53.2396 2.08855C52.3802 1.4323 51.4531 1.04168 50.3594 1.10939Z" fill="#6B725C"/>
</g>
</svg>
