<svg width="210" height="61" viewBox="0 0 210 61" fill="none" xmlns="http://www.w3.org/2000/svg">
<mask id="mask0_108_3" style="mask-type:luminance" maskUnits="userSpaceOnUse" x="0" y="0" width="61" height="61">
<path d="M0 0H60.8958V60.8958H0V0Z" fill="white"/>
</mask>
<g mask="url(#mask0_108_3)">
<path d="M60.7083 30.3542C60.7083 31.349 60.6562 32.3385 60.5625 33.3281C60.4635 34.3177 60.3177 35.3021 60.125 36.276C59.9271 37.25 59.6875 38.2135 59.401 39.1667C59.1094 40.1198 58.776 41.0521 58.3958 41.9688C58.0156 42.8906 57.5885 43.7865 57.1198 44.6667C56.651 45.5417 56.1406 46.3906 55.5885 47.2188C55.0365 48.0469 54.4479 48.8438 53.8177 49.6094C53.1875 50.3802 52.5208 51.1146 51.8177 51.8177C51.1146 52.5208 50.375 53.1875 49.6094 53.8177C48.8385 54.4479 48.0417 55.0417 47.2135 55.5938C46.3906 56.1458 45.5365 56.6563 44.6615 57.125C43.7865 57.5938 42.8854 58.0208 41.9688 58.401C41.0521 58.7813 40.1146 59.1146 39.1615 59.401C38.2135 59.6927 37.25 59.9323 36.276 60.125C35.2969 60.3177 34.3177 60.4635 33.3281 60.5625C32.3385 60.6615 31.3438 60.7083 30.3542 60.7083C29.3594 60.7083 28.3646 60.6615 27.375 60.5625C26.3854 60.4635 25.4062 60.3177 24.4323 60.125C23.4531 59.9323 22.4896 59.6927 21.5417 59.401C20.5885 59.1146 19.6562 58.7813 18.7344 58.401C17.8177 58.0208 16.9219 57.5938 16.0417 57.125C15.1667 56.6563 14.3125 56.1458 13.4896 55.5938C12.6615 55.0417 11.8646 54.4479 11.0938 53.8177C10.3281 53.1875 9.58854 52.5208 8.89062 51.8177C8.1875 51.1146 7.52083 50.3802 6.88542 49.6094C6.25521 48.8438 5.66667 48.0469 5.11458 47.2188C4.5625 46.3906 4.05208 45.5417 3.58333 44.6667C3.11458 43.7865 2.6875 42.8906 2.30729 41.9688C1.92708 41.0521 1.59375 40.1198 1.30208 39.1667C1.01562 38.2135 0.776041 37.25 0.583333 36.276C0.385417 35.3021 0.239583 34.3177 0.145833 33.3281C0.0468747 32.3385 0 31.349 0 30.3542C0 29.3594 0.0468747 28.3698 0.145833 27.3802C0.239583 26.3906 0.385417 25.4063 0.583333 24.4323C0.776041 23.4583 1.01562 22.4948 1.30208 21.5417C1.59375 20.5938 1.92708 19.6562 2.30729 18.7396C2.6875 17.8229 3.11458 16.9219 3.58333 16.0469C4.05208 15.1719 4.5625 14.3177 5.11458 13.4896C5.66667 12.6667 6.25521 11.8646 6.88542 11.099C7.52083 10.3281 8.1875 9.59375 8.89062 8.89062C9.58854 8.1875 10.3281 7.52083 11.0938 6.89062C11.8646 6.26042 12.6615 5.66667 13.4896 5.11458C14.3125 4.5625 15.1667 4.05208 16.0417 3.58333C16.9219 3.11458 17.8177 2.69271 18.7344 2.3125C19.6562 1.93229 20.5885 1.59896 21.5417 1.30729C22.4896 1.02083 23.4531 0.776041 24.4323 0.583333C25.4062 0.390625 26.3854 0.244792 27.375 0.145833C28.3646 0.0520827 29.3594 0 30.3542 0C31.3438 0 32.3385 0.0520827 33.3281 0.145833C34.3177 0.244792 35.2969 0.390625 36.276 0.583333C37.25 0.776041 38.2135 1.02083 39.1615 1.30729C40.1146 1.59896 41.0521 1.93229 41.9688 2.3125C42.8854 2.69271 43.7865 3.11458 44.6615 3.58333C45.5365 4.05208 46.3906 4.5625 47.2135 5.11458C48.0417 5.66667 48.8385 6.26042 49.6094 6.89062C50.375 7.52083 51.1146 8.1875 51.8177 8.89062C52.5208 9.59375 53.1875 10.3281 53.8177 11.099C54.4479 11.8646 55.0365 12.6667 55.5885 13.4896C56.1406 14.3177 56.651 15.1719 57.1198 16.0469C57.5885 16.9219 58.0156 17.8229 58.3958 18.7396C58.776 19.6562 59.1094 20.5938 59.401 21.5417C59.6875 22.4948 59.9271 23.4583 60.125 24.4323C60.3177 25.4063 60.4635 26.3906 60.5625 27.3802C60.6562 28.3698 60.7083 29.3594 60.7083 30.3542Z" fill="white"/>
</g>
<mask id="mask1_108_3" style="mask-type:luminance" maskUnits="userSpaceOnUse" x="39" y="0" width="62" height="61">
<path d="M39.3438 0H100.24V60.8958H39.3438V0Z" fill="white"/>
</mask>
<g mask="url(#mask1_108_3)">
<path d="M100.052 30.3542C100.052 31.349 100 32.3385 99.9062 33.3281C99.8073 34.3177 99.6615 35.3021 99.4688 36.276C99.2708 37.25 99.0312 38.2135 98.7448 39.1667C98.4531 40.1198 98.1198 41.0521 97.7396 41.9688C97.3594 42.8906 96.9323 43.7865 96.4635 44.6667C95.9948 45.5417 95.4844 46.3906 94.9323 47.2188C94.3802 48.0469 93.7917 48.8438 93.1615 49.6094C92.5312 50.3802 91.8646 51.1146 91.1615 51.8177C90.4583 52.5208 89.7188 53.1875 88.9531 53.8177C88.1823 54.4479 87.3854 55.0417 86.5573 55.5938C85.7344 56.1458 84.8802 56.6563 84.0052 57.125C83.1302 57.5938 82.2292 58.0208 81.3125 58.401C80.3906 58.7813 79.4583 59.1146 78.5052 59.401C77.5573 59.6927 76.5938 59.9323 75.6198 60.125C74.6406 60.3177 73.6615 60.4635 72.6719 60.5625C71.6823 60.6615 70.6875 60.7083 69.6979 60.7083C68.7031 60.7083 67.7083 60.6615 66.7188 60.5625C65.7292 60.4635 64.75 60.3177 63.776 60.125C62.7969 59.9323 61.8333 59.6927 60.8854 59.401C59.9323 59.1146 59 58.7813 58.0781 58.401C57.1615 58.0208 56.2656 57.5938 55.3854 57.125C54.5104 56.6563 53.6562 56.1458 52.8333 55.5938C52.0052 55.0417 51.2083 54.4479 50.4375 53.8177C49.6719 53.1875 48.9323 52.5208 48.2292 51.8177C47.5312 51.1146 46.8646 50.3802 46.2292 49.6094C45.599 48.8438 45.0104 48.0469 44.4583 47.2188C43.9062 46.3906 43.3958 45.5417 42.9271 44.6667C42.4583 43.7865 42.0312 42.8906 41.651 41.9688C41.2708 41.0521 40.9375 40.1198 40.6458 39.1667C40.3594 38.2135 40.1198 37.25 39.9219 36.276C39.7292 35.3021 39.5833 34.3177 39.4896 33.3281C39.3906 32.3385 39.3438 31.349 39.3438 30.3542C39.3438 29.3594 39.3906 28.3698 39.4896 27.3802C39.5833 26.3906 39.7292 25.4063 39.9219 24.4323C40.1198 23.4583 40.3594 22.4948 40.6458 21.5417C40.9375 20.5938 41.2708 19.6562 41.651 18.7396C42.0312 17.8229 42.4583 16.9219 42.9271 16.0469C43.3958 15.1719 43.9062 14.3177 44.4583 13.4896C45.0104 12.6667 45.599 11.8646 46.2292 11.099C46.8646 10.3281 47.5312 9.59375 48.2292 8.89062C48.9323 8.1875 49.6719 7.52083 50.4375 6.89062C51.2083 6.26042 52.0052 5.66667 52.8333 5.11458C53.6562 4.5625 54.5104 4.05208 55.3854 3.58333C56.2656 3.11458 57.1615 2.69271 58.0781 2.3125C59 1.93229 59.9323 1.59896 60.8854 1.30729C61.8333 1.02083 62.7969 0.776041 63.776 0.583333C64.75 0.390625 65.7292 0.244792 66.7188 0.145833C67.7083 0.0520827 68.7031 0 69.6979 0C70.6875 0 71.6823 0.0520827 72.6719 0.145833C73.6615 0.244792 74.6406 0.390625 75.6198 0.583333C76.5938 0.776041 77.5573 1.02083 78.5052 1.30729C79.4583 1.59896 80.3906 1.93229 81.3125 2.3125C82.2292 2.69271 83.1302 3.11458 84.0052 3.58333C84.8802 4.05208 85.7344 4.5625 86.5573 5.11458C87.3854 5.66667 88.1823 6.26042 88.9531 6.89062C89.7188 7.52083 90.4583 8.1875 91.1615 8.89062C91.8646 9.59375 92.5312 10.3281 93.1615 11.099C93.7917 11.8646 94.3802 12.6667 94.9323 13.4896C95.4844 14.3177 95.9948 15.1719 96.4635 16.0469C96.9323 16.9219 97.3594 17.8229 97.7396 18.7396C98.1198 19.6562 98.4531 20.5938 98.7448 21.5417C99.0312 22.4948 99.2708 23.4583 99.4688 24.4323C99.6615 25.4063 99.8073 26.3906 99.9062 27.3802C100 28.3698 100.052 29.3594 100.052 30.3542Z" fill="#6B725C"/>
</g>
<mask id="mask2_108_3" style="mask-type:luminance" maskUnits="userSpaceOnUse" x="77" y="0" width="62" height="61">
<path d="M77.2552 0H138.151V60.8958H77.2552V0Z" fill="white"/>
</mask>
<g mask="url(#mask2_108_3)">
<path d="M137.964 30.3542C137.964 31.349 137.917 32.3385 137.818 33.3281C137.719 34.3177 137.573 35.3021 137.38 36.276C137.188 37.25 136.948 38.2135 136.656 39.1667C136.37 40.1198 136.036 41.0521 135.656 41.9688C135.271 42.8906 134.849 43.7865 134.38 44.6667C133.911 45.5417 133.401 46.3906 132.849 47.2188C132.297 48.0469 131.703 48.8438 131.073 49.6094C130.443 50.3802 129.776 51.1146 129.073 51.8177C128.37 52.5208 127.635 53.1875 126.865 53.8177C126.099 54.4479 125.302 55.0417 124.474 55.5938C123.646 56.1458 122.797 56.6563 121.917 57.125C121.042 57.5938 120.146 58.0208 119.224 58.401C118.307 58.7813 117.375 59.1146 116.422 59.401C115.469 59.6927 114.505 59.9323 113.531 60.125C112.557 60.3177 111.573 60.4635 110.583 60.5625C109.594 60.6615 108.604 60.7083 107.609 60.7083C106.615 60.7083 105.625 60.6615 104.635 60.5625C103.646 60.4635 102.661 60.3177 101.688 60.125C100.714 59.9323 99.75 59.6927 98.7969 59.401C97.849 59.1146 96.9115 58.7813 95.9948 58.401C95.0729 58.0208 94.1771 57.5938 93.3021 57.125C92.4219 56.6563 91.5729 56.1458 90.7448 55.5938C89.9219 55.0417 89.1198 54.4479 88.3542 53.8177C87.5833 53.1875 86.849 52.5208 86.1458 51.8177C85.4427 51.1146 84.7761 50.3802 84.1458 49.6094C83.5156 48.8438 82.9219 48.0469 82.3698 47.2188C81.8177 46.3906 81.3073 45.5417 80.8386 44.6667C80.3698 43.7865 79.9479 42.8906 79.5677 41.9688C79.1875 41.0521 78.849 40.1198 78.5625 39.1667C78.2761 38.2135 78.0313 37.25 77.8386 36.276C77.6458 35.3021 77.5 34.3177 77.4011 33.3281C77.3021 32.3385 77.2552 31.349 77.2552 30.3542C77.2552 29.3594 77.3021 28.3698 77.4011 27.3802C77.5 26.3906 77.6458 25.4063 77.8386 24.4323C78.0313 23.4583 78.2761 22.4948 78.5625 21.5417C78.849 20.5938 79.1875 19.6562 79.5677 18.7396C79.9479 17.8229 80.3698 16.9219 80.8386 16.0469C81.3073 15.1719 81.8177 14.3177 82.3698 13.4896C82.9219 12.6667 83.5156 11.8646 84.1458 11.099C84.7761 10.3281 85.4427 9.59375 86.1458 8.89062C86.849 8.1875 87.5833 7.52083 88.3542 6.89062C89.1198 6.26042 89.9219 5.66667 90.7448 5.11458C91.5729 4.5625 92.4219 4.05208 93.3021 3.58333C94.1771 3.11458 95.0729 2.69271 95.9948 2.3125C96.9115 1.93229 97.849 1.59896 98.7969 1.30729C99.75 1.02083 100.714 0.776041 101.688 0.583333C102.661 0.390625 103.646 0.244792 104.635 0.145833C105.625 0.0520827 106.615 0 107.609 0C108.604 0 109.594 0.0520827 110.583 0.145833C111.573 0.244792 112.557 0.390625 113.531 0.583333C114.505 0.776041 115.469 1.02083 116.422 1.30729C117.375 1.59896 118.307 1.93229 119.224 2.3125C120.146 2.69271 121.042 3.11458 121.917 3.58333C122.797 4.05208 123.646 4.5625 124.474 5.11458C125.302 5.66667 126.099 6.26042 126.865 6.89062C127.635 7.52083 128.37 8.1875 129.073 8.89062C129.776 9.59375 130.443 10.3281 131.073 11.099C131.703 11.8646 132.297 12.6667 132.849 13.4896C133.401 14.3177 133.911 15.1719 134.38 16.0469C134.849 16.9219 135.271 17.8229 135.656 18.7396C136.036 19.6562 136.37 20.5938 136.656 21.5417C136.948 22.4948 137.188 23.4583 137.38 24.4323C137.573 25.4063 137.719 26.3906 137.818 27.3802C137.917 28.3698 137.964 29.3594 137.964 30.3542Z" fill="#989F83"/>
</g>
<mask id="mask3_108_3" style="mask-type:luminance" maskUnits="userSpaceOnUse" x="117" y="0" width="62" height="61">
<path d="M117.896 0H178.792V60.8958H117.896V0Z" fill="white"/>
</mask>
<g mask="url(#mask3_108_3)">
<path d="M178.604 30.3542C178.604 31.349 178.557 32.3385 178.458 33.3281C178.365 34.3177 178.219 35.3021 178.021 36.276C177.828 37.25 177.589 38.2135 177.297 39.1667C177.01 40.1198 176.677 41.0521 176.297 41.9688C175.917 42.8906 175.49 43.7865 175.021 44.6667C174.552 45.5417 174.042 46.3906 173.49 47.2188C172.937 48.0469 172.349 48.8438 171.714 49.6094C171.083 50.3802 170.417 51.1146 169.714 51.8177C169.01 52.5208 168.276 53.1875 167.51 53.8177C166.74 54.4479 165.943 55.0417 165.115 55.5938C164.292 56.1458 163.437 56.6563 162.562 57.125C161.682 57.5938 160.786 58.0208 159.87 58.401C158.948 58.7813 158.016 59.1146 157.062 59.401C156.109 59.6927 155.151 59.9323 154.172 60.125C153.198 60.3177 152.219 60.4635 151.229 60.5625C150.24 60.6615 149.245 60.7083 148.25 60.7083C147.255 60.7083 146.266 60.6615 145.276 60.5625C144.286 60.4635 143.307 60.3177 142.328 60.125C141.354 59.9323 140.391 59.6927 139.443 59.401C138.49 59.1146 137.552 58.7813 136.635 58.401C135.719 58.0208 134.818 57.5938 133.943 57.125C133.068 56.6563 132.214 56.1458 131.385 55.5938C130.562 55.0417 129.766 54.4479 128.995 53.8177C128.229 53.1875 127.49 52.5208 126.786 51.8177C126.083 51.1146 125.417 50.3802 124.786 49.6094C124.156 48.8438 123.568 48.0469 123.016 47.2188C122.458 46.3906 121.948 45.5417 121.479 44.6667C121.016 43.7865 120.589 42.8906 120.208 41.9688C119.828 41.0521 119.495 40.1198 119.203 39.1667C118.917 38.2135 118.677 37.25 118.479 36.276C118.286 35.3021 118.141 34.3177 118.042 33.3281C117.948 32.3385 117.896 31.349 117.896 30.3542C117.896 29.3594 117.948 28.3698 118.042 27.3802C118.141 26.3906 118.286 25.4063 118.479 24.4323C118.677 23.4583 118.917 22.4948 119.203 21.5417C119.495 20.5938 119.828 19.6562 120.208 18.7396C120.589 17.8229 121.016 16.9219 121.479 16.0469C121.948 15.1719 122.458 14.3177 123.016 13.4896C123.568 12.6667 124.156 11.8646 124.786 11.099C125.417 10.3281 126.083 9.59375 126.786 8.89062C127.49 8.1875 128.229 7.52083 128.995 6.89062C129.766 6.26042 130.562 5.66667 131.385 5.11458C132.214 4.5625 133.068 4.05208 133.943 3.58333C134.818 3.11458 135.719 2.69271 136.635 2.3125C137.552 1.93229 138.49 1.59896 139.443 1.30729C140.391 1.02083 141.354 0.776041 142.328 0.583333C143.307 0.390625 144.286 0.244792 145.276 0.145833C146.266 0.0520827 147.255 0 148.25 0C149.245 0 150.24 0.0520827 151.229 0.145833C152.219 0.244792 153.198 0.390625 154.172 0.583333C155.151 0.776041 156.109 1.02083 157.062 1.30729C158.016 1.59896 158.948 1.93229 159.87 2.3125C160.786 2.69271 161.682 3.11458 162.562 3.58333C163.437 4.05208 164.292 4.5625 165.115 5.11458C165.943 5.66667 166.74 6.26042 167.51 6.89062C168.276 7.52083 169.01 8.1875 169.714 8.89062C170.417 9.59375 171.083 10.3281 171.714 11.099C172.349 11.8646 172.937 12.6667 173.49 13.4896C174.042 14.3177 174.552 15.1719 175.021 16.0469C175.49 16.9219 175.917 17.8229 176.297 18.7396C176.677 19.6562 177.01 20.5938 177.297 21.5417C177.589 22.4948 177.828 23.4583 178.021 24.4323C178.219 25.4063 178.365 26.3906 178.458 27.3802C178.557 28.3698 178.604 29.3594 178.604 30.3542Z" fill="#7D688F"/>
</g>
<mask id="mask4_108_3" style="mask-type:luminance" maskUnits="userSpaceOnUse" x="148" y="0" width="62" height="61">
<path d="M148.25 0H209.146V60.8958H148.25V0Z" fill="white"/>
</mask>
<g mask="url(#mask4_108_3)">
<path d="M208.964 30.3542C208.964 31.349 208.911 32.3385 208.812 33.3281C208.719 34.3177 208.573 35.3021 208.38 36.276C208.182 37.25 207.943 38.2135 207.656 39.1667C207.365 40.1198 207.031 41.0521 206.651 41.9688C206.271 42.8906 205.844 43.7865 205.375 44.6667C204.906 45.5417 204.396 46.3906 203.844 47.2188C203.292 48.0469 202.703 48.8438 202.073 49.6094C201.443 50.3802 200.771 51.1146 200.073 51.8177C199.37 52.5208 198.63 53.1875 197.865 53.8177C197.094 54.4479 196.297 55.0417 195.469 55.5938C194.646 56.1458 193.792 56.6563 192.917 57.125C192.036 57.5938 191.141 58.0208 190.224 58.401C189.302 58.7813 188.37 59.1146 187.417 59.401C186.469 59.6927 185.505 59.9323 184.526 60.125C183.552 60.3177 182.573 60.4635 181.583 60.5625C180.594 60.6615 179.599 60.7083 178.604 60.7083C177.615 60.7083 176.62 60.6615 175.63 60.5625C174.641 60.4635 173.661 60.3177 172.682 60.125C171.708 59.9323 170.745 59.6927 169.797 59.401C168.844 59.1146 167.911 58.7813 166.99 58.401C166.073 58.0208 165.172 57.5938 164.297 57.125C163.422 56.6563 162.568 56.1458 161.745 55.5938C160.917 55.0417 160.12 54.4479 159.349 53.8177C158.583 53.1875 157.844 52.5208 157.141 51.8177C156.438 51.1146 155.771 50.3802 155.141 49.6094C154.51 48.8438 153.922 48.0469 153.37 47.2188C152.818 46.3906 152.307 45.5417 151.839 44.6667C151.37 43.7865 150.943 42.8906 150.562 41.9688C150.182 41.0521 149.849 40.1198 149.557 39.1667C149.271 38.2135 149.031 37.25 148.833 36.276C148.641 35.3021 148.495 34.3177 148.396 33.3281C148.302 32.3385 148.25 31.349 148.25 30.3542C148.25 29.3594 148.302 28.3698 148.396 27.3802C148.495 26.3906 148.641 25.4063 148.833 24.4323C149.031 23.4583 149.271 22.4948 149.557 21.5417C149.849 20.5938 150.182 19.6562 150.562 18.7396C150.943 17.8229 151.37 16.9219 151.839 16.0469C152.307 15.1719 152.818 14.3177 153.37 13.4896C153.922 12.6667 154.51 11.8646 155.141 11.099C155.771 10.3281 156.438 9.59375 157.141 8.89062C157.844 8.1875 158.583 7.52083 159.349 6.89062C160.12 6.26042 160.917 5.66667 161.745 5.11458C162.568 4.5625 163.422 4.05208 164.297 3.58333C165.172 3.11458 166.073 2.69271 166.99 2.3125C167.911 1.93229 168.844 1.59896 169.797 1.30729C170.745 1.02083 171.708 0.776041 172.682 0.583333C173.661 0.390625 174.641 0.244792 175.63 0.145833C176.62 0.0520827 177.615 0 178.604 0C179.599 0 180.594 0.0520827 181.583 0.145833C182.573 0.244792 183.552 0.390625 184.526 0.583333C185.505 0.776041 186.469 1.02083 187.417 1.30729C188.37 1.59896 189.302 1.93229 190.224 2.3125C191.141 2.69271 192.036 3.11458 192.917 3.58333C193.792 4.05208 194.646 4.5625 195.469 5.11458C196.297 5.66667 197.094 6.26042 197.865 6.89062C198.63 7.52083 199.37 8.1875 200.073 8.89062C200.771 9.59375 201.443 10.3281 202.073 11.099C202.703 11.8646 203.292 12.6667 203.844 13.4896C204.396 14.3177 204.906 15.1719 205.375 16.0469C205.844 16.9219 206.271 17.8229 206.651 18.7396C207.031 19.6562 207.365 20.5938 207.656 21.5417C207.943 22.4948 208.182 23.4583 208.38 24.4323C208.573 25.4063 208.719 26.3906 208.812 27.3802C208.911 28.3698 208.964 29.3594 208.964 30.3542Z" fill="#95829B"/>
</g>
</svg>
