<svg width="76" height="78" viewBox="0 0 76 78" fill="none" xmlns="http://www.w3.org/2000/svg">
<mask id="mask0_116_4" style="mask-type:luminance" maskUnits="userSpaceOnUse" x="13" y="29" width="63" height="49">
<path d="M13.8646 29.2837H75.8698V77.8202H13.8646V29.2837Z" fill="white"/>
</mask>
<g mask="url(#mask0_116_4)">
<path d="M23.8177 34.8672C23.3177 35.112 22.8021 35.2995 22.2604 35.4297C21.2292 35.7526 19.6927 36.2109 17.7083 36.7891C17.1563 36.9505 16.5625 37.1224 15.9271 37.3099C15.9271 37.3359 15.9271 37.3672 15.9271 37.3984C15.9323 37.5391 15.9375 37.6745 15.9479 37.8151C15.9531 38.0234 15.9583 38.2266 15.9635 38.4401C15.9688 38.862 15.974 39.2943 15.9688 39.737C15.8385 40.6328 16.2031 41.5703 16.0052 42.5547C15.9531 43.5443 16.0052 44.5755 16.0469 45.6536C16.0885 46.7318 15.9635 47.8516 16.0833 49.0182C16.3281 50.1849 15.8073 51.3932 16.1146 52.6432C16.1823 53.8984 16.1667 55.1901 16.151 56.5182C16.0469 57.8932 16.0573 59.263 16.1823 60.6328C15.9948 62.0807 16.0052 63.5286 16.2083 64.9714C15.9167 66.4922 15.9219 68.013 16.2396 69.5286C16.2448 71.0807 16.125 72.6693 16.2604 74.2891C16.2708 74.6432 16.276 74.9974 16.2813 75.3568C16.2813 75.4453 16.2813 75.5391 16.2917 75.6276L16.2969 75.7578L16.474 75.7474H17.0208C17.4896 75.7474 17.9635 75.7526 18.4375 75.7682C20.151 75.5703 21.8646 75.5651 23.5781 75.7474C25.349 75.5703 27.1198 75.5651 28.8906 75.7318C30.6927 75.8568 32.5156 75.5339 34.3698 75.7109C36.2188 75.7266 38.099 75.6641 40 75.6953C41.9219 75.8411 43.8438 75.8411 45.7708 75.6849C47.7135 75.6328 49.6823 75.5547 51.6719 75.6745C53.6771 75.4922 55.6875 75.4922 57.6927 75.6693C59.7188 75.6276 61.7656 75.7995 63.8229 75.6641C65.8854 75.7005 67.9635 75.5599 70.0521 75.6641C70.849 75.6901 71.6406 75.7161 72.4323 75.7318C72.8281 75.7422 73.224 75.7474 73.6198 75.7474L73.901 75.7422H73.974C74.0156 75.7422 74.0625 75.737 74.099 75.7318C74.0938 75.6745 74.0833 75.6172 74.0729 75.5651L74.0677 75.5495C74.0677 75.5339 74.0625 75.5495 74.0625 75.5026L74.0521 75.3203L74.0312 74.9505C73.8802 72.888 74.0938 70.8411 74.0365 68.8151C74.2552 66.7891 73.9635 64.7839 74.0417 62.7943C74.0208 60.8099 74.1719 58.8411 74.0521 56.8932C74.0104 54.9453 73.9688 53.0234 74.0625 51.1224C73.9323 49.2474 73.9375 47.3672 74.0781 45.4922C74.224 43.6432 74.0573 41.8151 74.099 40.0182C74.0313 38.2161 74.2552 36.4453 74.1146 34.7005C74.125 33.987 74.1094 33.2734 74.099 32.5703C74.0885 32.2161 74.0833 31.8672 74.0781 31.5182V31.2943C74.0833 31.2578 74.0833 31.2214 74.0885 31.1797C74.0208 31.1693 73.9531 31.1536 73.8906 31.1328C72.2083 31.3047 70.5573 30.9922 68.9323 31.112C67.3125 31.1068 65.7292 31.1224 64.1719 31.0859C62.6562 30.9297 61.1354 30.9245 59.6198 31.0547C58.1719 31.1224 56.724 31.112 55.2813 31.0286C53.8698 31.0026 52.4948 30.888 51.1667 30.9974C49.875 30.8255 48.5833 30.8151 47.2917 30.9609C46.0833 30.862 44.875 30.8516 43.6667 30.9245C43.099 31.0234 42.526 31.0443 41.9479 30.9974C41.6719 30.9714 41.3906 30.9505 41.1146 30.9297C40.9792 30.9245 40.8385 30.9141 40.7031 30.9036L40.5 30.8932H40.3177L37.4063 31.6328C33.1042 32.7266 29.7135 33.5703 27.401 34.1224C26.2396 34.3984 25.349 34.6016 24.7448 34.7266C24.4427 34.8203 24.1354 34.8672 23.8177 34.8672C24.1563 34.6797 24.5156 34.5443 24.8958 34.4557C25.6146 34.2214 26.6875 33.8984 28.0833 33.487C29.4792 33.0755 31.1979 32.5755 33.2188 31.9974C35.2552 31.4245 37.5938 30.763 40.1979 30.0286H40.2604L40.5 30.0234L40.7031 30.013C40.8385 30.0078 40.9792 30.0026 41.1146 29.9922C41.3906 29.9766 41.6667 29.9609 41.9479 29.9401C42.5208 29.9036 43.0938 29.9193 43.6667 29.9922C44.8281 29.9922 46.0417 29.8464 47.2917 29.9557C48.5833 29.8151 49.875 29.7995 51.1667 29.9245C52.4948 29.9089 53.8698 29.9922 55.276 29.888C56.6875 29.7474 58.1354 29.9609 59.6146 29.862C61.1354 29.9974 62.6562 29.9922 64.1719 29.8307C65.724 29.9818 67.3125 29.7995 68.9323 29.8047C70.5885 29.9609 72.2396 29.9505 73.8906 29.7839C74.4063 29.7682 74.9688 29.7578 75.5156 29.7578C75.5156 30.0703 75.5156 30.3776 75.5156 30.6901C75.5156 30.9661 75.5156 31.2422 75.5156 31.5182C75.5104 31.8672 75.5052 32.2161 75.5 32.5703C75.4896 33.2734 75.4844 33.987 75.5104 34.7005C75.4635 36.4453 75.5677 38.2161 75.526 40.0182C75.651 41.8411 75.6562 43.6693 75.5469 45.4922C75.6198 47.3464 75.5573 49.2214 75.5573 51.1224C75.651 53.0234 75.5469 54.9453 75.5729 56.8932C75.474 58.862 75.474 60.8307 75.5833 62.7943C75.6146 64.7839 75.5417 66.7891 75.5885 68.8151C75.5573 70.8411 75.5208 72.888 75.5938 74.9505L75.5521 75.3203L75.5365 75.5026C75.5313 75.5234 75.5312 75.5964 75.526 75.6484L75.5208 75.8151C75.5 76.2578 75.4844 76.6849 75.474 77.112L74.4375 77.0964L73.6198 77.0911C73.224 77.0911 72.8281 77.1016 72.4323 77.1172C71.6406 77.1432 70.849 77.1901 70.0521 77.2266C67.9635 77.2995 65.8854 77.263 63.8229 77.2266C61.7656 77.2474 59.7188 77.237 57.6927 77.2214C55.6667 77.2943 53.6615 77.112 51.6719 77.2109C49.6823 77.3203 47.7135 77.1016 45.7708 77.2057C43.8438 77.2995 41.9219 77.2943 40 77.1901C38.125 77.0807 36.2448 77.0755 34.3698 77.1745C32.5417 77.3724 30.7188 77.3672 28.8906 77.1589C27.0938 77.2474 25.3177 76.9922 23.5781 77.1432C21.8646 77.013 20.151 77.0026 18.4375 77.1172C17.9635 77.1068 17.4948 77.0911 17.026 77.0755L16.6719 77.0651L16.1823 77.0547C15.7917 77.0495 15.401 77.0495 15.0156 77.0443C15.0156 76.7422 15.0156 76.4401 15.0156 76.138C15.0156 75.8516 15.0104 75.4818 15.0104 75.3568C15 74.9974 14.9844 74.6432 14.9635 74.2891C14.8385 72.6693 15.026 71.0807 14.9896 69.5286C14.8438 67.9714 15.1771 66.4557 15.0156 64.9714C15.0469 63.487 14.9948 62.0391 15.0417 60.6328C14.8698 59.2578 14.8802 57.888 15.0781 56.5182C14.9792 55.2266 14.9948 53.9349 15.1094 52.6432C14.9531 51.4349 14.9688 50.2266 15.1458 49.0182C15.2188 47.8516 15.0365 46.7318 15.1823 45.6536C15.1302 44.6224 15.1458 43.5859 15.2188 42.5547C15.3385 41.5703 15.224 40.6328 15.2552 39.737C15.2396 39.2943 15.2292 38.862 15.2396 38.4401C15.2396 38.2266 15.2448 38.0234 15.2552 37.8151C15.2656 37.6849 15.2708 37.5495 15.276 37.4141C15.2813 37.2786 15.2917 37.1484 15.2969 37.013L15.3021 36.8255C15.7448 36.7161 16.1771 36.6068 16.5885 36.5026C16.9271 36.4193 17.25 36.3359 17.5677 36.263C19.5729 35.7682 21.1302 35.3932 22.1875 35.1589C22.7188 34.9974 23.2604 34.9036 23.8177 34.8672Z" fill="#6B725C"/>
</g>
<path d="M37.8854 48.2053C37.8438 48.2261 37.7135 48.075 37.5 47.7678C37.2813 47.4657 36.9844 47.0073 36.5417 46.4761C36.3854 46.2886 36.2188 46.1115 36.0469 45.9396C35.9427 45.8563 35.849 45.7678 35.7396 45.6844C35.6302 45.6063 35.5313 45.5073 35.4167 45.424C35.3229 45.2938 35.1979 45.2209 35.0365 45.2157C34.9635 45.2 34.8906 45.1792 34.8177 45.148C34.7448 45.1167 34.6823 45.0698 34.6406 44.9969C34.5781 44.95 34.5104 44.9136 34.4323 44.8875C34.3594 44.8563 34.2865 44.8303 34.2083 44.8094C34.125 44.7938 34.0417 44.7782 33.9583 44.7678C33.875 44.7521 33.7917 44.7417 33.7083 44.7417C33.6198 44.7365 33.5365 44.7209 33.4531 44.7C33.3646 44.6844 33.276 44.6688 33.1875 44.6532C33.0052 44.6167 32.8177 44.6219 32.6354 44.6688C32.4531 44.7678 32.2656 44.773 32.0729 44.6844C31.974 44.6636 31.8802 44.6584 31.7812 44.6688C31.6667 44.6792 31.5781 44.7261 31.5104 44.8146C31.3281 44.9032 31.1406 44.95 30.9583 45.0282C30.8646 45.0594 30.7656 45.0959 30.6719 45.1323C30.5781 45.1688 30.4844 45.2105 30.3906 45.2521C30.3385 45.2521 30.2813 45.2625 30.224 45.273C30.1771 45.2886 30.125 45.3094 30.0781 45.3355C29.9844 45.3823 29.8958 45.4448 29.8125 45.5125C29.6562 45.6688 29.5104 45.8303 29.3646 45.9969C29.25 46.023 29.1458 46.0698 29.0469 46.1428C28.9583 46.2105 28.875 46.2938 28.8073 46.3823C28.7396 46.4761 28.6823 46.5803 28.6406 46.6896C28.6198 46.7417 28.599 46.799 28.5781 46.8511C28.5625 46.9136 28.5469 46.9709 28.5365 47.0282C28.2917 47.1375 28.1146 47.3146 28.0156 47.5594C27.9115 47.8094 27.9115 48.0594 28.0104 48.3094C27.9844 48.424 27.9375 48.5334 27.9167 48.6532C27.8906 48.7678 27.8646 48.8875 27.8385 49.0073C27.8177 49.1271 27.8073 49.2469 27.8125 49.3719C27.8125 49.4344 27.8177 49.4969 27.8229 49.5594C27.8385 49.6219 27.8542 49.6844 27.8698 49.7469C27.9062 50.2625 28.0208 50.773 28.0937 51.3094C28.4115 51.7834 28.5833 52.3094 28.6094 52.8823C28.9844 53.3459 29.2396 53.8667 29.375 54.4448C29.5521 55.0334 30.1406 55.3823 30.3333 55.9865C30.6719 56.5073 31.0885 56.9761 31.4531 57.5021C31.7396 58.1115 32.151 58.6115 32.6927 59.0021C33.1979 59.45 33.6406 59.9448 34.0312 60.4917C34.6302 60.8667 35.099 61.3615 35.4427 61.9813C35.8958 62.5125 36.3854 63.0125 36.9115 63.4761C37.1563 63.7313 37.4115 63.9813 37.6771 64.2105L37.776 64.299L37.8021 64.325C37.8125 64.3303 37.8073 64.325 37.8125 64.3303H37.8177C37.8229 64.3355 37.8333 64.3407 37.8385 64.3511C37.8542 64.3771 37.8698 64.4084 37.875 64.4396C37.901 64.45 37.9271 64.45 37.9531 64.4344C37.9948 64.4136 37.974 64.45 38.1458 64.2834C38.4115 64.0386 38.6406 63.7678 38.8438 63.4709C39.2292 62.8667 39.875 62.5178 40.3125 61.9761C40.9531 61.6323 41.2083 60.9344 41.724 60.4917C42.2135 60.0334 42.6615 59.5386 43.0625 59.0021C43.4323 58.4657 43.8438 57.9709 44.3021 57.5021C44.4167 56.7938 45.1302 56.5438 45.4167 55.9865C45.8073 55.5178 46.1302 55.0021 46.3802 54.4448C46.6042 53.898 47.0677 53.4657 47.1458 52.8823C47.3802 52.3615 47.4115 51.799 47.6615 51.3042C47.651 51.1688 47.6562 51.0334 47.6927 50.9032C47.7188 50.773 47.75 50.648 47.7917 50.523C47.8854 50.2678 47.9167 50.0125 47.8854 49.7469L47.8906 49.5542C47.8854 49.4969 47.8802 49.4344 47.8802 49.3719C47.8698 49.2521 47.8698 49.1323 47.8542 49.0125C47.8385 48.8928 47.8229 48.773 47.8073 48.6584C47.7969 48.5386 47.7604 48.424 47.7448 48.3042C47.7604 48.2417 47.7708 48.1792 47.776 48.1115C47.776 48.049 47.7656 47.9917 47.75 47.9292C47.7292 47.8146 47.6875 47.7 47.625 47.6011C47.5625 47.4969 47.4948 47.4032 47.4271 47.3042C47.3594 47.2105 47.276 47.1271 47.2135 47.0282C47.1927 46.9813 47.1615 46.9292 47.1302 46.8823C47.0938 46.8407 47.0573 46.799 47.0208 46.7521C46.9427 46.674 46.8698 46.5855 46.7917 46.5125C46.7083 46.4396 46.6354 46.3615 46.5677 46.273C46.4948 46.1896 46.4375 46.0959 46.3854 45.9969C46.2396 45.8355 46.0781 45.6896 45.9219 45.5438C45.8333 45.4761 45.7448 45.4188 45.6562 45.3667C45.6094 45.3407 45.5625 45.3146 45.5156 45.2938C45.4635 45.2782 45.4115 45.2625 45.3594 45.2521C45.2604 45.2157 45.1719 45.1584 45.099 45.0855C45.0156 45.0178 44.9323 44.95 44.8438 44.8875C44.6615 44.7209 44.4583 44.6948 44.2396 44.8146C44.1458 44.8094 44.0521 44.7886 43.9583 44.7573C43.8646 44.7261 43.776 44.674 43.6823 44.6428C43.4896 44.5594 43.3021 44.5698 43.1146 44.6688C42.9479 44.7678 42.7656 44.799 42.5729 44.7678C42.4844 44.7625 42.3906 44.7417 42.3073 44.7365C42.2188 44.7261 42.1302 44.7313 42.0417 44.7417C41.9583 44.7521 41.8802 44.7678 41.7969 44.7886C41.7135 44.8042 41.6354 44.825 41.5573 44.8459C41.4792 44.8667 41.4063 44.8928 41.3281 44.9188C41.2552 44.9396 41.1823 44.9657 41.1094 45.0021C41.0312 45.0334 40.9531 45.0698 40.875 45.1011L40.651 45.2209C40.5781 45.2573 40.5104 45.299 40.4427 45.3511C40.375 45.3928 40.3073 45.4396 40.2448 45.4813C40.0052 45.6636 39.7812 45.8615 39.5677 46.075C39.2344 46.4292 38.9219 46.8094 38.6458 47.2105C38.1771 47.8719 37.9323 48.2417 37.8646 48.2053C37.8021 48.174 37.9479 47.6428 38.4219 46.7313C38.724 46.1636 39.099 45.648 39.5469 45.1792C39.8438 44.8823 40.1719 44.6271 40.5365 44.4084C40.9583 44.174 41.401 44.0021 41.875 43.8928C41.974 43.8719 42.0729 43.8407 42.1667 43.8042C42.2656 43.773 42.3646 43.7469 42.4688 43.7209C42.6823 43.6584 42.8958 43.6636 43.1042 43.7313C43.3177 43.7261 43.5417 43.7157 43.7708 43.7C43.8906 43.7053 44.0052 43.7157 44.1198 43.7313C44.2344 43.7469 44.349 43.7834 44.4583 43.8355C44.7135 43.773 44.9531 43.8042 45.1875 43.9292C45.2969 43.9813 45.4115 44.0386 45.5156 44.1011C45.625 44.174 45.7292 44.2365 45.8438 44.2938C45.901 44.325 45.9583 44.3511 46.0156 44.3823L46.1771 44.4813C46.2812 44.5542 46.3906 44.6219 46.4948 44.7C46.6979 44.8615 46.9219 45.0021 47.1458 45.1532C47.2708 45.2157 47.3802 45.2938 47.474 45.398C47.5677 45.4969 47.6562 45.6011 47.7396 45.7157C47.8229 45.825 47.8854 45.95 47.9688 46.0594C48.0104 46.1219 48.0521 46.174 48.099 46.2313C48.1354 46.2886 48.1823 46.3407 48.2292 46.398C48.4167 46.95 48.6563 47.4761 48.9531 47.9813C48.9583 48.1323 48.974 48.2782 49 48.4292C49.0208 48.575 49.0469 48.7261 49.0833 48.8719C49.1198 49.023 49.1354 49.174 49.1562 49.325C49.1667 49.4032 49.1771 49.4813 49.1875 49.5594C49.1875 49.6323 49.1875 49.7105 49.1823 49.7834C49.0729 50.0698 49.0156 50.3667 49.0052 50.674C48.9948 50.825 48.9948 50.9813 48.9948 51.1375C48.9896 51.2886 48.9844 51.4448 48.9792 51.6011C48.8594 52.2157 48.6771 52.8146 48.4375 53.398C48.2031 53.9917 47.9375 54.5698 47.6354 55.1323C47.4323 55.7678 47.099 56.325 46.6354 56.8042C46.2969 57.3771 45.9167 57.9136 45.4844 58.4188C45.099 58.9709 44.6771 59.4969 44.2135 59.9917C43.8021 60.5386 43.1354 60.8511 42.8542 61.5334C42.4115 62.0594 41.8802 62.5178 41.4271 63.0542C40.901 63.5282 40.4062 64.0334 39.9479 64.5698C39.625 64.7365 39.3438 64.9605 39.1042 65.2365C38.9219 65.4448 38.7448 65.6532 38.5625 65.8615C38.3333 66.1219 38.1042 66.3875 37.875 66.6532C37.6354 66.4448 37.3906 66.2105 37.1458 65.9761L36.776 65.6115L36.526 65.3615C36.276 65.1011 36.0365 64.8355 35.8021 64.575C35.2865 64.0855 34.7969 63.5698 34.3229 63.0542C33.7812 62.6011 33.4375 61.9709 32.8958 61.5334C32.349 61.0959 32.0573 60.4344 31.5417 59.9917C31.026 59.5386 30.6042 59.0125 30.2708 58.4188C29.8594 57.8875 29.6615 57.2261 29.1198 56.8042C28.7135 56.2938 28.125 55.8719 28.1146 55.1323C27.7292 54.6011 27.6823 53.924 27.3125 53.398C27.3125 53.2365 27.2917 53.075 27.25 52.9188C27.2083 52.7678 27.1563 52.6219 27.099 52.4761C26.9635 52.1948 26.8542 51.9032 26.776 51.6011C26.6823 50.9865 26.6979 50.3771 26.5677 49.7834C26.5521 49.7105 26.5365 49.6323 26.5312 49.5594C26.526 49.4813 26.526 49.4032 26.5312 49.325C26.5365 49.1688 26.5521 49.0178 26.5833 48.8615C26.6198 48.7157 26.6562 48.5646 26.6927 48.4188C26.724 48.2678 26.776 48.1271 26.8021 47.9813C26.8021 47.9032 26.8073 47.825 26.8229 47.7521C26.8437 47.6792 26.8698 47.6115 26.901 47.5438C26.9583 47.4032 27.0312 47.273 27.1094 47.1532C27.1979 47.0334 27.2708 46.9084 27.3437 46.7834C27.4219 46.6636 27.4792 46.5334 27.5208 46.3928L27.6406 46.2209L27.7708 46.049C27.8542 45.9396 27.9323 45.825 28.0208 45.7157C28.1094 45.6167 28.2031 45.5125 28.2969 45.4136C28.3906 45.3146 28.4948 45.2313 28.6042 45.148C28.6927 44.8615 28.875 44.6636 29.1562 44.5542C29.2812 44.5021 29.4167 44.4605 29.5417 44.424C29.6042 44.4032 29.6667 44.3823 29.724 44.3563C29.7865 44.3407 29.849 44.3198 29.9062 44.2938C30.026 44.2521 30.1354 44.1948 30.2396 44.1219C30.349 44.0646 30.4583 44.0021 30.5729 43.9448C30.7969 43.8094 31.0365 43.773 31.2917 43.8355C31.3906 43.7469 31.4948 43.6896 31.6198 43.6584C31.7344 43.6271 31.849 43.6115 31.9688 43.6167C32.2031 43.6375 32.4323 43.6896 32.6458 43.7313C32.8542 43.7573 33.0677 43.7678 33.276 43.7573C33.3802 43.7573 33.4844 43.7625 33.5885 43.7782C33.6875 43.8042 33.7865 43.8407 33.875 43.8928C33.9792 43.8615 34.0833 43.8667 34.1823 43.898C34.2813 43.924 34.375 43.9657 34.4583 44.0125C34.5469 44.0646 34.6302 44.1219 34.7135 44.1688C34.7969 44.2105 34.8802 44.2521 34.9688 44.2782C35.0365 44.3459 35.1094 44.398 35.1927 44.4448C35.2708 44.4917 35.3438 44.5386 35.4219 44.5803C35.5781 44.6532 35.7188 44.7417 35.849 44.8563C35.9896 44.9396 36.1198 45.0334 36.2344 45.148C36.3385 45.2573 36.4271 45.3771 36.5052 45.5073C36.6771 45.7105 36.8385 45.9292 36.9792 46.1532C37.2865 46.6219 37.5417 47.1167 37.75 47.6323C37.8802 47.9865 37.9271 48.1844 37.8854 48.2053Z" fill="#6B725C"/>
<path d="M57.0312 52.7679C56.9844 52.7523 57 52.5544 57.0677 52.1846C57.125 51.8148 57.2396 51.2783 57.3021 50.5856C57.3229 50.3408 57.3333 50.096 57.3333 49.846C57.3125 49.5856 57.2813 49.32 57.25 49.0335C57.2656 48.9606 57.2604 48.8877 57.2344 48.8148C57.2031 48.7471 57.1667 48.6794 57.1198 48.6169C57.0156 48.4919 56.974 48.346 56.9948 48.1794C56.9792 48.1012 56.9583 48.0283 56.9219 47.9554C56.8906 47.8773 56.8542 47.8044 56.8125 47.7367C56.724 47.596 56.6198 47.4606 56.5052 47.3356C56.4479 47.2679 56.3958 47.2002 56.349 47.1273C56.2969 47.0544 56.2448 46.9814 56.1927 46.9085C56.0885 46.7471 55.9531 46.6169 55.7865 46.5231C55.5677 46.4814 55.4792 46.3148 55.375 46.1377C55.3177 46.0544 55.2552 45.9814 55.1771 45.9189C55.0885 45.846 54.9896 45.82 54.875 45.8356C54.7813 45.7992 54.6927 45.7627 54.6042 45.7158C54.5156 45.6689 54.4219 45.6377 54.3281 45.596C54.2396 45.5596 54.151 45.5023 54.0521 45.471C53.9583 45.4346 53.8646 45.3981 53.7656 45.3564C53.6823 45.2835 53.5885 45.2314 53.4844 45.2002C53.3802 45.1637 53.276 45.1429 53.1667 45.1429C53.0573 45.1377 52.9427 45.1429 52.8333 45.1481C52.724 45.1481 52.6146 45.1742 52.5052 45.1742C52.401 45.1064 52.2917 45.07 52.1719 45.0544C52.0573 45.0387 51.9427 45.0387 51.8281 45.0596C51.5938 45.1064 51.3802 45.2002 51.1771 45.3356C50.9323 45.2367 50.6875 45.2419 50.4375 45.346C50.1979 45.4658 50.0208 45.6481 49.901 45.8877C49.8021 45.9502 49.6927 46.0023 49.599 46.0752C49.4948 46.1377 49.3854 46.2002 49.2917 46.2731C49.1927 46.3512 49.1042 46.4294 49.0156 46.5179C48.9271 46.6169 48.8542 46.721 48.7969 46.8356L48.7344 46.9085L48.7135 46.9398L48.6615 47.0335C48.6615 47.0439 48.651 47.0492 48.6562 47.0544L48.6719 47.0804C48.6979 47.1117 48.7187 47.1481 48.7292 47.1898C48.7917 47.3408 48.8438 47.4971 48.8854 47.6533C49.3073 48.2575 49.4167 48.9137 49.2083 49.6169C49.3854 50.2992 49.3125 50.9554 48.9948 51.5856C48.9323 51.7419 48.8854 51.9033 48.849 52.0648C48.8177 52.2314 48.7969 52.3981 48.7604 52.5648C48.7188 52.9085 48.599 53.221 48.4062 53.5127C48.1615 54.1481 47.8646 54.7575 47.526 55.346C47.0625 55.8721 46.6979 56.4554 46.4323 57.1012C46.2604 57.4033 46.0833 57.7002 45.8854 57.9867C45.8333 58.0596 45.776 58.1325 45.7292 58.195C45.724 58.2002 45.7187 58.2054 45.7135 58.2106C45.7031 58.2158 45.6979 58.2314 45.6875 58.2419C45.6875 58.2523 45.6823 58.2419 45.6823 58.2627L45.6719 58.3252L45.6458 58.4554C45.8125 59.1481 45.7917 59.8356 45.5885 60.5179C45.5833 60.8669 45.5625 61.2158 45.526 61.5596C45.4948 61.9189 45.5052 62.2731 45.5573 62.6221C45.5469 62.9814 45.5573 63.3408 45.5781 63.695L45.5938 64.1012V64.1273C45.5833 64.1585 45.5729 64.1846 45.5521 64.2106C45.5417 64.2314 45.5365 64.2523 45.5312 64.2731C45.5417 64.2835 45.5521 64.2887 45.5625 64.2939C45.599 64.3148 45.6302 64.32 45.6667 64.3252H45.8854C45.9792 64.3252 46.0677 64.32 46.1562 64.3148C46.3385 64.3044 46.5156 64.2783 46.6927 64.2419C47.3958 64.195 48.099 64.195 48.8021 64.2314C49.5 64.4398 50.1875 64.1273 50.8646 64.1794C51.5417 64.2054 52.2135 64.1742 52.8802 64.0804C53.526 63.9658 54.1771 63.9085 54.8333 63.9033C55.4219 63.4867 56.1094 63.82 56.7135 63.6325C57.3229 63.5752 57.9219 63.445 58.4948 63.2314C59.0729 63.1169 59.6302 62.9346 60.1615 62.6742C60.7031 62.4762 61.1354 62.1117 61.6615 61.9398C61.849 61.7419 62.0677 61.5908 62.3177 61.4762C62.4375 61.4189 62.5521 61.3512 62.6615 61.2731C62.776 61.2002 62.8646 61.1117 62.9427 61.0023C63.0312 60.9137 63.1354 60.8252 63.2135 60.7367C63.2969 60.6429 63.3802 60.5544 63.4583 60.4658C63.5365 60.3721 63.6042 60.2731 63.6771 60.1794C63.7552 60.0856 63.8229 59.9919 63.8906 59.8929C64.1094 59.7575 64.2552 59.5596 64.3177 59.3096C64.375 59.07 64.4062 58.8408 64.4427 58.6117C64.5 58.3929 64.526 58.1689 64.5208 57.945C64.5156 57.8356 64.5208 57.7262 64.5312 57.6169C64.5469 57.5023 64.5729 57.3929 64.6042 57.2887C64.6667 56.8512 64.6042 56.4294 64.4219 56.0283C64.3802 55.9294 64.3542 55.8252 64.3542 55.721C64.349 55.6117 64.3333 55.5075 64.3177 55.3981C64.3073 55.2939 64.276 55.195 64.2188 55.1064C64.1458 55.0127 64.0573 54.9502 63.9427 54.9137C63.8854 54.8408 63.8333 54.7575 63.7917 54.6689C63.75 54.5752 63.7135 54.4814 63.6771 54.3877C63.599 54.195 63.4583 54.0648 63.2604 54.0023C63.0677 53.9502 62.9167 53.8408 62.8021 53.6846C62.7448 53.6117 62.6927 53.5387 62.6354 53.4658C62.5781 53.3981 62.5156 53.3356 62.4479 53.2835C62.3125 53.1846 62.1719 53.0908 62.0312 53.0075C61.9583 52.9658 61.8854 52.9346 61.8177 52.8929C61.7448 52.8564 61.6771 52.8252 61.6042 52.7939C61.2969 52.6637 60.974 52.57 60.6458 52.5127C60.349 52.471 60.0469 52.4502 59.7448 52.4554C59.25 52.4658 58.7604 52.5127 58.276 52.6012C57.474 52.7367 57.0417 52.8252 57.0156 52.7523C56.9948 52.6846 57.474 52.4137 58.4583 52.1064C58.5833 52.07 58.7188 52.0335 58.8594 51.9971C58.9948 51.9606 59.151 51.9346 59.3073 51.9033C59.4635 51.8721 59.6354 51.8564 59.8073 51.8304C59.9844 51.82 60.1719 51.8044 60.3646 51.8096C61.2969 51.8044 62.151 52.0596 62.9323 52.57C63.0156 52.6221 63.1094 52.6689 63.2031 52.7158C63.2917 52.7679 63.3854 52.8148 63.4792 52.8721C63.6719 52.9814 63.8177 53.1377 63.9167 53.3356C64.0677 53.4919 64.2448 53.6377 64.4115 53.7992C64.4896 53.8825 64.5677 53.971 64.6354 54.0648C64.7135 54.3096 64.8594 54.5023 65.0781 54.6377C65.151 54.7419 65.2031 54.8512 65.2448 54.971C65.2865 55.0908 65.3229 55.2106 65.349 55.3356C65.375 55.4606 65.4062 55.5804 65.4427 55.7054C65.5729 56.2106 65.6719 56.7262 65.7396 57.2419C65.7865 57.3773 65.8073 57.5127 65.7969 57.6533C65.7917 57.7887 65.776 57.9294 65.7552 58.0648C65.6875 58.3408 65.6354 58.6169 65.6042 58.8981C65.4688 59.1533 65.349 59.4137 65.2552 59.6898C65.1406 59.9502 65.0677 60.2419 64.9635 60.5283C64.8594 60.6429 64.7656 60.7627 64.6719 60.8773C64.5781 60.9971 64.5 61.1273 64.4115 61.2523C64.3229 61.3773 64.2292 61.4971 64.1354 61.6221C64.0417 61.7471 63.9375 61.8564 63.8281 61.9554C63.276 62.2523 62.7917 62.6273 62.3698 63.0908C61.8438 63.4346 61.2865 63.7262 60.6979 63.9606C60.1094 64.2106 59.5052 64.4294 58.8906 64.6064C58.2917 64.9085 57.6562 65.0648 56.9844 65.07C56.3385 65.2367 55.6823 65.3408 55.0156 65.3877C54.3438 65.5075 53.6719 65.5752 52.9896 65.596C52.3125 65.695 51.6094 65.4398 50.9271 65.721C50.2344 65.7783 49.5313 65.721 48.8281 65.7835C48.1198 65.7419 47.4062 65.7523 46.6979 65.8044C46.526 65.7471 46.3438 65.7054 46.1615 65.6898C46.0729 65.6794 45.9792 65.6742 45.8906 65.6742H45.7552L45.5729 65.6794C45.2604 65.6898 44.9427 65.7106 44.599 65.7314C44.4271 65.7471 44.25 65.7575 44.0781 65.7731H44.0417C44.0365 65.7731 44.0156 65.7835 44.0208 65.7679L44.0156 65.7106L44.0052 65.5908L43.9896 65.3512C43.9688 65.0283 43.9635 64.6846 43.9583 64.3408L43.9531 63.9554V63.6898C43.9635 63.3252 43.9792 62.971 44 62.6117C43.9896 62.2523 43.9896 61.8981 43.9896 61.5439C44 61.1898 44.0208 60.8304 44.0365 60.4814C43.9896 59.7679 44.1927 59.0752 44.1094 58.3773C44.1042 58.3356 44.1042 58.2939 44.099 58.2471L44.0938 58.1846V58.0752L44.099 57.8356L44.1042 57.7158C44.1042 57.6794 44.099 57.6377 44.1302 57.6064C44.2344 57.4762 44.3333 57.3512 44.4375 57.2262L44.6042 57.0335C44.8385 56.7939 45.0312 56.5283 45.1875 56.2367C45.4792 55.6585 45.8229 55.1169 46.224 54.6117C46.5313 54.07 47.0156 53.6064 47.0521 52.9554C47.125 52.6637 47.1823 52.3721 47.224 52.07C47.25 51.9294 47.2917 51.7939 47.3438 51.6585C47.4115 51.5179 47.4948 51.3929 47.599 51.2783C47.6354 50.9919 47.6927 50.7158 47.776 50.4398C47.8125 50.3044 47.8333 50.1637 47.8542 50.0231C47.8594 49.8825 47.849 49.7419 47.8177 49.6064C47.8802 49.4814 47.9115 49.346 47.9167 49.2054C47.9167 49.07 47.901 48.9398 47.8646 48.8096C47.8021 48.5544 47.6771 48.32 47.6042 48.0804C47.5729 47.9554 47.5469 47.8304 47.5052 47.7106C47.4635 47.6012 47.4167 47.4919 47.3698 47.3825C47.3281 47.2731 47.276 47.1637 47.2292 47.0596L47.1562 46.8981L47.1458 46.8773C47.1406 46.8721 47.1406 46.8669 47.151 46.8564L47.1771 46.8252L47.2344 46.7575C47.3125 46.6637 47.3854 46.57 47.4583 46.4762C47.5313 46.3825 47.599 46.2887 47.6667 46.195L47.7708 46.0596C47.7969 46.0179 47.8125 45.9919 47.8385 45.9554C47.9167 45.8252 48.0104 45.7054 48.125 45.6012C48.2396 45.4919 48.3646 45.3981 48.4896 45.3044C48.75 45.1377 49.0104 44.9762 49.2656 44.8148C49.4948 44.6117 49.7656 44.4867 50.0677 44.4294C50.3542 44.3877 50.6354 44.2992 50.8958 44.1742C51.1771 44.1117 51.4583 44.0752 51.7292 44.0335C51.8698 44.0231 52.0052 44.0179 52.1458 44.0127C52.2812 44.0075 52.4167 44.0127 52.5521 44.0387C52.6823 43.9606 52.8229 43.9189 52.9688 43.9189C53.1042 43.9242 53.2396 43.9502 53.3698 43.9971C53.4948 44.0439 53.6198 44.1012 53.7344 44.1689C53.8542 44.2314 53.974 44.2835 54.0938 44.3356C54.2083 44.3877 54.3281 44.4242 54.4531 44.4502C54.5781 44.4762 54.6979 44.5179 54.8177 44.5544C54.9375 44.5856 55.0521 44.6377 55.1562 44.7054C55.2604 44.7783 55.349 44.8721 55.4115 44.9867C55.5417 44.9867 55.6615 45.0231 55.7708 45.0908C55.875 45.1481 55.9688 45.221 56.0521 45.3044C56.2031 45.4867 56.3281 45.6898 56.4583 45.8669C56.5885 46.0335 56.7292 46.1898 56.8906 46.3304C56.9635 46.4085 57.0312 46.4867 57.0938 46.5648C57.151 46.6533 57.1979 46.7523 57.224 46.8512C57.401 46.9762 57.5104 47.1377 57.5521 47.3512C57.5833 47.445 57.599 47.5439 57.625 47.6377C57.651 47.7314 57.6875 47.82 57.7292 47.9033C57.7448 48.0856 57.7865 48.2627 57.8438 48.4346C57.8698 48.5179 57.901 48.6012 57.9219 48.6846C57.9375 48.7679 57.9479 48.8512 57.9531 48.9346C58.0417 49.2471 58.0417 49.5596 57.9583 49.8669C57.9375 50.1377 57.901 50.4033 57.8438 50.6637C57.7292 51.2158 57.5625 51.7471 57.3385 52.2679C57.1823 52.6117 57.0729 52.7835 57.0312 52.7679Z" fill="#6B725C"/>
<mask id="mask1_116_4" style="mask-type:luminance" maskUnits="userSpaceOnUse" x="0" y="9" width="72" height="33">
<path d="M0 9.28369H71.1979V41.2837H0V9.28369Z" fill="white"/>
</mask>
<g mask="url(#mask1_116_4)">
<path d="M-0.057312 29.5181C0.161437 29.9035 0.317689 30.3097 0.416646 30.742C0.682272 31.5597 1.05727 32.7733 1.52081 34.3462C1.67185 34.867 1.83852 35.4347 2.0156 36.0337C2.2031 36.6327 2.40102 37.2733 2.5729 37.9556C2.62498 38.3202 2.73435 38.6691 2.89581 38.9972C2.93227 39.0806 2.96873 39.1691 2.99998 39.2577L3.04685 39.3931L3.09373 39.5181C3.12498 39.6274 3.1354 39.742 3.11977 39.8566C3.13019 39.9191 3.1406 39.9816 3.15102 40.0441C3.24477 40.0233 3.34894 40.0024 3.4531 39.9712C3.49998 39.9556 3.55206 39.9399 3.60415 39.9243C3.67706 39.9035 3.74998 39.8827 3.81769 39.8618C4.16144 39.7577 4.5104 39.6431 4.86456 39.5285C5.68227 39.2629 6.5729 39.1535 7.43227 38.7993C8.2604 38.3254 9.3229 38.5754 10.1979 38.0233C11.1406 37.7004 12.1354 37.4556 13.1562 37.1952C14.2344 37.0129 15.2812 36.7212 16.2969 36.3202C17.4531 36.2004 18.5573 35.8931 19.6094 35.4035C20.8489 35.3774 22.0104 35.0545 23.0885 34.4399C24.3177 34.1691 25.5312 33.8358 26.7291 33.4347C27.9635 33.0858 29.2135 32.6899 30.5104 32.3983C31.7708 31.8514 33.0833 31.492 34.4427 31.3202C35.75 30.7889 37.1041 30.4191 38.5052 30.2108C39.9166 29.966 41.2291 29.2785 42.6927 29.0702C44.1146 28.7056 45.5312 28.2577 46.9948 27.9035C48.5052 27.6483 49.9791 27.2472 51.4114 26.7056C52.8906 26.216 54.3958 25.8097 55.9219 25.4868C57.4114 24.8931 58.9479 24.4816 60.5312 24.242C62.0729 23.7889 63.6771 23.5337 65.2239 22.9816C66.0156 22.7889 66.8021 22.5493 67.5885 22.3202C67.9844 22.2056 68.3802 22.091 68.7812 21.9816L69.0781 21.9087L69.1146 21.8983H69.1458C69.1719 21.8983 69.2031 21.8983 69.2448 21.8983C69.25 21.8722 69.25 21.841 69.25 21.8149V21.7681L69.2396 21.7316L69.1719 21.4295C69.0833 21.0285 68.9844 20.6274 68.8802 20.2264C68.6771 19.4295 68.4479 18.6431 68.1719 17.8722C67.6041 16.3358 67.3906 14.716 66.9219 13.1795C66.901 13.0493 66.8854 12.9191 66.8594 12.7889L66.8281 12.5962L66.8125 12.5441C66.8125 12.5337 66.8073 12.5233 66.8073 12.5129V12.4868C66.8021 12.4243 66.7916 12.3618 66.7708 12.2993C66.7083 12.3201 66.6458 12.3462 66.5833 12.3774C66.5781 12.3827 66.5677 12.3827 66.5625 12.3879L66.4635 12.4191L66.2708 12.4764L65.8906 12.6014C65.3802 12.7629 64.875 12.9139 64.3541 13.0285C62.8385 13.4556 61.2916 13.716 59.8333 14.2264C58.3541 14.6691 56.8958 15.1066 55.4166 15.4035C54.0104 15.9139 52.5729 16.2941 51.1041 16.5441C49.6458 16.7837 48.2916 17.3201 46.9062 17.6483C45.5469 18.0806 44.1302 18.2316 42.8333 18.7212C41.4896 19.0545 40.2187 19.5389 38.8958 19.7577C37.651 20.2681 36.3021 20.3045 35.0937 20.7524C33.8541 21.0858 32.6406 21.4191 31.4427 21.7056C30.2448 21.867 29.0781 22.1691 27.9479 22.6118C26.8594 22.9764 25.75 23.2629 24.6198 23.4764C23.5521 23.6847 22.5 23.9556 21.4635 24.2889C20.4583 24.6014 19.3594 24.4504 18.4948 25.0545C17.5416 25.2056 16.6146 25.4399 15.7083 25.7629C14.875 26.091 14.0104 26.3097 13.1198 26.4191C12.2916 26.6274 11.5 26.8254 10.7448 27.0181C7.33331 27.8722 4.6406 28.5285 2.80206 28.9556C1.86977 29.2264 0.921855 29.4087 -0.0468953 29.5024C1.04686 29.0233 2.17186 28.6431 3.3281 28.3566C5.54165 27.6899 8.78644 26.7472 12.901 25.5806C13.7291 25.2577 14.5833 25.0129 15.4635 24.8566C16.375 24.5441 17.2969 24.2837 18.2344 24.0806C19.1823 23.6743 20.1666 23.4035 21.1875 23.2524C22.2031 22.966 23.276 22.7629 24.3281 22.3774C25.3698 21.9504 26.5312 21.8618 27.6406 21.4608C28.8385 21.2785 30 20.9608 31.1198 20.4972C32.3541 20.2316 33.5625 19.8983 34.7552 19.492C36.0625 19.3045 37.3229 18.9556 38.5469 18.4556C39.8125 18.0285 41.151 17.7889 42.4739 17.3774C43.8177 17.0649 45.1458 16.6014 46.5364 16.2681C47.901 15.7733 49.2969 15.3931 50.7239 15.1274C52.1198 14.6743 53.5729 14.3462 55.026 13.9608C56.4583 13.4816 57.9583 13.1847 59.4427 12.7629C60.9739 12.4556 62.4791 12.0493 63.9531 11.5389C64.4635 11.3931 64.9791 11.2577 65.4948 11.1222C66.2604 10.9243 67.026 10.7212 67.7969 10.5181C67.9219 10.9868 68.0469 11.4556 68.1771 11.9243L68.3073 12.3983L68.4166 12.7785C68.8021 14.3358 69.1875 15.9087 69.6771 17.4712C69.776 18.2889 69.9479 19.091 70.1875 19.8774C70.3021 20.2733 70.4323 20.6639 70.5625 21.0597L70.6562 21.3514L70.8177 21.8722C70.9323 22.2472 71.0469 22.6274 71.1614 23.0024C70.5052 23.1899 69.8541 23.3774 69.2031 23.5649C68.8073 23.6795 68.4114 23.7837 68.0104 23.8879C67.2187 24.0962 66.4219 24.2941 65.625 24.4868C64.0573 24.9347 62.4896 25.341 60.9323 25.742C59.401 26.2264 57.8177 26.466 56.3229 26.9712C54.8281 27.4816 53.2656 27.6743 51.8021 28.1743C50.3541 28.6587 48.8802 29.0493 47.3854 29.3462C45.9166 29.6222 44.4844 30.0024 43.0729 30.4868C41.7239 31.0493 40.3229 31.4191 38.875 31.5962C37.5208 32.0493 36.0989 32.1691 34.8021 32.6691C33.4583 32.8931 32.1458 33.2368 30.8646 33.7004C29.5781 33.9556 28.3125 34.2837 27.0625 34.6952C25.8541 35.1483 24.5937 35.2889 23.4114 35.6483C22.2604 36.1066 21.0104 36.0962 19.9219 36.5545C18.776 36.8306 17.6823 37.1795 16.5885 37.4191C15.5833 37.8722 14.5364 38.1431 13.4375 38.2316C12.4687 38.591 11.4791 38.8462 10.4635 38.9972C9.5729 39.3931 8.64581 39.6327 7.67706 39.7056C6.7656 39.8722 5.9531 40.2837 5.08852 40.3618C4.75519 40.5233 4.40623 40.6327 4.04165 40.6847L3.90623 40.7108L3.72394 40.7472C3.59373 40.7681 3.46352 40.7941 3.33852 40.8202C3.08852 40.867 2.85415 40.9191 2.61456 40.9764C2.5781 40.8358 2.53644 40.7004 2.49477 40.5702C2.4479 40.2681 2.3906 40.0024 2.3281 39.742C2.28123 39.5389 2.23436 39.3722 2.18227 39.1899C2.0729 38.8306 1.96352 38.4868 1.8854 38.1431C1.67186 37.5077 1.5156 36.8618 1.40623 36.2004C1.2604 35.5858 1.12498 35.0181 0.994771 34.4868C0.609355 32.8931 0.328104 31.6535 0.145813 30.8149C0.020813 30.3931 -0.046896 29.9608 -0.057312 29.5181Z" fill="#6B725C"/>
</g>
<path d="M20.8698 23.9032C21.2708 24.5959 21.5625 25.3302 21.7396 26.1115C21.8177 26.3563 21.9062 26.6167 21.9948 26.8927C22.1041 27.1844 22.1979 27.4813 22.276 27.7834C22.2343 28.1323 22.6771 28.3719 22.5781 28.7782C22.6458 29.1532 22.7552 29.5177 22.9114 29.8667C22.9948 30.273 23.1146 30.674 23.2708 31.0594C23.6198 31.4136 23.2291 31.9761 23.651 32.3407C23.8229 32.7886 23.9583 33.2417 24.0521 33.7157C24.0469 33.7573 24.0416 33.8042 24.0416 33.8511L24.0468 33.8823L24.0416 33.9032C24.0416 33.9136 24.0416 33.924 24.0416 33.9396C24.0416 33.9865 24.0468 34.0282 24.0625 34.075C24.0833 34.148 24.1198 34.2104 24.1718 34.2677C24.2552 34.2209 24.3177 34.1792 24.3802 34.1532C24.4218 34.2052 24.4791 34.2313 24.5468 34.2261H24.5729L24.6146 34.2209C24.651 34.2157 24.6823 34.2052 24.7135 34.2C24.776 34.1844 24.8437 34.1688 24.9062 34.1479C25.1666 34.0542 25.4114 33.9292 25.6458 33.7834C26.276 33.9396 26.8125 33.7886 27.2604 33.3198C27.8437 33.2209 28.4062 33.0646 28.9531 32.8407C29.526 32.6375 30.1146 32.4761 30.7083 32.3459C31.2656 31.9865 31.875 31.8146 32.5364 31.8354C33.1198 31.4917 33.7448 31.3146 34.4219 31.3094C35.0937 31.2573 35.6614 30.773 36.3698 30.7677C37.0312 30.6063 37.6823 30.3615 38.3698 30.2157C39.0937 30.174 39.776 29.9865 40.4219 29.6532C41.0989 29.3771 41.7969 29.1844 42.5208 29.0802C43.1875 28.7104 43.901 28.5125 44.6666 28.4969C45.4062 28.3459 46.1302 28.1532 46.8437 27.9084C47.2187 27.8302 47.5781 27.7052 47.9427 27.5854L48.1927 27.5125C48.1979 27.5073 48.2083 27.5021 48.2187 27.5021C48.25 27.4969 48.2864 27.5021 48.3229 27.5125C48.3385 27.4917 48.3489 27.4657 48.3541 27.4344C48.3541 27.4136 48.3541 27.398 48.3541 27.3771C48.3541 27.3719 48.3541 27.3719 48.3541 27.3667L48.3489 27.3302L48.3281 27.2573L48.2969 27.1167C48.2083 26.7417 48.0885 26.3823 47.9271 26.0334C47.6875 25.3146 47.4948 24.5907 47.3437 23.8459C47.2291 23.1167 47.0364 22.398 46.776 21.7C46.6406 20.9865 46.4583 20.2886 46.2291 19.5959C46.1146 19.2573 46 18.9188 45.9062 18.575L45.8385 18.3198L45.8073 18.1896L45.7969 18.1584C45.7969 18.1427 45.7969 18.1532 45.7969 18.1479V18.1375C45.8021 18.1115 45.8073 18.0802 45.8177 18.0282C45.7864 18.049 45.7604 18.075 45.7344 18.1011C45.6719 18.1896 45.7187 18.1323 45.6614 18.0907C45.3594 18.0959 45.0677 18.1479 44.776 18.2417C44.1146 18.3563 43.4635 18.5282 42.8229 18.7469C42.1823 18.8719 41.5469 19.0386 40.9271 19.2365C40.3281 19.4448 39.7135 19.6011 39.0885 19.7052C38.5312 20.0282 37.8646 19.8875 37.3177 20.1532C36.7396 20.3094 36.1771 20.4709 35.6146 20.5854C35.0364 20.5802 34.4948 20.7157 33.9844 20.9969C33.4844 21.2 32.9687 21.325 32.4323 21.3823C31.9271 21.4396 31.4375 21.5594 30.9583 21.7417C30.4948 21.9084 29.9219 21.6167 29.5729 22.0802C29.1458 22.2625 28.625 22.049 28.2708 22.3927C27.9114 22.7157 27.4479 22.5854 27.0625 22.6792C26.6771 22.7677 26.3021 22.8563 25.9479 22.9396C24.2916 23.4344 22.5989 23.7521 20.875 23.8927C22.7969 23.023 24.7864 22.3407 26.8385 21.8459C27.2187 21.7313 27.5729 21.4396 28.026 21.4865C28.4375 21.3094 28.8698 21.1844 29.3125 21.1063C29.6927 20.7469 30.2031 20.8198 30.6823 20.7052C31.1771 20.6063 31.6666 20.4657 32.1354 20.2834C32.6041 20.0073 33.1719 20.0802 33.6771 19.8407C34.2552 19.8302 34.7916 19.674 35.2916 19.3771C35.875 19.2886 36.4375 19.1271 36.9791 18.8979C37.6094 18.8875 38.1979 18.7261 38.7396 18.4032C39.3177 18.1636 39.9583 18.1115 40.5625 17.8927C41.1979 17.7677 41.8021 17.4969 42.4531 17.3667C43.0677 17.0698 43.7187 16.8875 44.3958 16.825C44.6771 16.7209 44.9583 16.6323 45.25 16.5594C45.7864 16.424 46.3229 16.2834 46.8646 16.1479C46.9062 16.3146 46.9531 16.4813 46.9948 16.6479C47.0989 16.9396 47.1927 17.2521 47.2812 17.575L47.3698 17.9084L47.4323 18.1688C47.5156 18.5125 47.5885 18.8615 47.6927 19.2052C47.9219 19.8875 47.8281 20.6636 48.2656 21.3042C48.4844 22.0073 48.6041 22.7417 48.8437 23.45C48.9896 24.1896 49.1875 24.9188 49.4323 25.6323C49.4166 26.023 49.4739 26.4032 49.6041 26.7729C49.8125 27.3771 50.0208 27.9969 50.2344 28.6167C49.9062 28.7261 49.5573 28.8302 49.2031 28.9292L48.6719 29.0802L48.3646 29.1584C47.9948 29.2573 47.6198 29.3354 47.25 29.4188C46.5208 29.6375 45.7916 29.8198 45.0625 29.9969C44.3646 30.2625 43.5989 30.2782 42.9166 30.5646C42.2396 30.8563 41.4791 30.8354 40.8125 31.1219C40.151 31.398 39.4687 31.575 38.7552 31.6636C38.0573 31.7313 37.3906 31.9084 36.7448 32.1844C36.0989 32.4084 35.5208 32.8563 34.7916 32.6896C34.1771 32.9448 33.4791 32.8719 32.8958 33.1792C32.25 33.2157 31.6406 33.3719 31.0573 33.6479C30.4479 33.7209 29.8594 33.8719 29.2864 34.1011C28.7291 34.2834 28.1614 34.424 27.5833 34.5282C27.0677 34.8198 26.4427 34.6375 25.9531 34.9396C25.6875 34.9917 25.4271 35.0698 25.1719 35.1427L24.9791 35.1948L24.75 35.2521C24.5364 35.3094 24.3229 35.3563 24.1198 35.3979C23.8646 35.5646 23.5937 35.6896 23.3021 35.7729C23.2135 35.45 23.151 35.1167 23.1146 34.7834C23.0781 34.4709 23.0364 34.1115 23.0104 33.9917C22.9323 33.5073 22.5416 33.1167 22.6718 32.6011C22.3073 32.2261 22.4062 31.7365 22.3593 31.299C22.3229 30.8667 22.0364 30.5177 22.0781 30.0959C21.7969 29.7573 21.9739 29.3146 21.8177 28.9813C21.7812 28.6323 21.7031 28.2938 21.5833 27.9657C21.4635 27.674 21.3958 27.3719 21.3854 27.0594C21.3229 26.773 21.2656 26.5021 21.2135 26.2573C20.9791 25.4917 20.8594 24.7052 20.8698 23.9032Z" fill="#6B725C"/>
<path d="M11.0208 10.0751C11.0364 10.0908 11.026 10.1376 10.9948 10.2001C10.9792 10.2366 10.9583 10.273 10.9323 10.3199C10.9062 10.3616 10.8906 10.4241 10.8594 10.4814C10.7083 10.8408 10.6458 11.2105 10.6771 11.596C10.6875 11.7783 10.7135 11.9553 10.7448 12.1324C10.7656 12.2262 10.7969 12.3251 10.8229 12.4241C10.8489 12.523 10.875 12.6272 10.8958 12.7366C10.8646 12.8616 10.9427 12.9605 11.026 13.0543C11.1354 13.148 11.1719 13.2626 11.1302 13.4033C11.151 13.5283 11.1875 13.648 11.2448 13.7626C11.3073 13.8824 11.375 13.997 11.4479 14.1116C11.5989 14.346 11.6042 14.6585 11.8437 14.872C12.0208 14.9449 12.0312 15.1064 12.0521 15.273C12.0729 15.4397 12.0989 15.6012 12.3177 15.6637C12.526 15.9189 12.7083 16.1949 12.8594 16.4918C12.8802 16.6741 12.9531 16.8355 13.0885 16.9658C13.2083 17.096 13.3542 17.2105 13.4687 17.3512C13.5312 17.773 13.7552 18.0699 14.151 18.2314C14.1354 18.4553 14.1927 18.648 14.3385 18.8199C14.4896 18.9866 14.6771 19.0908 14.8958 19.1324C15.1146 19.4866 15.3802 19.7991 15.7031 20.0595C16.0156 20.3512 16.3073 20.6585 16.5729 20.9918C17.0208 21.1741 17.3281 21.4866 17.5 21.9397C17.9427 22.1376 18.2708 22.4553 18.4844 22.8928C18.625 23.0908 18.7969 23.2418 19.0104 23.3564C19.1042 23.4137 19.2448 23.5178 19.2239 23.497C19.2396 23.5074 19.2396 23.5283 19.2448 23.5908C19.2708 23.5908 19.2917 23.5855 19.3125 23.5751L19.3281 23.5647C19.3385 23.5647 19.3333 23.5647 19.375 23.5491L19.5469 23.497C19.7812 23.4189 20.0208 23.3564 20.2656 23.3043C20.7917 23.3199 21.276 23.1845 21.7187 22.9033C22.1927 22.6793 22.6875 22.5439 23.2083 22.4918C23.6667 22.1741 24.1719 22.0387 24.7292 22.0803C25.2552 21.9866 25.7708 21.846 26.276 21.6585C26.7917 21.4866 27.3177 21.346 27.8489 21.2366C28.1198 21.2053 28.3906 21.1585 28.6562 21.1012C28.7917 21.0699 28.9219 21.0335 29.0469 20.9866L29.1458 20.9501L29.1927 20.9293L29.2135 20.9189L29.2187 20.9137C29.2292 20.898 29.2344 20.8824 29.2344 20.8668C29.2292 20.7887 29.2344 20.8043 29.3021 20.8147C29.3437 20.8199 29.3802 20.8251 29.4167 20.8251L29.4375 20.8199L29.4323 20.8095C29.4219 20.7991 29.4062 20.7939 29.3906 20.7835C29.5417 20.7835 29.4427 20.7001 29.3698 20.6793C29.3385 20.6689 29.3073 20.6637 29.276 20.6585C29.1771 20.5751 29.0885 20.4814 29.0156 20.3772C28.8281 20.2001 28.6875 19.9866 28.5156 19.7991C28.3489 19.6064 28.1614 19.4397 27.9427 19.3043C27.5364 19.0074 27.1823 18.6637 26.875 18.2678C26.6094 18.221 26.4062 18.0803 26.2708 17.8512C26.151 17.6324 25.9896 17.4501 25.7969 17.2939C25.5312 16.872 25.0573 16.7001 24.7239 16.3772C24.5312 16.247 24.3594 16.0908 24.2083 15.9137C24.0573 15.7366 23.875 15.6064 23.6614 15.5126C23.2812 15.2783 22.9323 15.0074 22.6094 14.7053C22.3958 14.6324 22.2239 14.5074 22.0781 14.3355C21.9479 14.1637 21.776 14.0387 21.5781 13.9553C21.2344 13.7158 20.8854 13.5022 20.5677 13.2574C20.3698 12.8199 19.9167 12.7991 19.5781 12.622C19.4219 12.523 19.25 12.4449 19.0729 12.3772C18.8906 12.3095 18.7448 12.2001 18.625 12.0491C18.3542 11.8147 18.0469 11.6428 17.7031 11.5335C17.3854 11.4241 17.2604 10.8876 16.8177 11.0855C16.6667 11.0283 16.5312 10.9397 16.4167 10.8251C16.2969 10.6949 16.151 10.6533 15.9792 10.7001C15.625 10.7991 15.4427 10.4762 15.1823 10.3772C14.9271 10.2887 14.6771 10.2001 14.4427 10.1272C13.625 9.84076 12.7812 9.7418 11.9219 9.83034C11.3385 9.91367 11.0781 10.1376 11.0208 10.0699C10.9948 10.0439 11.0469 9.94492 11.1979 9.78867C11.4427 9.58034 11.7239 9.43451 12.0312 9.35117C12.5208 9.22096 13.0104 9.1793 13.5156 9.21576C14.1719 9.26263 14.8125 9.37721 15.4479 9.5543C15.7239 9.63763 16.0781 9.55951 16.3125 9.82513C16.4583 9.87721 16.6198 9.90846 16.7812 9.95013C16.9479 9.98138 17.0937 10.0543 17.2239 10.1637C17.6354 10.0699 17.8646 10.4085 18.1771 10.5699C18.4896 10.7626 18.8229 10.9241 19.1667 11.0491C19.3594 11.0855 19.5312 11.1689 19.6823 11.2991C19.8333 11.4241 20 11.523 20.1875 11.5908C20.4635 11.9189 20.8125 12.122 21.2344 12.2001C21.5052 12.5491 21.9531 12.622 22.3073 12.872C22.5364 13.3043 22.9844 13.4189 23.401 13.6064C23.8125 13.8043 24.1042 14.1689 24.5104 14.4033C24.6823 14.5595 24.8698 14.7001 25.0677 14.8251C25.2656 14.9605 25.4531 15.1012 25.6302 15.2626C26.0833 15.471 26.4583 15.7783 26.7552 16.1793C26.9635 16.3147 27.1562 16.471 27.3333 16.6428C27.5156 16.8147 27.6979 16.9866 27.8802 17.1637C28.276 17.4866 28.651 17.8355 29 18.2105C29.1927 18.3876 29.3646 18.5803 29.5104 18.7991C29.6667 19.023 29.8698 19.1949 30.1198 19.3043C30.2187 19.398 30.3021 19.4866 30.401 19.5908C30.5677 19.773 30.7344 19.9501 30.901 20.1324C31.2292 20.4918 31.5521 20.8408 31.9323 21.2105L32.1667 21.4762L32.2864 21.6064L32.2969 21.622C32.3021 21.6272 32.3177 21.6376 32.3021 21.6376L32.1614 21.6689C31.9167 21.7314 31.6719 21.7939 31.4271 21.8564C30.9479 21.9814 30.4896 22.1116 30.0208 22.273C29.8802 22.2783 29.75 22.2887 29.6302 22.2991L29.5833 22.3043H29.5052C29.4739 22.3095 29.4375 22.3095 29.4062 22.3147C29.2708 22.3303 29.1354 22.3616 29.0104 22.4085C28.75 22.5074 28.5 22.622 28.2552 22.747C27.7396 22.9397 27.2187 23.0803 26.6771 23.1689C26.1667 23.3303 25.6458 23.4605 25.1302 23.5803C24.6354 23.7887 24.0833 23.747 23.6042 23.9814C23.1302 24.2158 22.5781 24.1376 22.1146 24.372C21.651 24.5908 21.1614 24.721 20.651 24.7522C20.4062 24.7991 20.1614 24.8355 19.9114 24.8564C19.8542 24.8668 19.7917 24.8772 19.7292 24.8876C19.7083 24.8928 19.651 24.9085 19.6042 24.9189L19.4479 24.9658C19.3489 24.997 19.2448 25.0335 19.1406 25.0751C19.0885 25.096 19.0364 25.122 18.9844 25.1428L18.901 25.1845C18.8698 25.2001 18.8385 25.221 18.8229 25.2001C18.6562 25.0595 18.4792 24.9345 18.2969 24.8043C18.0781 24.6376 18.0104 24.6116 17.901 24.5335C17.6771 24.3928 17.5364 24.1845 17.4896 23.9241C17.0833 23.6533 16.9271 23.1428 16.5 22.9137C16.3594 22.4085 15.875 22.2418 15.5781 21.9085C15.3489 21.5283 15.0625 21.1949 14.7187 20.9137C14.3437 20.6637 14.2135 20.221 13.9219 19.9241C13.75 19.7991 13.6302 19.6324 13.5573 19.4293C13.4896 19.2366 13.3698 19.0751 13.1979 18.9553C12.9844 18.622 12.7135 18.3408 12.5417 18.0022C12.3229 17.9553 12.1823 17.8251 12.1198 17.6116C12.0781 17.4293 12.026 17.247 11.9531 17.0699C11.8073 16.747 11.3854 16.5908 11.4427 16.1689C11.2656 16.096 11.151 15.971 11.1094 15.7835C11.0573 15.6272 11.0469 15.4501 11.0104 15.2939C10.9323 14.9814 10.6406 14.7835 10.651 14.4553C10.526 14.3564 10.4635 14.2262 10.4635 14.0647C10.4739 13.9241 10.4479 13.7887 10.3854 13.6585C10.4167 13.3616 10.2292 13.1533 10.2083 12.9033C10.1562 12.7939 10.125 12.6741 10.1094 12.5543C10.0937 12.4397 10.0989 12.3199 10.1198 12.2053C10.1094 11.997 10.1094 11.7887 10.1302 11.5803C10.1614 11.1116 10.3281 10.6897 10.625 10.3251C10.6719 10.273 10.7187 10.2262 10.7708 10.1845C10.8125 10.1533 10.8489 10.1272 10.8958 10.1012C10.9635 10.0647 11.0052 10.0543 11.0208 10.0751Z" fill="#6B725C"/>
<path d="M47.9531 0.189657C47.9583 0.168823 48 0.153199 48.0781 0.153199C48.125 0.153199 48.1771 0.158408 48.224 0.163616C48.2917 0.174033 48.3542 0.189659 48.4167 0.210491C48.8542 0.377157 49.2031 0.6532 49.4635 1.04382C49.5833 1.2157 49.6875 1.39278 49.7812 1.58028C49.8438 1.67403 49.8958 1.7782 49.9375 1.88237C49.9896 1.99174 50.026 2.10632 50.0573 2.22091C50.026 2.35632 50.1198 2.46049 50.1979 2.57507C50.3073 2.68966 50.3333 2.81466 50.276 2.96049C50.276 3.10112 50.2917 3.23653 50.3281 3.37195C50.3594 3.50737 50.401 3.64278 50.4427 3.78862C50.5156 4.07507 50.4219 4.38237 50.5521 4.68966C50.6875 4.8407 50.6198 5.00216 50.5625 5.16882C50.4635 5.3407 50.4792 5.50737 50.6094 5.66362C50.6615 6.00737 50.6667 6.35112 50.6198 6.70007C50.526 6.86674 50.4948 7.04382 50.5208 7.23653C50.5365 7.41882 50.5781 7.60632 50.5781 7.79903C50.349 8.16362 50.3177 8.54903 50.4844 8.95007C50.3177 9.10112 50.2188 9.28862 50.1927 9.51257C50.1823 9.74174 50.2292 9.95528 50.3385 10.1532C50.2188 10.5647 50.151 10.9813 50.1458 11.4032C50.1042 11.8459 50.026 12.2782 49.8958 12.7001C50.0052 13.1897 49.9063 13.6324 49.599 14.0282C49.6615 14.5282 49.5469 14.9865 49.25 15.398C49.1406 15.6167 49.0833 15.8511 49.0781 16.0959C49.0625 16.2522 49.026 16.4084 48.9792 16.5542C48.9219 16.7678 48.8438 16.9657 48.7396 17.1584C48.7396 17.1897 48.6979 17.1845 48.6771 17.1949L48.5938 17.2157L48.4375 17.2574L48.1198 17.3459L47.8333 17.4292L47.6562 17.4865C47.4219 17.5647 47.1823 17.6272 46.9375 17.6792C46.4115 17.6636 45.9271 17.799 45.4844 18.0803C45.0104 18.3042 44.5156 18.4397 43.9948 18.4865C43.5365 18.8095 43.0313 18.9449 42.474 18.9032C41.9479 18.997 41.4323 19.1376 40.9271 19.3199C40.4115 19.497 39.8854 19.6376 39.3542 19.747C39.0781 19.7834 38.8073 19.8199 38.5417 19.8824C38.4115 19.9084 38.2812 19.9501 38.151 19.997L38.0573 20.0334L38.0104 20.049L37.9844 20.0595L37.9427 20.0751C37.8281 20.122 37.7083 20.1688 37.5885 20.2157C37.1146 20.4084 36.625 20.549 36.1198 20.6428C35.8854 20.6897 35.6615 20.7365 35.4375 20.7834L35.3125 20.8147C35.3125 20.799 35.3177 20.7834 35.3229 20.7678L35.3698 20.5907C35.3958 20.4709 35.4219 20.3563 35.4375 20.247C35.6406 19.7834 35.776 19.3042 35.8438 18.8095C35.8802 18.5803 35.9115 18.3511 35.9531 18.1115C35.9688 17.9761 36.0052 17.8459 36.0521 17.7209C36.1094 17.4657 36.1875 17.2157 36.2812 16.9709C36.3854 16.7261 36.4479 16.4761 36.474 16.2157C36.5573 15.7053 36.7083 15.2157 36.9219 14.747C36.849 14.4761 36.8958 14.2313 37.0625 14.0022C37.2135 13.799 37.3281 13.5803 37.4062 13.3407C37.6198 12.9032 37.7917 12.4501 37.9219 11.9813C38.0365 11.5074 38.4167 11.1584 38.4635 10.674C38.599 10.2365 38.7865 9.82507 39.026 9.43445C39.0521 9.20528 39.1406 9.00216 39.2969 8.82507C39.4427 8.65841 39.5417 8.4657 39.6042 8.25216C39.7812 7.86674 39.974 7.49174 40.1927 7.13237C40.625 6.89278 40.6198 6.43445 40.8021 6.08028C40.8958 5.91362 40.9844 5.73653 41.0573 5.55424C41.125 5.36674 41.2448 5.2157 41.4115 5.10112C41.6667 4.83028 41.8698 4.5282 42.026 4.19487C42.1979 3.87716 42.7396 3.8407 42.651 3.36674C42.7396 3.22091 42.8594 3.10632 43.0104 3.02299C43.1667 2.93445 43.2552 2.79903 43.2708 2.61674C43.2969 2.23132 43.6875 2.16362 43.8854 1.95007C44.0938 1.74695 44.2917 1.55424 44.4948 1.37716C45.1927 0.700075 46.0104 0.246948 46.9583 0.0281991C47.0052 0.0229911 47.0417 0.0125741 47.0833 0.0125741C47.1198 0.00736606 47.1615 0.00736573 47.1979 0.00736573C47.2708 0.0021564 47.3385 -0.0030506 47.401 0.0021574C47.5104 0.0125747 47.6146 0.0281994 47.7188 0.0542407C47.8854 0.111533 47.9583 0.158407 47.9531 0.194866C47.9427 0.231324 47.8333 0.252156 47.651 0.272991C47.3854 0.319865 47.125 0.397991 46.875 0.507366C45.9479 1.01257 45.1615 1.68966 44.526 2.53341C44.349 2.74695 44.3073 3.08028 43.9948 3.21049C43.9063 3.33028 43.8281 3.46049 43.7604 3.60112C43.6875 3.74174 43.5885 3.86153 43.4583 3.96049C43.474 4.36153 43.125 4.51258 42.9167 4.79382C42.6979 5.06987 42.5156 5.37195 42.3802 5.69487C42.3333 5.88237 42.25 6.04382 42.1198 6.18445C41.9948 6.32507 41.901 6.48653 41.8385 6.67403C41.5208 6.94487 41.3385 7.29382 41.3021 7.71049C40.9844 8.00216 40.9583 8.44487 40.7708 8.81987C40.4427 9.13757 40.2656 9.5282 40.2552 9.98653C40.151 10.4136 39.8698 10.773 39.75 11.2105C39.5365 11.6115 39.4583 12.0699 39.2604 12.4917C39.2083 12.9709 39.0521 13.4188 38.7865 13.8251C38.7396 14.0594 38.6719 14.2886 38.5885 14.5178C38.5052 14.7417 38.4115 14.9709 38.3438 15.2053C38.2396 15.6897 38.1042 16.1688 37.9323 16.6324C37.8646 16.8824 37.7708 17.1167 37.6458 17.3407C37.526 17.5803 37.4896 17.8355 37.5417 18.1011C37.5208 18.2261 37.4896 18.3563 37.4583 18.4761C37.4531 18.4917 37.4479 18.5074 37.4375 18.523C37.4219 18.5542 37.4062 18.6063 37.4271 18.6115L37.4062 18.6532C37.3958 18.6688 37.3854 18.6845 37.3958 18.6792C37.4115 18.6845 37.4271 18.6845 37.4427 18.6845C37.4948 18.674 37.5365 18.648 37.5677 18.6063C37.5729 18.6324 37.5885 18.6532 37.6094 18.674L37.6146 18.6792H37.6927C37.7292 18.674 37.7604 18.674 37.7969 18.6688C37.9323 18.648 38.0625 18.6167 38.1927 18.5751C38.4479 18.4761 38.7031 18.3615 38.9479 18.2365C39.4583 18.0438 39.9844 17.9032 40.5208 17.8147C41.0365 17.6532 41.5573 17.523 42.0729 17.4032C42.5677 17.1949 43.1198 17.2365 43.599 17.0022C44.0729 16.7678 44.625 16.8459 45.0885 16.6115C45.5521 16.3928 46.0417 16.2626 46.5521 16.2313C46.9896 16.1167 47.7448 16.1532 47.5677 15.9709C47.5625 15.9397 47.5469 15.9136 47.526 15.8876C47.4896 15.9136 47.5104 15.7365 47.526 15.6324C47.5521 15.3719 47.6667 15.1636 47.875 15.0022C47.9167 14.5334 48.2813 14.1584 48.25 13.6845C48.6094 13.3095 48.474 12.8199 48.5781 12.4032C48.7604 12.0074 48.8542 11.5907 48.8646 11.1584C48.8229 10.7261 49.0781 10.3615 49.1042 9.95528C49.0833 9.75216 49.1198 9.55945 49.2083 9.37195C49.3073 9.19487 49.3333 9.00216 49.2917 8.79903C49.375 8.42924 49.3594 8.05424 49.4427 7.70007C49.3021 7.53341 49.276 7.35632 49.3594 7.15841C49.4375 6.99174 49.5 6.82507 49.5469 6.64799C49.6094 6.30945 49.3438 5.97612 49.6042 5.66362C49.4896 5.52299 49.4479 5.37195 49.4896 5.19487C49.5156 5.04382 49.5885 4.88757 49.6146 4.74174C49.6719 4.43445 49.4635 4.17403 49.5781 3.88757C49.4844 3.77299 49.4583 3.64278 49.5 3.49695C49.5365 3.36674 49.5365 3.24174 49.5 3.11153C49.5677 2.84591 49.4063 2.64278 49.375 2.42403C49.349 2.37716 49.3281 2.32507 49.3073 2.27299C49.2865 2.22611 49.2708 2.17924 49.2552 2.12716C49.2292 2.0282 49.2135 1.92924 49.2031 1.83028C49.1458 1.65841 49.0781 1.49174 49 1.33028C48.8333 0.981325 48.599 0.694866 48.2917 0.465699C48.2396 0.424032 48.1927 0.387574 48.151 0.361532C48.1094 0.340699 48.0729 0.314658 48.0365 0.288616C47.9792 0.246949 47.9479 0.215699 47.9531 0.189657Z" fill="#6B725C"/>
</svg>
