<svg width="275" height="171" viewBox="0 0 275 171" fill="none" xmlns="http://www.w3.org/2000/svg">
<path d="M158.797 15.7865C158.745 15.8386 158.708 16.5365 158.708 17.323V18.7552H159.807V17.3073C159.807 15.9115 159.786 15.8594 159.349 15.7865C159.109 15.7292 158.854 15.7292 158.797 15.7865Z" fill="#6B725C"/>
<path d="M150.859 17.2343C150.911 18.6458 150.912 18.6614 151.427 18.7187L151.922 18.7708V15.8229H150.802L150.859 17.2343Z" fill="#6B725C"/>
<path d="M152.469 17.2864V18.7552H153.573V15.8229H152.469V17.2864Z" fill="#6B725C"/>
<path d="M153.974 17.2344C154.031 18.6459 154.031 18.6615 154.526 18.7188C155.13 18.7917 155.276 18.4063 155.188 16.9011C155.13 15.9323 155.109 15.9115 154.526 15.8594L153.922 15.8021L153.974 17.2344Z" fill="#6B725C"/>
<path d="M155.589 17.2864V18.7552H156.688V15.8229H155.589V17.2864Z" fill="#6B725C"/>
<path d="M157.24 17.3073V18.7708L157.75 18.7187C158.25 18.6614 158.25 18.6458 158.302 17.2343L158.359 15.8229H157.24V17.3073Z" fill="#6B725C"/>
<path d="M150.948 19.6146C150.875 19.6719 150.823 20.3334 150.823 21.0834V22.4219H151.922V20.9532C151.922 19.5417 151.901 19.4896 151.5 19.4896C151.26 19.4896 151.005 19.5417 150.948 19.6146Z" fill="#6B725C"/>
<path d="M152.469 20.9375V22.4219H153.589L153.536 20.9896C153.479 19.599 153.479 19.5781 152.984 19.526L152.469 19.4688V20.9375Z" fill="#6B725C"/>
<path d="M154.068 19.6146C153.995 19.6719 153.938 20.349 153.938 21.0834V22.4427L154.542 22.3855C155.109 22.3282 155.13 22.3125 155.188 21.3386C155.26 19.9271 155.13 19.4896 154.599 19.4896C154.38 19.4896 154.12 19.5417 154.068 19.6146Z" fill="#6B725C"/>
<path d="M155.589 20.9375C155.589 22.4584 155.698 22.7136 156.323 22.5157C156.651 22.4063 156.688 22.2396 156.688 20.9375V19.4896H155.589V20.9375Z" fill="#6B725C"/>
<path d="M157.203 19.8021C157.146 19.9844 157.146 20.6459 157.203 21.2657C157.276 22.4063 157.292 22.4219 157.828 22.4219H158.359L158.302 20.9896C158.25 19.6146 158.229 19.5782 157.771 19.5261C157.422 19.4896 157.255 19.5625 157.203 19.8021Z" fill="#6B725C"/>
<path d="M158.708 20.9532V22.4219H159.807V19.4896H158.708V20.9532Z" fill="#6B725C"/>
<path d="M150.948 23.2865C150.875 23.3385 150.823 24 150.823 24.75V26.0885H151.922V24.625C151.922 23.2083 151.901 23.1562 151.5 23.1562C151.26 23.1562 151.005 23.2083 150.948 23.2865Z" fill="#6B725C"/>
<path d="M152.469 24.6041V26.0885H153.589L153.536 24.6614C153.479 23.2656 153.479 23.2448 152.984 23.1927L152.469 23.1354V24.6041Z" fill="#6B725C"/>
<path d="M154.068 23.2865C153.995 23.3385 153.938 24.0156 153.938 24.75V26.1094L154.542 26.0521C155.109 26 155.13 25.9792 155.188 25.0052C155.26 23.5937 155.13 23.1562 154.599 23.1562C154.38 23.1562 154.12 23.2083 154.068 23.2865Z" fill="#6B725C"/>
<path d="M155.719 23.2657C155.646 23.3386 155.589 24.0001 155.589 24.7501V26.0886H156.708L156.651 24.6615C156.599 23.3959 156.563 23.2449 156.229 23.1928C156.01 23.1563 155.792 23.1928 155.719 23.2657Z" fill="#6B725C"/>
<path d="M157.219 23.1927C157.094 23.8698 157.036 25.1563 157.146 25.6511C157.24 26.2188 157.313 26.2917 157.75 26.2344C158.25 26.1823 158.25 26.1615 158.25 24.7136C158.25 23.2448 158.25 23.2448 157.75 23.1927C157.458 23.1563 157.24 23.1563 157.219 23.1927Z" fill="#6B725C"/>
<path d="M158.781 23.3959C158.724 23.5417 158.708 24.2188 158.745 24.9167C158.797 26.125 158.818 26.1823 159.255 26.1823C159.714 26.1823 159.714 26.1615 159.714 24.7136C159.714 23.3386 159.698 23.2448 159.292 23.1928C159.073 23.1563 158.854 23.2448 158.781 23.3959Z" fill="#6B725C"/>
<path d="M176.583 29.4271C176.531 29.5573 176.51 34.4531 176.531 40.3021L176.583 50.9375H197.672V29.2968L187.167 29.2448C178.859 29.2083 176.641 29.2448 176.583 29.4271ZM184.526 36.026C184.453 39.4948 184.359 39.8229 183.427 40.3177C182.672 40.7031 181.188 40.5781 180.693 40.0833C180.38 39.7864 180.365 39.6979 180.599 39.3854C180.859 39.0364 180.859 39.0364 181.516 39.3854C182.141 39.7135 182.234 39.7343 182.693 39.4739L183.188 39.1823L183.24 36.026L183.276 32.875H184.599L184.526 36.026ZM187 35.2031C187.276 36.5052 187.495 37.6979 187.495 37.8646C187.495 38.7396 187.844 37.9531 188.505 35.5677C189.24 32.9843 189.255 32.9635 189.786 32.9635C190.266 32.9635 190.339 33.0416 190.464 33.6979C190.557 34.1041 190.885 35.3854 191.198 36.5416L191.766 38.6302L192.026 37.4583C192.151 36.7968 192.427 35.4948 192.646 34.5625C193.016 32.9114 193.031 32.875 193.563 32.875C193.948 32.875 194.099 32.9635 194.078 33.1875C194.078 33.3698 193.677 35.0729 193.219 37L192.354 40.4843H191.802C191.182 40.4843 191.125 40.3906 190.281 37.0573C189.99 35.9375 189.714 35.0937 189.661 35.1823C189.604 35.276 189.255 36.4843 188.87 37.8802L188.172 40.4114L187.625 40.3541C187.073 40.3021 187.057 40.2812 186.542 38.0989C186.25 36.8906 185.844 35.2239 185.661 34.3802L185.333 32.875H186.484L187 35.2031ZM183.734 42.1146C184.635 42.5 185.109 43.3646 185.109 44.6302C185.109 45.9114 184.599 46.776 183.573 47.1614C181.938 47.7812 180.438 46.4271 180.583 44.4635C180.656 43.3437 181.094 42.6458 182.01 42.1875C182.766 41.7864 182.927 41.7864 183.734 42.1146ZM193.766 42.151C193.859 42.2083 193.911 42.3541 193.911 42.4843C193.911 42.6666 193.677 42.7031 192.995 42.6302C192.354 42.5729 191.953 42.6302 191.641 42.8333C190.724 43.4375 190.578 45.3437 191.401 46.2031C191.693 46.5364 191.99 46.625 192.667 46.625H193.563L193.51 45.8385C193.453 45.1406 193.401 45.0677 192.958 45.0156C192.667 44.9791 192.448 44.8489 192.448 44.6823C192.448 44.5 192.682 44.4271 193.271 44.4271H194.115L194.063 45.7448L194.005 47.0833L193.161 47.25C192.484 47.3802 192.172 47.3437 191.495 47.0312C190.797 46.7396 190.615 46.5364 190.339 45.8385C189.734 44.2448 190.411 42.4635 191.766 42.0625C192.302 41.8958 193.438 41.9531 193.766 42.151ZM188.76 42.2239C189.328 42.5208 189.604 43.4166 189.328 44.0625C189.203 44.3541 189.052 44.6093 188.979 44.6093C188.927 44.6093 188.76 44.6823 188.63 44.776C188.432 44.8854 188.505 45.1406 188.943 45.9323C189.568 47.0312 189.641 47.3593 189.255 47.3593C189.109 47.3593 188.724 46.8854 188.375 46.2968C187.901 45.4896 187.641 45.2343 187.255 45.1979C186.781 45.1406 186.76 45.1614 186.76 46.151C186.76 47.0468 186.724 47.1771 186.396 47.1771C186.047 47.1771 186.026 47.0468 186.026 44.6093V42.0416H187.24C187.901 42.0416 188.578 42.1146 188.76 42.2239ZM180.161 46.5364C180.344 46.7552 180.344 46.8646 180.161 47.0833C179.703 47.6354 179.042 47.2135 179.318 46.5364C179.37 46.3906 179.536 46.2604 179.667 46.2604C179.813 46.2604 180.031 46.3906 180.161 46.5364Z" fill="#6B725C"/>
<path d="M181.792 43.0676C181.427 43.4531 181.354 43.7291 181.354 44.6458C181.354 45.6562 181.406 45.7812 181.958 46.2812C182.708 46.9583 183.167 46.9583 183.844 46.2812C184.323 45.802 184.38 45.6197 184.38 44.6093C184.38 43.677 184.302 43.4166 183.922 43.052C183.313 42.427 182.396 42.427 181.792 43.0676Z" fill="#6B725C"/>
<path d="M186.76 43.4895V44.427H187.458C187.953 44.427 188.281 44.2968 188.521 44.0416C188.833 43.6927 188.833 43.6198 188.578 43.1823C188.359 42.776 188.156 42.6666 187.531 42.6302L186.76 42.5729V43.4895Z" fill="#6B725C"/>
<path d="M171.359 57.7188C171.068 58.0313 171.01 58.1771 171.193 58.1771C171.448 58.1615 172.276 57.5573 172.276 57.375C172.276 57.099 171.745 57.2969 171.359 57.7188Z" fill="#6B725C"/>
<path d="M157.531 58.9688C156.724 59.7761 156.927 60.3959 158.193 61.0417C159.203 61.5521 159.438 61.9219 159.016 62.3438C158.615 62.7656 157.844 62.5052 157.422 61.7917L157.057 61.2031V62.6719L157.974 62.7292C159.052 62.7813 159.568 62.5625 159.807 61.9219C160.083 61.2396 159.604 60.4896 158.708 60.125C157.88 59.7917 157.625 59.4063 157.974 59.0052C158.302 58.6198 158.484 58.6563 159.089 59.2604L159.625 59.7917V59.2604C159.625 58.9323 159.531 58.7292 159.365 58.7292C159.24 58.7292 158.87 58.6771 158.557 58.6198C158.12 58.5261 157.901 58.599 157.531 58.9688Z" fill="#6B725C"/>
<path d="M161.547 60.2865C161.182 61.2605 160.703 62.2136 160.484 62.4167L160.099 62.7657H160.833C161.307 62.7657 161.458 62.7084 161.292 62.599C161.125 62.4896 161.089 62.2709 161.161 61.974C161.307 61.3542 162.318 61.0938 162.688 61.5886C163.016 62.0469 162.979 62.5417 162.609 62.6355C162.427 62.6928 162.813 62.7292 163.474 62.7448C164.318 62.7448 164.573 62.7084 164.37 62.5782C164.208 62.4896 163.714 61.5886 163.292 60.6198C162.87 59.6303 162.448 58.7501 162.375 58.6771C162.302 58.5834 161.932 59.3178 161.547 60.2865ZM162.281 60.6928C162.375 61.0573 162.339 61.1146 161.932 61.1146C161.495 61.1146 161.495 61.0782 161.677 60.5469C161.88 59.9584 162.063 60.0157 162.281 60.6928Z" fill="#6B725C"/>
<path d="M170.516 58.8021C168.807 59.5573 168.734 61.6979 170.37 62.4896C171.542 63.0365 172.698 62.6927 173.266 61.6094C173.87 60.4896 173.339 59.2448 172.036 58.75C171.375 58.4896 171.214 58.5104 170.516 58.8021ZM171.906 59.0573C172.714 59.7188 172.568 62.2135 171.708 62.4896C170.807 62.7813 170.26 62.0469 170.26 60.5469C170.26 59.8125 170.349 59.5365 170.719 59.1875C171.25 58.6406 171.375 58.6406 171.906 59.0573Z" fill="#6B725C"/>
<path d="M165.177 58.9323C165.438 59.0781 165.49 59.3906 165.49 60.7448C165.49 62.1042 165.438 62.4167 165.177 62.5625C164.943 62.7083 165.365 62.7448 166.74 62.7656C168.589 62.7656 168.609 62.7656 168.609 62.3229C168.609 62.0833 168.661 61.7552 168.719 61.5885C168.901 61.1146 168.5 61.2604 168.276 61.7552C168.042 62.2865 167.271 62.6562 166.755 62.4896C166.443 62.3802 166.406 62.1771 166.406 60.7448C166.406 59.3906 166.464 59.0781 166.74 58.9323C166.974 58.7865 166.792 58.75 165.948 58.75C165.104 58.75 164.922 58.7865 165.177 58.9323Z" fill="#6B725C"/>
<path d="M174.276 59.0208C174.677 59.3177 174.698 59.427 174.625 60.802C174.547 61.9583 174.458 62.3229 174.203 62.5052C173.891 62.7448 173.943 62.7656 174.661 62.7656C175.354 62.7656 175.411 62.7291 175.135 62.526C174.88 62.3437 174.844 62.0677 174.88 60.9687L174.932 59.6302L176.219 61.1875C176.932 62.0468 177.557 62.7448 177.646 62.7656C177.724 62.7656 177.776 61.9375 177.776 60.9323C177.776 59.3906 177.833 59.0781 178.104 58.9323C178.344 58.7864 178.234 58.75 177.594 58.75C176.917 58.75 176.844 58.7864 177.188 58.9114C177.536 59.0573 177.594 59.2239 177.594 60.1041C177.594 60.6562 177.557 61.1145 177.521 61.1145C177.484 61.1145 177.005 60.5833 176.474 59.9218C175.542 58.7656 175.484 58.7291 174.677 58.7291C173.854 58.7291 173.854 58.7291 174.276 59.0208Z" fill="#6B725C"/>
<path d="M181.682 58.8594C181.958 58.9323 181.995 59.1719 181.995 60.6562C181.995 62.1042 181.938 62.4167 181.682 62.5781C181.427 62.7292 181.719 62.7656 182.911 62.7083C184.766 62.6354 185.37 62.3229 185.682 61.3177C185.844 60.7656 185.828 60.5104 185.589 59.9583C185.224 59.0417 184.432 58.7292 182.693 58.75C181.958 58.7656 181.5 58.8021 181.682 58.8594ZM183.901 59.099C184.964 59.5 184.948 62.0104 183.885 62.4167C183.094 62.7083 182.911 62.3802 182.911 60.6562C182.911 58.8229 182.964 58.7292 183.901 59.099Z" fill="#6B725C"/>
<path d="M186.396 58.8593C186.854 59.0416 186.943 59.3177 186.943 60.7448C186.943 62.177 186.854 62.4531 186.396 62.6354C186.25 62.6927 186.964 62.7448 188.01 62.7448L189.88 62.7656V62.0677C189.88 61.4062 189.859 61.4062 189.641 61.8281C189.401 62.3073 188.578 62.6718 188.135 62.5052C187.734 62.3593 187.75 60.7448 188.156 60.7448C188.323 60.7448 188.484 60.9114 188.542 61.1145C188.703 61.776 188.964 61.5 188.964 60.6562C188.964 60.1979 188.891 59.8281 188.781 59.8281C188.688 59.8281 188.594 59.9583 188.594 60.1041C188.594 60.25 188.557 60.3802 188.521 60.3802C188.484 60.3802 188.323 60.4375 188.156 60.4895C187.917 60.5833 187.865 60.4531 187.865 59.7552C187.865 58.9479 187.88 58.9114 188.375 58.9114C188.964 58.9114 189.203 59.0573 189.474 59.5573C189.661 59.8854 189.677 59.8645 189.698 59.3177V58.7291L187.917 58.75C186.927 58.75 186.25 58.802 186.396 58.8593Z" fill="#6B725C"/>
<path d="M190.849 58.9323C191.109 59.0781 191.161 59.3906 191.161 60.7656C191.161 62.3073 191.125 62.4166 190.76 62.5781C190.464 62.6927 190.943 62.7448 192.318 62.7448C194.063 62.7656 194.281 62.7291 194.281 62.4323C194.281 62.2708 194.333 61.9375 194.391 61.6979C194.464 61.4635 194.427 61.2968 194.297 61.2968C194.188 61.2968 194.099 61.4062 194.099 61.552C194.099 61.9739 193.161 62.5989 192.646 62.5416C192.188 62.4895 192.172 62.4531 192.115 60.8385C192.078 59.4427 192.115 59.151 192.375 58.9687C192.646 58.7656 192.536 58.7291 191.604 58.7291C190.776 58.75 190.594 58.7864 190.849 58.9323Z" fill="#6B725C"/>
<path d="M197.693 58.875C197.927 59.0208 198.188 61.4791 198.021 62.1198C197.964 62.3593 197.781 62.5989 197.62 62.6354C197.432 62.6927 197.839 62.7291 198.5 62.7448C199.396 62.7448 199.615 62.7083 199.38 62.5625C199.156 62.4323 199.047 62.1562 199.047 61.6614C199.047 61.2604 199.12 60.9323 199.193 60.9323C199.286 60.9323 199.542 61.276 199.781 61.6979C200.313 62.6718 200.443 62.7656 201.25 62.7656H201.891L201.396 62.3437C201.141 62.1198 200.792 61.6979 200.661 61.4062C200.406 60.9323 200.422 60.8593 200.807 60.4739C201.083 60.1979 201.193 59.9218 201.12 59.6666C200.938 58.9687 200.349 58.7291 198.865 58.7291C198.115 58.7291 197.583 58.802 197.693 58.875ZM199.802 59.0989C200.458 59.4635 200.13 60.5625 199.38 60.5625C199.104 60.5625 199.047 60.4166 199.047 59.7395C199.047 58.8958 199.177 58.7656 199.802 59.0989Z" fill="#6B725C"/>
<path d="M202.422 58.9687C202.734 59.1875 202.734 59.5156 202.552 62.3437C202.531 62.4531 202.385 62.5989 202.219 62.6354C202.036 62.6927 202.734 62.7291 203.74 62.7448L205.615 62.7656L205.688 62.1198C205.776 61.3906 205.63 61.2968 205.375 61.8854C205.172 62.3437 204.385 62.6927 203.927 62.526C203.703 62.4323 203.63 62.177 203.63 61.552C203.63 60.8593 203.688 60.7291 203.927 60.8177C204.089 60.875 204.255 60.9323 204.292 60.9323C204.328 60.9323 204.365 61.0573 204.365 61.2031C204.365 61.7552 204.641 61.4635 204.677 60.875C204.734 60.0156 204.547 59.6302 204.349 60.1406C204.276 60.3802 204.052 60.5625 203.906 60.5625C203.667 60.5625 203.63 60.3958 203.667 59.776C203.724 59.0416 203.74 59.0052 204.276 59.0416C204.583 59.0573 204.969 59.2604 205.156 59.4791L205.464 59.8645V58.7291H203.781C202.365 58.7291 202.146 58.7656 202.422 58.9687Z" fill="#6B725C"/>
<path d="M206.422 58.9479C206.62 59.1145 206.729 59.6458 206.802 60.6562C206.917 62.177 206.859 62.4531 206.38 62.6354C206.234 62.6927 206.641 62.7291 207.302 62.7291C207.958 62.7291 208.344 62.6927 208.177 62.6354C207.813 62.5416 207.797 62.4687 207.849 60.5625C207.87 59.5364 207.958 59.1354 208.177 58.9479C208.417 58.7656 208.271 58.7291 207.302 58.7291C206.328 58.7291 206.182 58.7656 206.422 58.9479Z" fill="#6B725C"/>
<path d="M209.005 58.9843C209.26 59.1875 209.318 59.5156 209.318 60.802C209.318 62.1041 209.26 62.4166 209.005 62.5625C208.75 62.7083 208.839 62.7448 209.479 62.7656C210.198 62.7656 210.271 62.7291 209.979 62.526C209.609 62.25 209.391 60.875 209.573 60.1041L209.703 59.6302L210.344 60.4166C210.693 60.8593 211.297 61.5729 211.661 62.0312L212.323 62.8385L212.453 62.2708C212.505 61.9583 212.578 61.151 212.599 60.4531C212.62 59.776 212.729 59.0989 212.839 58.9687C212.984 58.7864 212.875 58.7291 212.234 58.75C211.516 58.75 211.479 58.7864 211.849 58.9479C212.198 59.1145 212.25 59.2968 212.25 60.1406C212.25 60.6718 212.234 61.1145 212.198 61.1145C212.161 61.1145 211.698 60.5833 211.188 59.9218C210.271 58.7864 210.177 58.7291 209.443 58.7291C208.766 58.75 208.714 58.7656 209.005 58.9843Z" fill="#6B725C"/>
<path d="M214.708 58.9115C213.5 59.3907 213.167 61.0573 214.047 62.0469C214.469 62.5261 214.745 62.6563 215.516 62.7292C216.411 62.8021 216.505 62.7657 217.109 62.1563C217.625 61.6459 217.75 61.3698 217.75 60.8021C217.75 60.4167 217.625 59.9011 217.458 59.6823C216.891 58.875 215.661 58.5261 214.708 58.9115ZM216.099 59.099C216.818 59.4792 216.927 61.5365 216.286 62.3073C215.99 62.6719 215.385 62.6563 214.964 62.2709C214.708 62.0469 214.635 61.698 214.635 60.7813C214.635 59.1719 215.146 58.5834 216.099 59.099Z" fill="#6B725C"/>
<mask id="mask0_137_3" style="mask-type:luminance" maskUnits="userSpaceOnUse" x="3" y="0" width="268" height="115">
<path d="M3.45834 0H271V114.667H3.45834V0Z" fill="white"/>
</mask>
<g mask="url(#mask0_137_3)">
<path d="M151.172 1.71875C150.328 2.14063 148.438 3.04167 146.969 3.71875C142.479 5.80729 138.609 7.625 134.776 9.4375C130.724 11.3646 114.844 18.901 111.672 20.4062C110.573 20.9375 108.005 22.1458 105.984 23.099C103.969 24.0729 101.495 25.2448 100.484 25.724C97.7344 27.0417 78.7031 36.0469 73.9896 38.2448C71.7136 39.3125 68.1406 41 66.0104 42.0052C63.9011 42.9948 59.9792 44.8646 57.3021 46.1302C54.625 47.3958 50.5886 49.3021 48.3177 50.3854C46.0417 51.4688 44.0782 52.3854 43.9688 52.4375C43.5834 52.5885 43.6771 52.8073 44.6511 54.0365L45.5469 55.1927L47.5261 54.8594C48.6094 54.6979 49.8177 54.4948 50.2031 54.4219L50.8854 54.2917V56.1458C50.8854 57.9427 50.8646 57.9948 50.4792 57.9948C50.2604 57.9948 48.3334 58.3281 46.2084 58.7135C44.099 59.1146 38.9271 60.0677 34.7448 60.8385C30.5677 61.6094 24.0938 62.8021 20.3542 63.4948C16.6302 64.1927 11.4219 65.1458 8.7969 65.625C6.17711 66.099 3.95836 66.5417 3.88544 66.6146C3.79169 66.6875 3.84898 67.1458 3.99481 67.6406L4.25002 68.5417L60.1979 68.5938C115.359 68.6302 116.146 68.6302 116.349 68.2812C116.495 67.9896 116.458 67.8958 116.198 67.8229C115.667 67.6615 108.391 66.1562 97.4584 63.9375C91.7552 62.7813 85.1563 61.4271 82.7917 60.9323C80.4271 60.4375 76.4636 59.6094 73.9896 59.1146L69.4948 58.1771L64.5469 58.1615C61.8281 58.1406 58.4011 58.0885 56.9531 58.0156L54.2917 57.9062L57.6875 56.3073L61.0625 54.6979L61.1146 51.7812L61.1511 48.8802L65.6979 46.7552C68.1927 45.5833 72.8334 43.401 76.0052 41.8958C79.1771 40.3906 83.7604 38.2292 86.1823 37.0938C88.6042 35.9531 92.3229 34.1927 94.4323 33.1875C96.5625 32.1979 99.6406 30.7292 101.313 29.9427C102.979 29.1719 107.234 27.151 110.755 25.4844C129.182 16.7917 137.766 12.7396 140 11.6927C141.359 11.0365 144.823 9.40104 147.688 8.0625L152.911 5.60938L155.938 6.98438C157.625 7.71354 159.969 8.78125 161.182 9.29167C162.391 9.82292 165.896 11.3854 168.974 12.7604C174.75 15.3281 178.104 16.7917 188.594 21.4115C198.609 25.8125 199.083 26.0365 200.333 26.5469C200.99 26.8229 203.266 27.8125 205.375 28.75C211.573 31.4792 215 32.9844 216.286 33.5156C216.943 33.7917 218.266 34.3802 219.219 34.8021C220.172 35.2396 223.766 36.7969 227.198 38.2812C233.047 40.8125 236.219 42.2083 241.5 44.5208C242.708 45.0521 245.88 46.4271 248.557 47.599C251.234 48.7552 254.865 50.349 256.625 51.1198C258.385 51.8906 260.714 52.901 261.818 53.375L263.776 54.2188V80.349H204.365L144.953 80.3698V78.9948C144.953 78.0208 145.026 77.6146 145.193 77.6146C145.318 77.599 145.281 77.5052 145.099 77.3594C144.917 77.2344 144.771 77.0104 144.771 76.8854C144.771 76.5729 143.833 74.5 143.688 74.5C143.542 74.5 142.755 76.3542 142.755 76.7188C142.755 76.8854 142.568 77.1562 142.349 77.3073C142.021 77.526 142 77.599 142.219 77.599C142.458 77.6146 142.516 77.875 142.531 78.9948L142.568 80.3698H140V79.651C140 79.25 140.094 78.901 140.224 78.8646C140.385 78.8073 140.349 78.6094 140.13 78.1302C139.964 77.7656 139.818 77.3438 139.818 77.1771C139.818 77.0104 139.745 76.8854 139.635 76.8854C139.542 76.8854 139.453 77.0104 139.453 77.1771C139.453 77.3438 139.323 77.7448 139.156 78.0938C138.885 78.6823 138.885 78.7552 139.156 78.9531C139.38 79.1198 139.432 79.3229 139.344 79.7812L139.214 80.3854L137.911 80.3333L136.609 80.276L136.552 79.651C136.516 79.2865 136.594 78.974 136.719 78.8802C136.901 78.7708 136.901 78.5885 136.703 77.9479C136.333 76.7552 136.318 76.7552 135.911 77.8177C135.656 78.4948 135.62 78.8073 135.766 78.8646C135.875 78.901 135.969 79.25 135.969 79.651V80.3698H133.401V79.6719C133.401 79.2865 133.495 78.8802 133.583 78.7917C133.714 78.6615 133.693 78.4219 133.495 78.0573C133.344 77.7656 133.219 77.3802 133.219 77.2135C133.219 77.0469 133.146 76.849 133.036 76.7917C132.943 76.7344 132.849 76.8646 132.849 77.0677C132.849 77.2865 132.724 77.7656 132.536 78.1146C132.318 78.6094 132.302 78.7917 132.464 78.8802C132.594 78.974 132.667 79.3021 132.63 79.651L132.573 80.276L131.255 80.3333L129.917 80.3854V79.651C129.917 79.25 130.01 78.901 130.12 78.8646C130.339 78.7917 129.771 76.8854 129.516 76.8854C129.458 76.8854 129.328 77.1406 129.276 77.4688C129.203 77.8021 129.036 78.224 128.927 78.4062C128.781 78.6823 128.781 78.7917 128.964 78.8438C129.094 78.901 129.182 79.25 129.182 79.651V80.3698H126.432V79.651C126.432 79.25 126.526 78.901 126.635 78.8646C126.76 78.8281 126.708 78.4219 126.469 77.7083C126.104 76.6615 126.083 76.625 125.958 77.1562C125.88 77.4688 125.719 77.9271 125.589 78.2031C125.37 78.625 125.37 78.7188 125.625 78.8646C125.807 78.974 125.88 79.2292 125.844 79.651L125.792 80.276L124.38 80.3333L122.948 80.3854V79.651C122.948 79.2135 123.042 78.901 123.203 78.8438C123.406 78.7552 123.391 78.5729 123.078 77.7448L122.672 76.776L122.286 77.6927C121.958 78.4792 121.938 78.6615 122.161 78.8438C122.323 78.974 122.396 79.3021 122.359 79.6719L122.307 80.276L120.984 80.3333L119.646 80.3854V79.5625C119.646 79.1198 119.74 78.7188 119.849 78.6823C119.995 78.625 119.922 78.2396 119.646 77.4531L119.224 76.2969L118.786 77.3594C118.51 78.0729 118.417 78.4792 118.547 78.6094C118.641 78.6979 118.729 78.9167 118.729 79.0677C118.729 79.4896 118.438 79.1042 117.849 77.9635L117.354 76.974L114.734 76.9219L112.13 76.8646V111.906H119.099V80.8281L120.693 80.901C121.594 80.9167 122.323 80.974 122.359 81.0104C122.38 81.026 122.38 82.4219 122.359 84.1094L122.307 87.151L120.984 84.6198L119.646 82.1094V111.724H122.396V99.8229C122.396 92.0677 122.453 87.8698 122.583 87.7917C122.693 87.7188 122.766 86.3646 122.766 84.2917V80.9167H125.88V87.5573L125.865 94.2135L124.542 91.6979C123.813 90.3073 123.151 89.1146 123.078 89.0573C123.005 88.9844 122.948 94.0469 122.948 100.318V111.724H125.88V103.307C125.88 97.8802 125.958 94.8333 126.068 94.7604C126.177 94.6875 126.25 92.1562 126.25 87.776V80.9167H129.365V91.0052C129.365 96.5417 129.313 101.089 129.24 101.089C129.146 101.089 128.521 99.9323 127.844 98.5208C127.146 97.1094 126.563 95.9531 126.505 95.9531C126.469 95.9531 126.432 99.4948 126.432 103.839V111.724H129.365V106.771C129.365 103.599 129.438 101.823 129.552 101.823C129.677 101.823 129.734 98.2083 129.734 91.3698V80.9167H131.198C132.005 80.9167 132.667 80.9375 132.667 80.9531C132.667 80.9896 132.724 87.2812 132.776 94.9479C132.849 102.609 132.958 108.953 133.052 109.068C133.146 109.156 133.219 103.25 133.219 95.0729V80.9167H135.932L136.078 96.4479C136.172 105.417 136.281 111.099 136.354 109.891C136.427 108.734 136.443 102.411 136.427 95.8646C136.391 89.2969 136.406 83.2656 136.464 82.4219L136.552 80.9167H139.453V96.3021C139.453 106.37 139.505 111.745 139.635 111.818C139.766 111.891 139.818 106.719 139.818 96.4323V80.9167H142.755V112.036L136.755 112.167C133.438 112.219 126.781 112.312 121.938 112.365C117.099 112.438 112.917 112.51 112.641 112.568C112.26 112.641 112.13 112.771 112.13 113.12V113.557H123.698C136.115 113.557 135.292 113.615 134.943 112.734C134.849 112.495 135.344 112.458 138.792 112.458H142.755V113.005C142.755 113.557 142.771 113.557 143.76 113.557C144.75 113.557 144.771 113.557 144.771 113.005V112.458L152.344 112.495L159.896 112.547V113.469L171.047 113.521L182.177 113.557V112.458H259.927V113.557H276.979V112.474L267.958 112.385C262.99 112.328 257.766 112.255 256.349 112.203C254.938 112.167 253.401 112.125 252.922 112.109L252.042 112.089V80.7344H254.974V96.3229C254.974 107.141 255.031 111.906 255.177 111.906C255.307 111.906 255.359 107.177 255.323 96.3594L255.307 80.8281H257.818L257.948 94.2135C258.036 101.568 258.167 108.589 258.26 109.797C258.349 111.156 258.385 106.057 258.313 96.3594L258.224 80.7344H260.974L261.083 85.724C261.156 88.4531 261.208 93.224 261.208 96.3021C261.208 101.271 261.375 106.5 261.688 110.589L261.797 111.927L263.375 111.87L264.969 111.818L264.953 97.5104C264.932 83.5781 264.932 83.4323 265.078 91.5521C265.172 96.1354 265.302 102.573 265.375 105.854L265.521 111.818H268.271V104.995C268.271 101.255 268.198 98.1198 268.125 98.0469C268.052 97.9531 267.922 97.9896 267.849 98.099C267.776 98.2083 267.391 98.4323 266.99 98.5938C266.583 98.7604 266.068 99.0885 265.849 99.2917C265.609 99.5104 265.427 99.6042 265.411 99.5104C265.411 99.4219 265.375 95.2031 265.375 90.1406L265.339 80.9167H268.365V89.0573C268.365 94.0469 268.438 97.7708 268.563 98.651C268.672 99.4375 268.823 102.719 268.896 105.948L269.005 111.818L270.38 111.797L271.755 111.781L271.807 104.443C271.865 98.0625 271.849 97.0885 271.589 96.8906C271.224 96.5781 270.563 96.9271 270.563 97.4219C270.563 97.8958 270.271 97.8958 270.01 97.4219C269.74 96.9063 269.333 96.9635 269.021 97.5521C268.766 98.0104 268.75 97.2031 268.729 89.5V80.9531L269.703 80.8802C271.349 80.7917 271.609 80.8646 271.719 81.5208C271.771 81.8542 271.828 85.3177 271.849 89.224C271.849 93.2969 271.938 96.5208 272.031 96.7969C272.141 97.0521 272.214 99.5833 272.214 102.521C272.214 105.417 272.266 108.698 272.344 109.833L272.453 111.87L273.792 111.854L275.146 111.818V103.328C275.146 97.8073 275.094 94.8542 274.964 94.8542C274.87 94.8542 274.781 94.9635 274.781 95.1094C274.781 95.6042 274.411 95.625 273.844 95.1458C273.531 94.8906 273.224 94.6719 273.146 94.6719C272.766 94.6719 272.417 95.2031 272.344 95.8646C272.307 96.2656 272.266 93.0729 272.25 88.75L272.214 80.9167H275.146V87.0052C275.146 90.3594 275.219 93.625 275.313 94.2656C275.406 94.8906 275.552 99.125 275.625 103.656L275.75 111.906H276.979V102.87C276.979 96.9792 276.906 93.9375 276.797 94.1198C276.708 94.2656 276.615 94.5417 276.615 94.7083C276.615 94.8906 276.484 95.0365 276.339 95.0365C276.172 95.0365 276.063 94.8698 276.063 94.5781C276.063 94.2865 275.953 94.1198 275.786 94.1198C275.552 94.1198 275.516 93.2604 275.516 87.5208V80.9167H276.979V79.3229C276.979 78.4583 276.927 77.8021 276.854 77.875C276.76 77.9479 276.708 78.5365 276.708 79.1406C276.708 80.2188 276.688 80.276 276.245 80.276C275.865 80.276 275.771 80.1823 275.734 79.6719C275.698 79.3385 275.771 78.9531 275.88 78.8073C276.026 78.625 275.99 78.3125 275.734 77.5417L275.385 76.5156L275.167 77.3073C275.036 77.7292 274.833 78.1875 274.724 78.3125C274.578 78.5156 274.599 78.6094 274.833 78.7344C275.276 78.9948 275.24 79.9271 274.797 80.1823C274.396 80.4062 272.948 80.4219 272.651 80.2188C272.307 80 272.193 78.9531 272.505 78.7188C272.672 78.5729 272.708 78.4062 272.599 78.276C272.526 78.1667 272.344 77.7448 272.214 77.3594L271.974 76.6458L271.646 77.5417C271.37 78.2396 271.333 78.5365 271.5 78.8281C271.609 79.0312 271.661 79.4531 271.625 79.7448C271.552 80.3698 271.203 80.4583 269.703 80.276C268.75 80.1667 268.729 80.1458 268.729 79.5625C268.729 79.25 268.823 78.8802 268.932 78.7708C269.078 78.625 269.042 78.3125 268.802 77.5781L268.49 76.6094L268.328 77.1562C268.234 77.4531 268.068 77.8906 267.943 78.1302C267.792 78.4427 267.792 78.5885 267.958 78.7552C268.214 79.0104 268.25 80.1094 268.016 80.2552C267.943 80.3125 267.318 80.3125 266.641 80.2396L265.427 80.1302V79.4323C265.427 79.0677 265.521 78.7188 265.646 78.6823C265.813 78.625 265.776 78.4219 265.557 77.9479C265.281 77.3438 265.245 76.2396 265.245 66.0833C265.245 59.9219 265.281 54.8802 265.318 54.8802C265.354 54.8802 265.943 55.1354 266.62 55.4271C268.068 56.0885 268.161 56.0885 269.115 55.5938C269.865 55.2292 271.479 53.8542 271.479 53.5938C271.479 53.4479 269.354 52.4375 265.281 50.6615C263.688 49.9844 261.906 49.1927 261.302 48.9219C260.698 48.6458 258.552 47.7083 256.536 46.8125C240.693 39.8594 239.865 39.5104 228.385 34.4323C223.292 32.1771 216.745 29.2969 213.807 28.0156C210.896 26.7292 207.427 25.2083 206.109 24.625C204.807 24.0365 201.906 22.75 199.688 21.7812C194.536 19.5052 189 17.0469 182.177 13.9896C176.953 11.6562 172.406 9.64063 165.672 6.65104C158.63 3.55208 157.604 3.09375 155.333 2.05208C154.031 1.46354 152.911 0.96875 152.854 0.96875C152.781 0.96875 152.031 1.31771 151.172 1.71875ZM147.208 83.6146C147.281 85.2083 147.339 92.2708 147.339 99.2917V112.089H144.771V96.5208C144.771 84.2344 144.823 80.9375 145.01 80.8646C145.12 80.8073 145.651 80.7552 146.161 80.7552L147.099 80.7344L147.208 83.6146ZM150.49 91.0938C150.547 96.7448 150.635 103.786 150.693 106.719L150.786 112.089H147.703L147.688 99.5677C147.688 92.6927 147.651 85.7604 147.594 84.1458C147.536 82.5521 147.536 81.1198 147.594 80.9896C147.667 80.7708 147.995 80.7344 149.026 80.7708L150.365 80.8281L150.49 91.0938ZM153.771 92.9271C153.849 99.5833 153.938 106.625 153.995 108.552L154.104 112.089H151.057L150.948 106.005C150.875 102.667 150.823 95.6042 150.823 90.3229V80.7135L152.25 80.7708L153.661 80.8281L153.771 92.9271ZM157.109 89.9375C157.182 95.0208 157.24 101.839 157.255 105.125C157.276 108.406 157.349 111.286 157.443 111.542C157.531 111.797 157.552 105.359 157.495 96.3594L157.385 80.7344H158.557C159.182 80.7344 159.88 80.7917 160.099 80.8438L160.484 80.9531L160.651 95.4583C160.813 109.25 160.813 110.021 160.505 110.661C160.047 111.594 160.083 111.943 160.594 111.87L161 111.818V96.3229L161.016 80.8281L162.354 80.8646C163.089 80.8802 163.729 80.9375 163.766 80.9531C163.786 80.9896 163.875 85.3177 163.948 90.5625L164.078 100.115L163.49 101.125C163.182 101.693 162.797 102.245 162.651 102.37C162.5 102.5 162.375 102.812 162.375 103.089C162.375 103.344 162.151 104.318 161.896 105.214C161.547 106.443 161.401 107.49 161.328 109.286L161.219 111.688L162.813 111.76L164.391 111.818L164.354 96.3229L164.333 80.8281H167.234L167.286 88.4375L167.323 96.0469L166.552 96.4115C165.932 96.7083 165.708 96.9271 165.526 97.4948C165.401 97.8802 165.141 98.4323 164.943 98.7031C164.594 99.1823 164.573 99.4948 164.594 103.417C164.609 105.708 164.667 108.552 164.74 109.708L164.849 111.818L166.151 111.87L167.453 111.927L167.599 96.3229L167.729 80.7344H169.104C170.021 80.7344 170.479 80.8073 170.531 80.9531C170.589 81.0833 170.646 84.401 170.661 88.3073L170.719 95.4219L169.359 95.3698L167.984 95.3125L167.818 96.0469C167.729 96.4688 167.708 99.8594 167.766 103.839C167.818 107.729 167.875 111.135 167.875 111.411V111.943L169.307 111.87L170.719 111.818L171.083 80.8281L172.479 80.7708L173.87 80.7135L173.979 85.9792C174.052 88.875 174.109 92.8021 174.109 94.724V98.1927L173.396 97.276C172.661 96.3594 171.745 95.5885 171.375 95.5885C171.229 95.5885 171.193 97.8594 171.214 103.693L171.266 111.818L172.641 111.745C173.396 111.708 174.036 111.667 174.052 111.651C174.073 111.651 174.146 104.703 174.24 96.2292L174.385 80.8281H177.318L177.427 93.2031C177.484 100.005 177.609 107.01 177.688 108.755L177.833 111.943L179.135 111.818C179.849 111.745 180.51 111.63 180.599 111.594C180.911 111.396 180.599 109.526 180.141 108.917C179.792 108.458 179.703 108.109 179.703 107.271C179.703 106.297 179.646 106.167 179.208 105.891C178.911 105.729 178.604 105.323 178.49 104.995C178.38 104.667 178.182 104.391 178.031 104.391C177.776 104.391 177.74 102.297 177.703 84.9531L177.688 80.8281H180.62L180.729 95.349C180.802 103.328 180.911 110.312 180.969 110.865C181.078 111.745 181.151 111.854 181.464 111.781C181.901 111.651 181.901 111.484 181.5 111.062C181.188 110.771 181.167 109.724 181.115 95.7344L181.042 80.7344H184.01V93.151C184.01 106.005 184.141 111.964 184.417 111.797C184.49 111.745 184.563 104.74 184.563 96.2083V80.7135L186.083 80.7708L187.589 80.8281L187.641 96.4323L187.677 112.052L183.974 112.182C179.885 112.328 154.578 112.24 154.417 112.089C154.307 111.964 153.938 81.0625 154.068 80.8646C154.104 80.7917 154.781 80.7344 155.568 80.7344H157L157.109 89.9375ZM190.922 96.4479L191.036 112.089H187.823L187.938 97.3646C188.01 89.2812 188.063 82.2188 188.047 81.6875V80.7135L190.797 80.8281L190.922 96.4479ZM194.281 96.4688L194.37 112.089H191.255L191.307 96.4115L191.344 80.7135L192.776 80.7708L194.188 80.8281L194.281 96.4688ZM197.49 80.9531C197.526 81.0833 197.583 88.1406 197.62 96.651L197.672 112.089H194.646L194.609 96.4844C194.573 87.9063 194.594 80.8438 194.63 80.8073C194.667 80.7708 195.307 80.7344 196.057 80.7344C196.974 80.7344 197.432 80.8073 197.49 80.9531ZM200.901 93.7552C200.953 100.87 201.026 107.854 201.047 109.286C201.047 110.734 201.12 111.906 201.214 111.906C201.286 111.906 201.302 104.885 201.266 96.3229L201.214 80.7135L202.641 80.7708L204.089 80.8281L204.198 91.4635C204.255 97.3125 204.328 104.297 204.349 106.995C204.365 110.182 204.438 111.906 204.547 111.906C204.677 111.906 204.698 106.849 204.62 96.3229L204.495 80.7135L206 80.7708L207.5 80.8281L207.609 96.4479L207.719 112.089H197.948V80.7135L199.38 80.7708L200.792 80.8281L200.901 93.7552ZM210.969 95.2917C210.969 103.292 211.021 110.349 211.078 110.974L211.203 112.089H208.031V80.7344H210.969V95.2917ZM214.156 80.9531C214.214 81.0833 214.286 88.1406 214.339 96.6302L214.453 112.089H211.333V80.7344H212.708C213.661 80.7344 214.12 80.8073 214.156 80.9531ZM217.458 90.125C217.516 95.2917 217.589 102.354 217.625 105.818L217.661 112.089H216.141C215.297 112.089 214.651 112.016 214.708 111.943C214.745 111.87 214.724 104.885 214.651 96.4115C214.563 87.9427 214.542 80.9531 214.578 80.8646C214.615 80.7917 215.26 80.7344 215.99 80.7344H217.349L217.458 90.125ZM220.833 96.3594C220.849 106.516 220.943 111.906 221.052 111.906C221.182 111.906 221.234 106.536 221.234 96.3229V80.7344H224.172V96.3229C224.172 106.589 224.224 111.906 224.354 111.906C224.479 111.906 224.536 106.589 224.536 96.3229V80.7344H227.047L227.156 88.8385C227.234 93.3125 227.286 100.318 227.286 104.427C227.286 109.927 227.344 111.906 227.49 111.906C227.656 111.906 227.672 108 227.578 96.3229L227.432 80.7344H230.219V87.9219C230.219 98.0833 230.443 111.906 230.604 111.906C230.677 111.906 230.677 104.885 230.625 96.3229L230.531 80.7135L231.891 80.7708L233.245 80.8281L233.339 96.4688L233.432 112.089H217.938V102.594C217.938 97.3854 217.88 90.3229 217.807 86.9115L217.698 80.7135L219.24 80.7708L220.776 80.8281L220.833 96.3594ZM236.365 96.3229C236.453 106.26 236.568 111.906 236.677 111.906C236.802 111.906 236.802 106.443 236.729 96.3229L236.583 80.7135L237.943 80.7708L239.297 80.8281L239.391 96.2656C239.443 104.755 239.536 111.76 239.63 111.833C239.703 111.906 239.755 104.938 239.755 96.3385V80.6979L241.021 80.7708L242.286 80.8281L242.396 88.25C242.453 92.3438 242.505 99.3281 242.505 103.786C242.505 109.505 242.563 111.906 242.708 111.906C242.854 111.906 242.891 107.453 242.839 96.3229L242.781 80.7135L244.068 80.7708L245.349 80.8281L245.458 96.2656C245.516 104.776 245.625 111.781 245.677 111.854C245.75 111.906 245.807 104.938 245.807 96.3385V80.7135L247.146 80.7708L248.469 80.8281L248.505 94.2135C248.542 101.568 248.578 108.609 248.594 109.854L248.651 112.089H233.703V80.7344H236.234L236.365 96.3229ZM251.677 95C251.677 102.87 251.729 109.906 251.786 110.677L251.911 112.089H248.927L248.906 97.6406C248.906 89.7031 248.854 82.7708 248.813 82.2188C248.688 80.7552 248.703 80.7344 250.302 80.7344H251.677V95ZM265.005 81.5573L265.026 82.2917L264.917 81.651C264.844 81.25 264.677 81.0104 264.51 81.0104C264.182 81.0104 264.161 82.75 264.385 94.0677L264.531 101.62L264.016 101.677C263.667 101.714 263.427 101.896 263.266 102.224C263.083 102.609 262.896 102.74 262.474 102.74H261.943V104.188C261.943 104.995 261.87 105.708 261.76 105.766C261.63 105.839 261.578 104.443 261.578 101.693C261.578 99.401 261.521 93.7344 261.448 89.1146L261.339 80.7135L263.156 80.7708L264.969 80.8281L265.005 81.5573Z" fill="#6B725C"/>
</g>
<path d="M174.474 105.38V111.724H177.224V102.078L176.016 100.63C175.354 99.8229 174.734 99.125 174.641 99.1094C174.547 99.0729 174.474 101.729 174.474 105.38Z" fill="#6B725C"/>
<path d="M176.729 66.1927C177.005 66.2657 177.042 66.5209 177.042 68.0834C177.042 69.6407 177.005 69.8959 176.729 69.9688C176.547 70.0261 176.969 70.0625 177.646 70.0782C179.63 70.1146 180.708 69.4375 180.708 68.1719C180.708 67.4584 180.104 66.4688 179.5 66.25C179.245 66.1355 178.438 66.0834 177.724 66.0834C176.99 66.099 176.547 66.1355 176.729 66.1927ZM179.063 66.5782C179.609 67.0157 179.792 68.6146 179.37 69.2552C179.005 69.8073 178.344 70.0417 178.125 69.7136C177.943 69.4219 177.906 66.5417 178.089 66.375C178.292 66.1563 178.641 66.2292 179.063 66.5782Z" fill="#6B725C"/>
<path d="M181.26 66.1927C181.406 66.25 181.589 66.3958 181.667 66.5052C181.901 66.8698 181.813 69.0729 181.536 69.6042L181.281 70.1146L182.964 70.0625L184.651 70.0052L184.708 69.3646L184.745 68.724L184.469 69.2188C184.193 69.6979 183.297 70.0625 182.911 69.8229C182.672 69.6771 182.672 68.0833 182.911 68.0833C183.005 68.0833 183.188 68.2448 183.313 68.4479C183.682 69.0156 183.828 68.8906 183.828 67.9896C183.828 67.0937 183.682 66.9635 183.313 67.5312C182.948 68.1198 182.729 67.9531 182.729 67.0729C182.729 66.3021 182.766 66.25 183.188 66.25C183.464 66.25 183.844 66.4479 184.104 66.724L184.563 67.2188V66.0625L182.781 66.0833C181.792 66.0833 181.115 66.1354 181.26 66.1927Z" fill="#6B725C"/>
<path d="M188.099 66.2657C188.359 66.4115 188.411 66.724 188.411 68.0834C188.411 69.4375 188.359 69.75 188.099 69.8959C187.865 70.0417 188.245 70.0782 189.531 70.099C191.458 70.099 191.531 70.0625 191.531 69.0365V68.5417L191.161 69.125C190.797 69.7344 190.12 70.0417 189.604 69.8438C189.385 69.7709 189.328 69.3855 189.328 68.0834C189.328 66.5209 189.349 66.4115 189.75 66.25C190.042 66.1355 189.859 66.0834 188.964 66.0834C188.063 66.0834 187.844 66.1198 188.099 66.2657Z" fill="#6B725C"/>
<path d="M192.87 66.4323C191.729 67.1094 191.547 68.3959 192.411 69.3282C193.766 70.7969 196.115 69.9688 196.115 68.0469C196.115 67.4584 195.984 67.1823 195.49 66.6875C194.755 65.9532 193.802 65.8438 192.87 66.4323ZM194.719 66.6511C195.161 67.2761 195.125 69.2188 194.646 69.6407C194.172 70.0782 193.401 69.8802 193.161 69.2188C192.922 68.5938 193.031 66.9063 193.344 66.5417C193.693 66.1198 194.391 66.1771 194.719 66.6511Z" fill="#6B725C"/>
<path d="M197.068 66.4323C196.281 67.1667 196.703 68.0469 198.13 68.6302C198.865 68.9427 198.901 69.6771 198.188 69.8438C197.781 69.9531 197.62 69.8802 197.177 69.349L196.661 68.7396V70.0052L197.672 70.0625C198.844 70.1146 199.417 69.7136 199.417 68.8542C199.417 68.2448 199.047 67.8594 198.078 67.4584C197.505 67.2396 197.38 67.0938 197.432 66.7604C197.526 66.099 198.297 66.0834 198.807 66.7448L199.229 67.2552V66.7084C199.229 66.1771 199.193 66.1563 198.349 66.099C197.672 66.0625 197.396 66.1354 197.068 66.4323Z" fill="#6B725C"/>
<mask id="mask1_137_3" style="mask-type:luminance" maskUnits="userSpaceOnUse" x="3" y="69" width="268" height="60">
<path d="M3.45834 69.3334H271V128.766H3.45834V69.3334Z" fill="white"/>
</mask>
<g mask="url(#mask1_137_3)">
<path d="M7.73439 69.4949C7.66148 69.547 7.29689 69.6563 6.9271 69.7136C6.39585 69.8074 6.21356 69.9167 6.1771 70.2449C6.11981 70.5782 6.27085 70.724 6.94793 71.0157L7.79168 71.3647V73.6355C7.79168 74.8855 7.84377 76.922 7.92189 78.1303L8.03127 80.3699H7.38543C6.76564 80.3699 6.72918 80.3334 6.65627 79.7084C6.59898 79.2865 6.65627 79.0105 6.8021 78.9532C7.02085 78.8803 6.9271 78.4949 6.39585 77.0678C6.32293 76.9011 6.16148 77.1563 5.92189 77.8022C5.64585 78.4792 5.60939 78.8074 5.75523 78.8647C5.8646 78.9011 5.95835 79.2501 5.95835 79.6511V80.3699H3.39064V79.6511C3.39064 79.2501 3.46356 78.9011 3.57293 78.8647C3.75522 78.8074 3.22398 76.8855 3.04168 76.8855C2.98439 76.8855 2.8021 77.323 2.61981 77.8542C2.40106 78.5886 2.38023 78.8438 2.54689 78.9376C2.6771 79.0105 2.72918 79.323 2.69273 79.7084L2.61981 80.3699H0.0885587V79.6511C0.0885587 79.2501 0.182309 78.9011 0.291684 78.8647C0.437517 78.8074 0.401058 78.4584 0.125017 77.7084C-0.239567 76.6459 -0.2604 76.6251 -0.3854 77.1563C-0.458317 77.4532 -0.624983 77.9272 -0.770816 78.224C-0.994775 78.6615 -0.994775 78.7345 -0.734358 78.8282C-0.552066 78.9011 -0.458316 79.1772 -0.458316 79.6511V80.3699H-3.21352V79.7084C-3.21352 79.323 -3.09894 78.9376 -2.93748 78.8282C-2.6979 78.6459 -2.71873 78.4949 -3.06248 77.5626C-3.30207 76.922 -3.50519 76.5886 -3.59894 76.7188C-3.67186 76.849 -3.90623 76.8855 -4.20311 76.8126C-4.64061 76.698 -4.67707 76.7345 -4.67707 77.3438C-4.67707 77.8178 -4.60415 77.9845 -4.36457 77.9845C-4.13019 77.9845 -4.10936 78.0365 -4.27602 78.2032C-4.43748 78.3699 -4.42186 78.4949 -4.21873 78.7188C-3.89061 79.0834 -4.03644 80.1824 -4.42186 80.1824C-4.85936 80.1824 -4.71352 80.8803 -4.25519 80.9532L-3.85415 81.0105V112.089H-4.25519C-4.62498 112.089 -4.67707 112.182 -4.67707 112.823V113.557L1.22398 113.521L7.15106 113.469L7.20314 112.953L7.26043 112.438L9.77085 112.495L12.2813 112.547L12.3386 113.047L12.3959 113.557L25.6354 113.594L38.875 113.651L38.9271 114.422L38.9844 115.208H-4.67707V128.724L276.979 128.797V115.208L178.656 115.172C83.5417 115.115 80.3125 115.099 80.2604 114.787C80.224 114.604 80.2396 114.255 80.2969 114L80.4063 113.557H103.51V112.458H80.4063V94.7084C80.4063 84.9532 80.349 76.6615 80.2969 76.2761L80.1667 75.599H103.88V75.0522C103.88 74.7397 103.75 74.2084 103.62 73.8595L103.344 73.2136H110.479V75.9688H113.505C115.302 75.9688 116.531 75.8959 116.531 75.7813C116.531 75.6928 116.052 75.599 115.484 75.5626L114.422 75.5105L114.365 74.0938C114.313 72.7553 114.328 72.6824 114.734 72.6303C115.339 72.5574 115.359 71.9167 114.786 71.3803C114.438 71.0522 114.328 70.7761 114.328 70.172V69.4011L61.0781 69.3855C31.8125 69.3855 7.79168 69.422 7.73439 69.4949ZM40.375 72.297L40.7604 73.2136H78.3906L78.6459 72.797C78.7917 72.573 78.974 72.172 79.0313 71.8751C79.1042 71.6042 79.2136 71.3803 79.2865 71.3803C79.3438 71.3803 79.5834 71.8022 79.8021 72.297L80.2031 73.2136H103.125L102.688 73.8751C102.427 74.2449 102.281 74.6095 102.339 74.7032C102.391 74.7917 97.6615 74.8647 91.2604 74.8647H80.0781L79.9844 74.4636C79.9115 74.2449 79.9636 73.948 80.0573 73.823C80.2031 73.6563 80.1146 73.474 79.7292 73.1407C79.4531 72.8855 79.1615 72.6667 79.1042 72.6667C78.849 72.6667 78.3542 73.6199 78.5365 73.8022C78.625 73.8959 78.6667 74.172 78.6094 74.4272L78.5365 74.8647H40.6146V74.3178C40.6146 74.0053 40.7084 73.7657 40.7969 73.7657C41.1459 73.7657 40.9636 73.4897 40.3386 73.0886L39.7344 72.7032L39.3698 73.0886C39.1094 73.3803 39.0365 73.6563 39.0938 74.0574C39.1459 74.3907 39.0938 74.7032 38.9844 74.7553C38.8542 74.849 38.7813 75.8386 38.7813 77.6355V80.3699H36.9479V79.7449C36.9479 79.4167 37.0573 79.0313 37.2031 78.9167C37.4063 78.7345 37.3854 78.5522 37.0729 77.672L36.6927 76.6459L36.4531 77.3595C36.3229 77.7657 36.1406 78.224 36.0313 78.4063C35.8854 78.6459 35.9011 78.7553 36.1198 78.8282C36.3073 78.9011 36.3959 79.1772 36.3959 79.672V80.3855L35.0781 80.3334L33.7396 80.2761L33.6823 79.7084C33.6459 79.3751 33.7396 79.047 33.8854 78.9167C34.125 78.7345 34.125 78.6095 33.849 77.8907C33.5 76.9584 33.2813 76.6824 33.2813 77.1407C33.2813 77.323 33.1354 77.7657 32.9688 78.1303C32.75 78.6095 32.7136 78.8074 32.875 78.8647C33.0052 78.9011 33.0938 79.2501 33.0938 79.6511V80.3699H30.5313V79.6355C30.5313 79.2136 30.6198 78.9011 30.7292 78.9011C30.8594 78.9011 30.875 78.7709 30.8021 78.573C30.7292 78.4063 30.5677 77.8907 30.4375 77.4324L30.2188 76.6095L30.0729 77.1563C29.9948 77.4532 29.7969 77.948 29.6511 78.2605C29.4636 78.6251 29.4479 78.8074 29.5938 78.8647C29.7031 78.9011 29.7969 79.2501 29.7969 79.6511V80.3699H27.2292V79.7449C27.2292 79.4167 27.3542 79.0313 27.5052 78.9011C27.6875 78.7553 27.7031 78.6095 27.5781 78.3855C27.4844 78.2032 27.2813 77.7084 27.1563 77.2501C26.9375 76.5365 26.8959 78.8282 26.8802 94.0678C26.8594 103.766 26.9167 111.745 27.0104 111.781C27.1563 111.87 27.1927 108.203 27.2084 91.5001L27.2292 80.9167H29.7604L29.8698 90.8542C29.9219 96.3386 30.0365 103.25 30.0886 106.26C30.2188 112.458 30.0521 112 31.9584 111.781L32.9115 111.667V101.823H30.3438V80.9167H33.0938V88.8595C33.0938 93.2397 33.1511 100.172 33.224 104.26L33.3334 111.724H36.0313V101.823H33.4636V95.9011C33.4636 92.6511 33.5156 87.9584 33.5938 85.448L33.7031 80.9167H36.3959L36.4167 94.4324C36.4323 101.875 36.4531 108.828 36.4688 109.891L36.4896 111.818L37.224 111.87C37.625 111.891 38.0469 111.854 38.1406 111.781C38.25 111.688 38.3021 109.854 38.2656 106.719L38.2136 101.823H36.7656L36.8021 91.4063L36.8542 81.0105L37.8281 80.9532L38.7813 80.9011V112.292L24.2031 112.255L9.60418 112.24L9.66148 110.552L9.71877 108.88L10.5417 108.792L11.3646 108.698L11.5521 81.0105H13.1979L13.3125 91.3699C13.3854 98.5417 13.4948 101.896 13.6198 102.245C13.7708 102.594 13.8438 104.281 13.8438 107.229C13.8438 110.094 13.9167 111.745 14.0261 111.818C14.1354 111.891 14.7604 111.87 15.4011 111.818L16.5938 111.688L16.5573 106.792L16.5 101.912L15.1979 101.859C14.0261 101.802 13.8594 101.766 13.7709 101.401C13.7136 101.182 13.6563 96.4688 13.6563 90.948V80.9011L15.0886 80.9532L16.5 81.0105L16.6302 90.9115C16.6823 96.3595 16.8334 102.135 16.9427 103.75C17.0521 105.359 17.125 107.818 17.1406 109.193V111.724H19.8959L19.8594 106.807L19.8021 101.912L18.4792 101.859L17.1406 101.802L17.1042 93.5157C17.0677 88.948 17.0521 84.2709 17.0521 83.1199V81.0105L17.6927 80.9532C18.0417 80.9167 18.6667 80.9376 19.0886 81.0105L19.8386 81.1199L19.9688 90.6928C20.0781 98.4845 20.3542 111.797 20.4271 111.818C20.4427 111.818 20.7761 111.797 21.1771 111.76L21.9115 111.688L21.875 106.792L21.8177 101.912L21.0313 101.859L20.2604 101.802L20.2969 91.4063L20.3542 81.0105L21.1406 80.9532C22.1146 80.8803 22.0938 80.4792 21.1198 80.4063C20.4636 80.349 20.4427 80.3126 20.4427 79.6355C20.4427 79.2501 20.5365 78.9011 20.6459 78.8647C20.7761 78.8282 20.7188 78.4428 20.4792 77.7292L20.1146 76.6459L19.9844 77.2709C19.9115 77.6147 19.7292 78.0938 19.5834 78.3334C19.3229 78.7345 19.3229 78.7917 19.599 78.9376C19.7813 79.047 19.8959 79.3386 19.8959 79.724V80.3699H17.1406V79.7605C17.1406 79.4324 17.2344 79.0678 17.3438 78.9532C17.474 78.8282 17.4167 78.4428 17.1615 77.6928C16.8125 76.6459 16.7969 76.6251 16.6667 77.1563C16.5938 77.4688 16.4271 77.948 16.2813 78.224C16.0417 78.698 16.0417 78.7709 16.3177 78.974C16.5209 79.1199 16.6094 79.3959 16.5573 79.724C16.5 80.2761 16.5 80.2761 15.1823 80.3334L13.8438 80.3855V79.6511C13.8438 79.2501 13.9323 78.9011 14.0261 78.8647C14.1563 78.8282 14.1198 78.573 13.9323 78.1303C13.7865 77.7449 13.6563 77.2709 13.6563 77.047C13.6563 76.4636 13.474 76.7345 13.0886 77.8386C12.8334 78.5886 12.8177 78.8438 13 78.9376C13.125 79.0105 13.1979 79.323 13.1459 79.7084C13.0729 80.349 13.0365 80.3699 12.3177 80.3699H11.5886L11.6979 77.7449C11.7708 76.3126 11.8229 74.573 11.8229 73.8751V72.6095L12.4323 72.7397C12.9792 72.8699 22.224 74.3178 22.4063 74.3178C22.4427 74.3178 22.4584 75.8542 22.4219 77.7449C22.3854 79.6511 22.3854 88.1042 22.4219 96.5574L22.4584 111.927L24.4427 111.87L26.4011 111.818L26.4584 92.5261L26.4948 73.2136L32.8594 73.1772L39.2188 73.1251L39.4948 72.2449C39.6406 71.7657 39.8073 71.3803 39.8802 71.3803C39.9375 71.3803 40.1719 71.7865 40.375 72.297ZM78.2813 75.5261C78.5365 75.6355 78.5729 77.5417 78.5729 95.422C78.5729 108.495 78.5156 115.208 78.3906 115.208C78.2813 115.208 78.2031 117.5 78.2031 121.719V128.229H41.349V121.807C41.349 116.031 41.3125 115.375 41.0521 115.266C40.7813 115.151 40.7604 114.547 40.8698 108.589C40.9636 104.057 40.9427 102.005 40.8177 101.912C40.5417 101.766 40.5417 77.6147 40.7969 77.6147C40.9063 77.6147 40.9792 77.1199 40.9792 76.5157V75.4167H59.4844C69.6615 75.4167 78.1146 75.474 78.2813 75.5261ZM-0.458316 89.7553C-0.458316 98.797 -0.296858 111.287 -0.187483 111.651C-0.151024 111.797 0.307309 111.833 1.13543 111.797L2.38023 111.745V101.912L1.13543 101.859L-0.0937328 101.802L-0.0572748 91.4063L1.71661e-05 81.0105H2.75002L2.8021 96.4845L2.83856 111.943L3.26043 111.833C3.47918 111.781 4.12502 111.724 4.67189 111.724H5.69793L5.68231 106.807V101.912L4.43752 101.859L3.20835 101.802L3.24481 91.4063L3.29689 81.0105L4.63543 80.9532L5.95835 80.9011V88.672C5.95835 92.948 6.01043 99.9324 6.08335 104.188L6.19793 111.927L6.67189 111.87C7.15106 111.818 7.15106 111.797 7.1146 110.292C7.09377 109.469 7.16668 108.792 7.26043 108.792C7.34898 108.792 7.42189 107.323 7.42189 105.396V101.99L6.83856 101.875L6.27085 101.766L6.38023 98.0834C6.45314 96.047 6.50523 91.3542 6.50523 87.6459V80.9011L7.29689 80.9532L8.06773 81.0105L8.1771 84.6772C8.25002 86.6928 8.3021 92.948 8.32293 98.5574L8.33856 108.771L8.85418 108.828C9.34898 108.88 9.34898 108.88 9.40627 110.458L9.45835 112.037L7.93752 112.146C7.09377 112.219 4.21356 112.276 1.52085 112.276H-3.39582L-3.35936 109.927L-3.3229 107.599L-3.22915 109.708L-3.11977 111.818L-1.96352 111.87L-0.828108 111.927L-0.864566 106.922L-0.91665 101.912H-3.11977L-3.22915 104.021C-3.28644 105.177 -3.33852 100.521 -3.35936 93.6459C-3.37498 86.7865 -3.33852 81.099 -3.26561 81.047C-3.21352 80.974 -2.55207 80.9167 -1.79686 80.9167H-0.458316V89.7553Z" fill="#6B725C"/>
</g>
<path d="M12.1927 104.536C12.1927 106.042 12.2448 108.26 12.3021 109.49C12.4323 111.615 12.4479 111.688 12.8698 111.781L13.2917 111.854L13.2552 106.885L13.1979 101.911L12.7031 101.859L12.1927 101.802V104.536Z" fill="#6B725C"/>
<path d="M27.5417 101.948C27.4688 102.005 27.4115 104.245 27.4115 106.901V111.724H29.6146V101.823H28.6406C28.0886 101.823 27.5938 101.875 27.5417 101.948Z" fill="#6B725C"/>
<path d="M50.6979 92.7813V108.974H53.0834V76.7344L51.8906 76.6615L50.6979 76.6094V92.7813Z" fill="#6B725C"/>
<path d="M61.9427 76.6458L60.9688 76.7187V96.6874H61.9063C62.7865 96.6874 62.8386 96.7083 62.7292 97.0885C62.6719 97.3281 62.6198 97.7708 62.6198 98.0989C62.6198 98.4843 62.5469 98.6666 62.4011 98.6302C62.2709 98.5781 61.8855 98.5052 61.573 98.4479C61.0052 98.3541 60.9688 98.3749 60.9688 98.8906C60.9688 99.3854 61.0261 99.4374 61.5209 99.4374H62.0886L62.0313 100.573L61.9792 101.713L61.3334 101.729C60.8021 101.729 60.6771 101.802 60.6407 102.187C60.6042 102.427 60.4375 102.74 60.2709 102.87C59.9948 103.068 59.9948 103.104 60.3802 103.213C60.7865 103.328 60.7865 103.401 60.823 106.203C60.8386 107.781 60.875 108.682 60.9115 108.187C60.9688 107.578 61.0625 107.323 61.2605 107.323C61.448 107.323 61.5209 107.542 61.5209 108.146V108.974H63.1667V92.7447C63.1667 83.8124 63.1146 76.5364 63.0417 76.552C62.948 76.5729 62.4532 76.6093 61.9427 76.6458Z" fill="#6B725C"/>
<path d="M64.875 76.6458L63.9011 76.7187V108.974H66.1042V92.7447C66.1042 83.8124 66.0469 76.5364 65.974 76.552C65.8854 76.5729 65.3906 76.6093 64.875 76.6458Z" fill="#6B725C"/>
<path d="M67.9011 76.6615L66.8386 76.7188V81.6146C66.8177 84.3125 66.7813 91.5521 66.7292 97.7344C66.6875 103.896 66.7083 108.974 66.7813 109.01C66.8542 109.047 67.4427 109.047 68.0833 109.01L69.2188 108.938V92.8386C69.2188 83.9792 69.1667 76.698 69.0938 76.6615C69 76.625 68.4688 76.625 67.9011 76.6615Z" fill="#6B725C"/>
<path d="M73.6771 76.6615L72.7031 76.7188V92.8178C72.7031 101.677 72.7396 108.953 72.776 108.99C72.8125 109.026 73.3073 109.026 73.8802 109.01L74.9062 108.938V92.8386C74.9062 83.9636 74.849 76.698 74.776 76.6615C74.6875 76.625 74.1875 76.625 73.6771 76.6615Z" fill="#6B725C"/>
<path d="M76.4271 76.6458L75.4531 76.7187V108.974H77.474V92.7447C77.474 83.8124 77.4531 76.5364 77.4375 76.552C77.401 76.5729 76.9427 76.6093 76.4271 76.6458Z" fill="#6B725C"/>
<path d="M41.8958 77.1562C41.8958 77.4895 41.9896 77.6145 42.2656 77.6145C42.6302 77.6145 42.6302 77.7448 42.6302 89.8125C42.6302 101.875 42.6302 102.005 42.2656 102.005C41.9167 102.005 41.8958 102.135 41.8958 105.583V109.156H42.4323C42.724 109.156 43.2188 109.104 43.5313 109.047L44.099 108.937V102.005H43L43.0365 89.8489L43.0886 77.7083L43.6042 77.6562C43.9896 77.5989 44.099 77.4895 44.099 77.1406C44.099 76.7187 44.0417 76.6979 43 76.6979C41.9531 76.6979 41.8958 76.7187 41.8958 77.1562Z" fill="#6B725C"/>
<path d="M44.7969 77.1562C44.849 77.4895 44.9948 77.6145 45.3073 77.6145H45.75V102.005H44.6511L44.6875 105.526L44.7396 109.068L45.1823 109.12C45.4167 109.156 45.9896 109.141 46.4271 109.068L47.2136 108.953V102.005H46.1146V77.6354L46.6302 77.5781C46.9792 77.5416 47.1406 77.4166 47.1771 77.1041C47.2344 76.7187 47.1771 76.6979 45.9688 76.6979C44.724 76.6979 44.7031 76.6979 44.7969 77.1562Z" fill="#6B725C"/>
<path d="M47.7656 77.1562C47.7656 77.5416 47.8594 77.6145 48.3177 77.6145H48.8646V89.5156C48.8646 96.0625 48.9219 101.547 48.974 101.714C49.0677 101.948 48.9583 102.005 48.4271 102.005H47.7656V109.104L48.5521 109.068C50.349 108.99 50.151 109.432 50.151 105.49V102.005H49.2344V77.6145H49.6927C50.0573 77.6145 50.151 77.526 50.151 77.1562C50.151 76.7187 50.1146 76.6979 48.9583 76.6979C47.8021 76.6979 47.7656 76.7187 47.7656 77.1562Z" fill="#6B725C"/>
<path d="M53.6719 92.875C53.724 108.865 53.724 109.026 54.0938 109.083C54.2917 109.12 54.8073 109.104 55.25 109.047L56.0156 108.937V76.6979H53.6354L53.6719 92.875Z" fill="#6B725C"/>
<path d="M56.5677 92.8385V108.974H58.7708V76.6979H56.5677V92.8385Z" fill="#6B725C"/>
<path d="M69.9167 84.5312C69.8802 88.8593 69.8802 96.1198 69.9167 100.667L69.974 108.974H72.1563V76.6979H69.974L69.9167 84.5312Z" fill="#6B725C"/>
<path d="M60.9688 97.5521C60.9688 97.8438 61.0781 97.8803 61.6094 97.823C62.1979 97.7501 62.5469 97.4219 62.0312 97.4219C61.9062 97.4219 61.6094 97.3646 61.3906 97.3126C61.0625 97.2188 60.9688 97.2761 60.9688 97.5521Z" fill="#6B725C"/>
<path d="M60.7865 100.151C60.7865 100.375 60.8958 100.537 61.0781 100.537C61.2448 100.537 61.3333 100.412 61.2969 100.229C61.2083 99.7709 60.7865 99.7136 60.7865 100.151Z" fill="#6B725C"/>
<path d="M61.4271 101.089C61.4844 101.182 61.5729 101.271 61.6302 101.271C61.6667 101.271 61.7031 101.182 61.7031 101.089C61.7031 100.979 61.6094 100.906 61.5 100.906C61.4115 100.906 61.3698 100.979 61.4271 101.089Z" fill="#6B725C"/>
<path d="M41.8073 110.036C41.6771 110.167 41.6979 125.938 41.8229 126.745C41.8959 127.146 42.0104 127.438 42.099 127.385C42.3177 127.255 42.3021 124.984 42.0834 124.562C41.9531 124.323 41.9531 124.177 42.099 124.083C42.2448 124.01 42.2656 123.036 42.1719 120.781C42.0834 118.474 42.099 117.594 42.2448 117.594C42.3906 117.594 42.4479 116.51 42.4479 113.927C42.4479 109.083 42.7761 109.047 42.8906 113.87C42.9427 115.87 43.0365 118.271 43.0886 119.188C43.1615 120.344 43.1459 120.891 43.0156 120.891C42.8906 120.891 42.8125 121.464 42.8125 122.469V124.026L43.4219 123.974L44.0052 123.917L44.0625 122.396C44.1146 120.984 44.099 120.891 43.7344 120.891C43.3854 120.891 43.3646 120.781 43.3646 119.318C43.3646 117.906 43.4011 117.74 43.7344 117.646C44.0781 117.557 44.099 117.391 44.099 113.724V109.891L43 109.927C42.3906 109.948 41.8594 110 41.8073 110.036Z" fill="#6B725C"/>
<path d="M44.375 110.073C44.3021 110.182 44.3177 111.927 44.3906 113.927C44.4844 116.839 44.5729 117.594 44.7604 117.594C44.9584 117.594 45.0156 117.979 45.0156 119.245C45.0156 120.781 44.9948 120.891 44.6511 120.891C44.2813 120.891 44.2656 120.984 44.3177 122.38L44.375 123.88L44.9792 123.938L45.6042 124.01L45.4896 122.323C45.4375 121.385 45.3281 120.01 45.2709 119.26C45.1979 118.401 45.2344 117.849 45.3646 117.719C45.4896 117.594 45.5677 116.307 45.5834 114.125C45.5834 112.24 45.6563 110.552 45.7292 110.349C45.9323 109.854 46.1875 114.714 46.0625 116.344C45.9688 117.354 46.0052 117.594 46.224 117.594C46.4271 117.594 46.4844 117.922 46.4844 119.245C46.4844 120.214 46.4115 120.891 46.2969 120.891C46.1875 120.891 46.1146 121.516 46.1146 122.417V123.938L46.6302 123.901C47.125 123.88 47.125 123.88 47.1771 122.396C47.2136 121.443 47.1615 120.891 47.0313 120.891C46.9219 120.891 46.849 120.271 46.849 119.245C46.849 118.271 46.9219 117.594 47.0313 117.594C47.1406 117.594 47.2136 116.182 47.2136 113.74V109.891H45.8594C45.1094 109.891 44.4271 109.984 44.375 110.073Z" fill="#6B725C"/>
<path d="M47.5833 113.724C47.5833 117.042 47.6198 117.594 47.8594 117.594C48.0781 117.594 48.1302 117.906 48.1302 119.245C48.1302 120.583 48.0781 120.891 47.8594 120.891C47.6354 120.891 47.5833 121.167 47.5833 122.344V123.792L48.2083 123.865C48.8125 123.937 48.8281 123.917 48.9375 123.109C49.1615 121.552 49.0886 120.948 48.6823 120.839C48.3542 120.745 48.3177 120.583 48.3177 119.245C48.3177 117.906 48.3542 117.74 48.6823 117.646C49.0313 117.557 49.0521 117.391 49.0521 113.812V110.073H48.6094C48.3698 110.073 48.0417 110.021 47.875 109.964C47.6198 109.87 47.5833 110.276 47.5833 113.724Z" fill="#6B725C"/>
<path d="M49.8386 110.036C49.4167 110.094 49.4167 110.109 49.4167 113.833C49.4167 115.885 49.4896 117.594 49.5834 117.63C49.6563 117.646 49.7813 118.401 49.8542 119.281C49.9688 120.672 49.9479 120.891 49.7084 120.891C49.4688 120.891 49.4167 121.167 49.4167 122.432V123.953L49.8906 123.865L50.3698 123.771L50.2396 120.693C50.1511 118.453 50.1667 117.594 50.3125 117.594C50.5521 117.594 50.6094 110.146 50.3906 110.036C50.2969 110 50.0573 110 49.8386 110.036Z" fill="#6B725C"/>
<path d="M50.7917 110.073C50.625 110.349 50.9011 117.594 51.0677 117.594C51.1563 117.594 51.2709 118.271 51.3438 119.094C51.4688 120.432 51.4323 120.62 51.1406 120.839C50.8646 121.042 50.7917 121.333 50.7917 122.453V123.828H52.1667V122.38C52.1667 121.26 52.1094 120.911 51.8906 120.818C51.4896 120.672 51.4896 117.594 51.8906 117.594C52.1302 117.594 52.1667 117.099 52.1302 113.776L52.0729 109.984L51.4896 109.927C51.1771 109.891 50.8646 109.964 50.7917 110.073Z" fill="#6B725C"/>
<path d="M52.4792 110.021C52.2969 110.203 52.3333 117.557 52.5156 117.63C52.5886 117.646 52.7188 118.38 52.7552 119.208C52.8281 120.38 52.7917 120.766 52.5886 120.839C52.4219 120.911 52.349 121.333 52.349 122.38V123.828H52.9011C53.3594 123.828 53.4479 123.755 53.5625 123.167C53.7083 122.359 53.5417 121.021 53.2865 120.927C53.1563 120.891 53.0833 120.214 53.0833 119.224C53.0833 117.906 53.1406 117.594 53.3594 117.594C53.599 117.594 53.6354 117.042 53.6354 113.74V109.891H53.1198C52.8281 109.891 52.5313 109.948 52.4792 110.021Z" fill="#6B725C"/>
<path d="M61.1146 110.021C60.8229 110.094 60.7865 110.443 60.7865 113.849C60.7865 116.219 60.8594 117.594 60.9688 117.594C61.0781 117.594 61.1511 118.271 61.1511 119.245C61.1511 120.214 61.0781 120.891 60.9688 120.891C60.8594 120.891 60.7865 121.5 60.7865 122.359V123.828H61.3177C61.8125 123.828 61.849 123.771 61.9583 122.854C62.1406 121.333 62.1042 120.891 61.7917 120.891C61.5729 120.891 61.5208 120.583 61.5208 119.245C61.5208 117.906 61.5729 117.594 61.7917 117.594C62.0313 117.594 62.0677 117.062 62.0677 113.849C62.0677 110.604 62.0313 110.094 61.7761 110C61.6094 109.948 61.4844 109.906 61.4636 109.906C61.4479 109.927 61.2813 109.964 61.1146 110.021Z" fill="#6B725C"/>
<path d="M62.4375 113.724C62.4375 116.948 62.474 117.573 62.7083 117.667C62.9323 117.74 62.9844 118.089 62.9844 119.208C62.9844 120.469 62.9323 120.693 62.6198 120.911C62.2708 121.151 62.25 121.276 62.3646 122.505L62.4896 123.844L63.0573 123.792L63.6302 123.734L63.6823 122.307C63.7188 121.13 63.6823 120.891 63.4427 120.891C63.224 120.891 63.1667 120.599 63.1667 119.245C63.1667 117.906 63.224 117.594 63.4427 117.594C63.6823 117.594 63.7188 117.063 63.7188 113.849C63.7188 109.854 63.7396 109.891 62.7865 109.891C62.4531 109.891 62.4375 110.073 62.4375 113.724Z" fill="#6B725C"/>
<path d="M64.5469 110.057L63.9948 110.167L63.974 113.87C63.9583 117.333 63.974 117.573 64.2865 117.646C64.599 117.74 64.6354 117.922 64.6354 119.208C64.6354 120.432 64.5833 120.708 64.2865 120.911C63.974 121.13 63.9375 121.333 64.0313 122.505L64.1406 123.844L64.7083 123.792L65.276 123.734L65.3333 122.38C65.3698 121.297 65.3333 120.984 65.0938 120.854C64.6927 120.62 64.6927 117.812 65.0938 117.667C65.3333 117.573 65.3698 116.969 65.3698 113.833C65.3698 111.781 65.3125 110.073 65.2396 110.036C65.151 110 64.8542 110 64.5469 110.057Z" fill="#6B725C"/>
<path d="M65.8646 110.021C65.7917 110.073 65.7344 111.818 65.7344 113.87C65.7344 117.062 65.7708 117.594 66.0104 117.594C66.2292 117.594 66.2865 117.906 66.2865 119.245C66.2865 120.583 66.2292 120.891 66.0104 120.891C65.7917 120.891 65.7344 121.188 65.7344 122.359V123.828H67.0208V122.359C67.0208 121.188 66.9635 120.891 66.7448 120.891C66.526 120.891 66.4688 120.599 66.4688 119.333C66.4688 118.104 66.526 117.74 66.7448 117.667C66.9844 117.573 67.0208 116.948 67.0208 113.724V109.891H66.5052C66.2135 109.891 65.9219 109.948 65.8646 110.021Z" fill="#6B725C"/>
<path d="M67.5156 110C67.4427 110.073 67.3854 111.818 67.3854 113.87C67.3854 117.063 67.4219 117.594 67.6615 117.594C67.8802 117.594 67.9375 117.906 67.9375 119.245C67.9375 120.599 67.8802 120.891 67.6615 120.891C67.4219 120.891 67.3854 121.13 67.4219 122.307L67.4792 123.734L68.0834 123.792L68.6719 123.844V122.38C68.6719 121.516 68.599 120.891 68.4896 120.891C68.2656 120.891 68.2292 117.646 68.4688 117.557C68.5625 117.521 68.6511 115.813 68.6875 113.74L68.7604 109.984L68.2136 109.927C67.9011 109.891 67.5886 109.927 67.5156 110Z" fill="#6B725C"/>
<path d="M69.1823 110.021C69.1667 110.109 69.1459 111.833 69.1459 113.87C69.1302 117.297 69.1459 117.594 69.4584 117.594C69.7344 117.594 69.7709 117.792 69.7709 119.245C69.7709 120.781 69.75 120.891 69.4063 120.891C69.0573 120.891 69.0209 120.984 69.0729 122.307L69.1302 123.734L69.7344 123.792L70.3229 123.844V122.38C70.3229 121.573 70.2448 120.854 70.1354 120.802C70.0469 120.745 69.9531 119.995 69.9531 119.13C69.9531 117.885 70.0104 117.594 70.2292 117.594C70.4688 117.594 70.5052 117.062 70.5052 113.849C70.5052 110.604 70.4688 110.094 70.2084 110C69.8073 109.854 69.2188 109.854 69.1823 110.021Z" fill="#6B725C"/>
<path d="M72.4688 110C72.3906 110.073 72.3386 111.818 72.3386 113.87C72.3386 117.464 72.3542 117.594 72.7031 117.594C73.0521 117.594 73.0729 117.719 73.0729 119.245C73.0729 120.766 73.0521 120.891 72.7031 120.891C72.375 120.891 72.3386 121.021 72.3386 122.266V123.646H73.8073V122.287C73.8073 121.26 73.7292 120.912 73.5313 120.818C73.3073 120.745 73.2552 120.38 73.2552 119.245C73.2552 118.104 73.3073 117.74 73.5313 117.667C73.7656 117.573 73.8073 116.969 73.8073 113.813C73.8073 110.953 73.75 110.073 73.5834 110.073C73.4584 110.073 73.1823 110.021 72.9792 109.964C72.7761 109.906 72.5417 109.927 72.4688 110Z" fill="#6B725C"/>
<path d="M54 113.833C54 116.219 54.0729 117.594 54.1823 117.594C54.2917 117.594 54.3698 118.271 54.3698 119.245C54.3698 120.214 54.2917 120.891 54.1823 120.891C54.0729 120.891 54 121.5 54 122.359V123.828H55.2865V122.38C55.2865 121.094 55.25 120.927 54.9167 120.839C54.5885 120.745 54.5521 120.583 54.5521 119.245C54.5521 117.906 54.5885 117.74 54.9167 117.646C55.2656 117.557 55.2865 117.391 55.2865 113.812V110.073H54V113.833Z" fill="#6B725C"/>
<path d="M55.6511 113.833C55.6511 117.062 55.6875 117.594 55.9271 117.594C56.1459 117.594 56.2031 117.906 56.2031 119.245C56.2031 120.583 56.1459 120.891 55.9271 120.891C55.7084 120.891 55.6511 121.187 55.6511 122.359V123.828H57.1198V122.359C57.1198 121.187 57.0625 120.891 56.8438 120.891C56.625 120.891 56.5677 120.583 56.5677 119.245C56.5677 117.906 56.625 117.594 56.8438 117.594C57.0834 117.594 57.1198 117.062 57.1198 113.833V110.073H55.6511V113.833Z" fill="#6B725C"/>
<path d="M57.4844 113.812C57.4844 116.125 57.5573 117.609 57.6667 117.682C57.776 117.74 57.849 118.49 57.849 119.354C57.849 120.25 57.776 120.891 57.6667 120.891C57.5573 120.891 57.4844 121.5 57.4844 122.359V123.828H58.7708V122.359C58.7708 121.021 58.7292 120.891 58.401 120.891C58.0521 120.891 58.0365 120.766 58.0365 119.245C58.0365 117.609 58.0365 117.594 58.4948 117.594C58.9531 117.594 58.9531 117.573 58.9531 116.068C58.9531 115.229 58.8958 113.521 58.8229 112.312L58.7135 110.073H57.4844V113.812Z" fill="#6B725C"/>
<path d="M70.6875 113.266C70.6875 116.729 70.7813 117.594 71.1667 117.594C71.3646 117.594 71.4219 117.958 71.4583 119.094L71.4948 120.62L71.5469 119.208C71.6042 118.271 71.7135 117.74 71.8802 117.594C72.099 117.406 72.1562 116.693 72.1562 113.724V110.073H70.6875V113.266Z" fill="#6B725C"/>
<path d="M74.1719 113.812C74.1719 116.474 74.224 117.573 74.3906 117.63C74.6458 117.719 74.6094 120.766 74.3385 120.854C74.2448 120.891 74.1719 121.536 74.1719 122.286V123.646H75.4531V122.266C75.4531 121.167 75.401 120.891 75.1823 120.891C74.9583 120.891 74.9062 120.583 74.9062 119.245C74.9062 117.906 74.9583 117.594 75.1823 117.594C75.4167 117.594 75.4531 117.062 75.4531 113.833V110.073H74.1719V113.812Z" fill="#6B725C"/>
<path d="M75.6406 113.812C75.6406 116.401 75.6927 117.573 75.8385 117.63C75.9479 117.667 76.3177 117.667 76.6667 117.63L77.2865 117.557V110.073H75.6406V113.812Z" fill="#6B725C"/>
<path d="M71.1094 120.839C70.724 120.911 70.6875 121.021 70.6875 122.286V123.646H71.9896L71.9323 122.229C71.8802 120.802 71.8229 120.708 71.1094 120.839Z" fill="#6B725C"/>
<path d="M75.875 120.839C75.7135 120.891 75.6406 121.37 75.6406 122.286V123.646H77.2865V122.266C77.2865 121.042 77.25 120.891 76.9427 120.891C76.7396 120.891 76.4844 120.854 76.3333 120.818C76.2083 120.766 75.9844 120.781 75.875 120.839Z" fill="#6B725C"/>
<path d="M74.5938 124.505C74.2083 124.578 74.1719 124.688 74.1719 125.953V127.328L74.776 127.276C75.3437 127.219 75.3646 127.203 75.4167 126.229C75.474 125.167 75.3437 124.359 75.125 124.396C75.0521 124.411 74.8125 124.469 74.5938 124.505Z" fill="#6B725C"/>
<path d="M76.3177 124.526L75.6198 124.578L75.6771 125.901L75.7292 127.219L76.5209 127.276L77.2865 127.328V125.953C77.2865 125.203 77.2344 124.562 77.1615 124.526C77.0677 124.484 76.7031 124.484 76.3177 124.526Z" fill="#6B725C"/>
<path d="M43.3281 124.708C42.8125 124.76 42.8125 124.797 42.8125 126.047V127.313H44.099V126.047C44.099 125.328 44.0417 124.745 43.9688 124.708C43.8802 124.672 43.6042 124.672 43.3281 124.708Z" fill="#6B725C"/>
<path d="M52.6615 124.688C52.3855 124.76 52.349 124.943 52.3855 125.99C52.4427 127.182 52.4584 127.219 52.9375 127.276C53.5417 127.349 53.6875 126.943 53.599 125.552C53.5417 124.635 53.3959 124.484 52.6615 124.688Z" fill="#6B725C"/>
<path d="M56.2396 124.687L55.6302 124.76L55.7448 127.219L56.4375 127.276L57.1198 127.328V125.953C57.1198 125.182 57.0625 124.578 56.9896 124.599C56.8958 124.599 56.5677 124.651 56.2396 124.687Z" fill="#6B725C"/>
<path d="M57.6146 124.672C57.5417 124.745 57.4844 125.365 57.4844 126.063V127.313H58.7708V126.12C58.7708 125.458 58.7865 124.87 58.8229 124.781C58.8802 124.615 57.776 124.505 57.6146 124.672Z" fill="#6B725C"/>
<path d="M60.9115 124.672C60.8386 124.745 60.7865 125.365 60.7865 126.063V127.328L61.3906 127.276L61.9792 127.219V125.938C61.9792 124.708 61.9583 124.651 61.5208 124.599C61.2604 124.563 60.9896 124.599 60.9115 124.672Z" fill="#6B725C"/>
<path d="M62.4375 125.937V127.328L63.0417 127.276L63.6302 127.219V124.651L63.0417 124.599L62.4375 124.542V125.937Z" fill="#6B725C"/>
<path d="M64.0886 125.953V127.328L64.6927 127.276L65.2761 127.219L65.3334 125.88L65.3906 124.562H64.0886V125.953Z" fill="#6B725C"/>
<path d="M65.7344 125.938V127.312H67.0208V124.562H65.7344V125.938Z" fill="#6B725C"/>
<path d="M67.4219 125.88L67.4792 127.219L68.0834 127.276L68.6719 127.328V124.562H67.3698L67.4219 125.88Z" fill="#6B725C"/>
<path d="M69.1302 125.568C68.9636 126.906 69.1094 127.312 69.7709 127.312C70.375 127.312 70.4479 127.089 70.3594 125.604C70.2865 124.599 70.2656 124.562 69.7709 124.562C69.2917 124.562 69.2552 124.615 69.1302 125.568Z" fill="#6B725C"/>
<path d="M70.724 125.88L70.7813 127.219H71.4219C71.9688 127.219 72.0625 127.167 72.0469 126.797C72.0469 126.578 72.0261 125.974 72.0052 125.479L71.9688 124.562H70.6667L70.724 125.88Z" fill="#6B725C"/>
<path d="M72.375 125.88L72.4271 127.219H73.7136L73.7657 125.88L73.823 124.562H72.3177L72.375 125.88Z" fill="#6B725C"/>
<path d="M44.3177 125.974C44.375 127.203 44.3906 127.219 44.9062 127.276C45.6771 127.365 45.8021 127.125 45.6562 125.865L45.5312 124.745H44.2656L44.3177 125.974Z" fill="#6B725C"/>
<path d="M46.1146 126.026V127.312H47.2136V124.745H46.1146V126.026Z" fill="#6B725C"/>
<path d="M47.5833 126.026V127.312H49.0521V124.745H47.5833V126.026Z" fill="#6B725C"/>
<path d="M49.4167 126.026V127.328L49.9323 127.276C50.4063 127.219 50.4271 127.182 50.4271 126.026C50.4271 124.87 50.4063 124.833 49.9323 124.781L49.4167 124.724V126.026Z" fill="#6B725C"/>
<path d="M50.8854 126.026V127.312H52.1667V124.745H50.8854V126.026Z" fill="#6B725C"/>
<path d="M54 126.026V127.312H55.2865V124.745H54V126.026Z" fill="#6B725C"/>
<path d="M222.521 72.8854L222.063 73.0886L222.484 73.1771C222.995 73.2552 223.438 73.1042 223.438 72.849C223.438 72.6094 223.104 72.6302 222.521 72.8854Z" fill="#6B725C"/>
<path d="M155.224 74.1511V74.7032L155.646 74.2084C156.359 73.3802 156.599 73.6927 156.651 75.474C156.708 76.8855 156.672 77.0469 156.323 77.3073C155.953 77.5625 156.01 77.5782 157.094 77.5782C158.083 77.599 158.208 77.5625 157.938 77.3594C157.661 77.1563 157.604 76.8282 157.604 75.4323C157.604 74.0938 157.661 73.7657 157.88 73.7657C158.135 73.7657 158.323 73.9115 158.797 74.5938C159.036 74.9375 159.052 74.9219 159.073 74.2605V73.5834H155.224V74.1511Z" fill="#6B725C"/>
<path d="M159.641 73.7136C160.047 73.8021 160.172 74.3177 160.172 75.8177C160.172 76.8855 160.12 77.0834 159.771 77.323C159.385 77.599 159.474 77.6146 161.234 77.6146H163.109V76.2761L162.724 76.7761C162.448 77.1198 162.172 77.25 161.714 77.25C161.089 77.25 161.089 77.25 161.089 76.4271C161.089 75.8021 161.161 75.599 161.365 75.599C161.531 75.599 161.714 75.7813 161.807 76.0052C161.932 76.3698 161.969 76.3334 162.078 75.6563C162.245 74.7188 162.062 74.2813 161.75 74.8855C161.385 75.6355 161.089 75.5261 161.089 74.6094C161.089 73.875 161.146 73.7657 161.474 73.7657C162.026 73.7657 162.557 74.0938 162.74 74.5573C162.87 74.9011 162.906 74.849 162.906 74.2605L162.922 73.5834L161.146 73.599C160.156 73.6198 159.474 73.6563 159.641 73.7136Z" fill="#6B725C"/>
<path d="M164.208 73.948C163.51 74.6459 163.766 75.2709 164.958 75.8959C165.875 76.3542 166.078 76.7761 165.635 77.2136C165.271 77.5782 164.813 77.4532 164.318 76.8282L163.839 76.2396V77.5261L164.849 77.5782C166.021 77.6355 166.589 77.2344 166.589 76.3542C166.589 75.6927 166.333 75.4167 165.328 74.9584C164.74 74.7032 164.573 74.5365 164.609 74.2448C164.719 73.474 165.875 73.7136 166.224 74.5938C166.354 74.8855 166.391 74.8282 166.391 74.3177C166.406 73.6771 166.406 73.6771 165.49 73.6198C164.776 73.5834 164.521 73.6355 164.208 73.948Z" fill="#6B725C"/>
<path d="M167.141 74.1355V74.6667L167.599 74.224C168.443 73.3646 168.609 73.5625 168.609 75.474C168.609 77.0834 168.573 77.2136 168.203 77.3959C167.854 77.5625 167.984 77.599 168.974 77.599C170 77.599 170.13 77.5782 169.854 77.3594C169.578 77.1563 169.526 76.8282 169.526 75.4323C169.526 74.1875 169.578 73.7657 169.766 73.7657C170.073 73.7657 170.531 74.1355 170.771 74.5938C170.953 74.9011 170.974 74.8646 170.99 74.2605V73.5834H167.141V74.1355Z" fill="#6B725C"/>
<path d="M171.781 73.7865C172.036 73.9323 172.094 74.2448 172.094 75.5469C172.094 76.8282 172.036 77.1563 171.781 77.3594C171.505 77.5625 171.615 77.5782 172.531 77.5782C173.286 77.5782 173.521 77.5261 173.302 77.3959C172.844 77.1407 172.865 74.0417 173.339 73.7865C173.578 73.6355 173.396 73.599 172.552 73.599C171.708 73.599 171.526 73.6355 171.781 73.7865Z" fill="#6B725C"/>
<path d="M174.896 73.9323C174.51 74.1719 174.255 74.5365 174.125 74.9583C173.667 76.625 175.172 77.9271 176.969 77.4323C177.724 77.2136 177.776 77.1563 177.776 76.5886C177.776 76.1667 177.87 75.9688 178.104 75.9115C178.271 75.8542 177.922 75.8177 177.318 75.8177C176.714 75.8177 176.365 75.8542 176.547 75.9115C176.953 76.0208 176.969 76.9375 176.568 77.2708C176.328 77.4688 176.198 77.4688 175.797 77.2344C174.823 76.6979 174.859 74.0938 175.849 73.8386C176.547 73.6771 176.917 73.8229 177.354 74.4792L177.776 75.1042V73.6771L176.62 73.6198C175.74 73.5833 175.354 73.6563 174.896 73.9323Z" fill="#6B725C"/>
<path d="M179.484 73.9479C178.677 74.4427 178.344 75.4896 178.766 76.3125C179.115 76.9739 180.052 77.6146 180.672 77.6146C181.849 77.6146 182.911 76.5885 182.911 75.4739C182.911 73.9687 180.896 73.0677 179.484 73.9479ZM181.516 74.1719C181.865 74.6667 181.901 76.1146 181.589 76.7917C181.151 77.7812 179.958 77.4896 179.703 76.3125C179.536 75.5989 179.755 74.3698 180.104 74.0417C180.49 73.6354 181.203 73.7135 181.516 74.1719Z" fill="#6B725C"/>
<path d="M183.771 73.9114C183.078 74.6666 183.443 75.3802 184.927 76.1875C185.552 76.5364 185.604 76.9739 185.073 77.3073C184.688 77.5625 183.958 77.1927 183.682 76.625C183.5 76.276 183.479 76.3125 183.479 76.8854C183.464 77.526 183.464 77.526 184.359 77.5781C185.479 77.6354 186.104 77.2135 186.063 76.3698C186.047 75.5833 185.938 75.4323 185.021 75.0521C184.141 74.6666 183.958 74.4791 184.12 74.0573C184.344 73.5104 185.661 73.8958 185.661 74.5156C185.661 74.6093 185.755 74.6823 185.844 74.6823C185.953 74.6823 186.026 74.4427 186.026 74.1718C186.026 73.6771 185.99 73.6562 185.057 73.6198C184.302 73.5833 183.995 73.6562 183.771 73.9114Z" fill="#6B725C"/>
<path d="M189.365 73.8386C189.547 74.0052 189.641 74.5938 189.661 75.5625C189.677 76.9011 189.661 77.0834 189.292 77.3438C188.906 77.599 188.943 77.6146 189.969 77.6146C192.208 77.6146 193.182 76.974 193.182 75.5261C193.182 74.1719 192.318 73.5834 190.318 73.5834C189.292 73.5834 189.161 73.6198 189.365 73.8386ZM191.422 73.948C191.99 74.1719 192.318 75.2136 192.099 76.1667C191.88 77.1198 191.766 77.25 191.146 77.25H190.615V75.5105C190.615 74.5573 190.688 73.7657 190.776 73.7657C190.87 73.7657 191.161 73.8386 191.422 73.948Z" fill="#6B725C"/>
<path d="M193.969 73.7865C194.224 73.9323 194.281 74.2448 194.281 75.599C194.281 76.9584 194.224 77.2709 193.969 77.4167C193.729 77.5625 194.115 77.599 195.438 77.6146H197.214V76.9219L197.198 76.2396L196.938 76.7188C196.661 77.2344 195.984 77.5052 195.49 77.323C195.198 77.2136 195.068 75.9844 195.307 75.7292C195.49 75.5625 195.932 75.8021 195.932 76.0782C195.932 76.224 196.021 76.3334 196.115 76.3334C196.224 76.3334 196.297 75.9688 196.297 75.5105C196.297 74.7032 196.078 74.4063 195.859 74.9584C195.802 75.1042 195.62 75.2344 195.474 75.2344C195.234 75.2344 195.198 75.0677 195.234 74.5365C195.307 73.6771 195.875 73.5105 196.573 74.2084L197.031 74.6667V73.5834H195.344C194.099 73.599 193.729 73.6355 193.969 73.7865Z" fill="#6B725C"/>
<path d="M201.302 73.7865C201.87 74.1146 201.672 77.4323 201.063 77.4323C200.974 77.4323 200.917 77.2136 200.938 76.9375C200.974 76.5365 200.88 76.4063 200.568 76.3698C200.24 76.3125 200.146 76.3907 200.146 76.7344C200.146 77.3438 200.479 77.6146 201.193 77.6146C202.219 77.6146 202.531 77.1198 202.531 75.4167C202.531 74.224 202.589 73.9323 202.859 73.7865C203.099 73.6355 202.917 73.599 202.073 73.599C201.229 73.599 201.047 73.6355 201.302 73.7865Z" fill="#6B725C"/>
<path d="M203.891 73.875C204.109 74.0938 204.182 74.5365 204.182 75.7084C204.182 77.1407 204.146 77.2709 203.781 77.4323C203.484 77.5417 203.927 77.599 205.193 77.5625L207.026 77.5261L207.078 76.8855L207.151 76.2396L206.75 76.7552C206.458 77.1198 206.198 77.25 205.724 77.25C205.099 77.25 205.099 77.25 205.099 76.4271C205.099 75.5105 205.302 75.3802 205.724 76.0052L206.016 76.4063V75.9688C206.016 75.7084 206.073 75.323 206.125 75.0886C206.271 74.5938 205.906 74.5365 205.74 75.0521C205.521 75.7657 205.099 75.474 205.099 74.5938C205.099 73.9323 205.156 73.7657 205.427 73.7657C206.073 73.7657 206.531 73.9844 206.714 74.3698C206.896 74.7396 206.917 74.7188 206.917 74.1719L206.932 73.5834H205.266C203.76 73.5834 203.63 73.599 203.891 73.875Z" fill="#6B725C"/>
<path d="M207.906 73.7865C208.161 73.9323 208.219 74.2448 208.219 75.599C208.219 76.9584 208.161 77.2709 207.906 77.4167C207.646 77.5625 207.833 77.599 208.656 77.6146C209.594 77.6146 209.703 77.5782 209.427 77.3802C209.188 77.2136 209.115 76.9584 209.172 76.4271C209.224 75.7292 209.26 75.6927 209.922 75.6355L210.599 75.5834V76.4063C210.599 76.9948 210.51 77.2865 210.286 77.4167C210.031 77.5625 210.214 77.599 211.057 77.599C211.901 77.599 212.083 77.5625 211.849 77.4167C211.573 77.2709 211.516 76.9584 211.516 75.599C211.516 74.2448 211.573 73.9323 211.849 73.7865C212.083 73.6355 211.901 73.599 211.057 73.599C210.214 73.599 210.031 73.6355 210.286 73.7865C210.49 73.9115 210.599 74.1875 210.599 74.6823C210.599 75.4167 210.599 75.4167 209.865 75.4167C209.135 75.4167 209.135 75.4167 209.135 74.6823C209.135 74.1875 209.245 73.9115 209.464 73.7865C209.703 73.6355 209.521 73.599 208.677 73.599C207.833 73.599 207.646 73.6355 207.906 73.7865Z" fill="#6B725C"/>
<path d="M213.422 73.9323C211.792 74.9218 212.505 77.3593 214.49 77.5625C216.651 77.7812 217.677 75.052 215.844 73.9323C215.109 73.4895 214.141 73.4895 213.422 73.9323ZM215.37 74.0416C215.698 74.4427 215.807 75.8177 215.568 76.5729C215.182 77.7291 214.047 77.7083 213.698 76.5156C213.422 75.6354 213.625 74.2083 214.047 73.9479C214.505 73.6927 215.109 73.7291 215.37 74.0416Z" fill="#6B725C"/>
<path d="M217.146 74.0209C217.349 74.2605 217.771 75.1771 218.12 76.0417C218.448 76.9011 218.776 77.6146 218.854 77.6146C218.943 77.6146 219.313 76.849 219.677 75.9115C220.042 74.9948 220.484 74.0782 220.63 73.8959C220.906 73.599 220.885 73.5834 220.208 73.5834C219.583 73.599 219.531 73.6198 219.807 73.8386C220.12 74.0573 220.099 74.1355 219.698 75.1615L219.255 76.2396L218.776 75.2344C218.208 74.0417 218.193 73.823 218.63 73.7136C218.797 73.6563 218.469 73.6198 217.88 73.599L216.818 73.5834L217.146 74.0209Z" fill="#6B725C"/>
<path d="M222.078 74.151C221.932 74.5 221.604 75.3072 221.344 75.9479C221.089 76.5885 220.724 77.2343 220.557 77.3593C220.266 77.5781 220.302 77.5989 220.943 77.6145C221.531 77.6145 221.62 77.5781 221.417 77.3437C221.307 77.1927 221.255 76.9218 221.328 76.6979C221.51 76.151 222.646 76.1666 222.87 76.7343C222.995 77.0468 222.958 77.2135 222.74 77.3802C222.5 77.5781 222.63 77.6145 223.526 77.6145C224.536 77.6145 224.573 77.5989 224.297 77.2864C224.151 77.1197 223.714 76.276 223.344 75.4166C222.958 74.5572 222.594 73.7864 222.5 73.6927C222.411 73.5833 222.245 73.7864 222.078 74.151ZM222.521 75.9114C222.521 76.0416 222.318 76.151 222.063 76.151C221.531 76.151 221.547 76.1875 221.802 75.4166L222.026 74.8125L222.26 75.25C222.391 75.4895 222.5 75.802 222.521 75.9114Z" fill="#6B725C"/>
<path d="M80.9584 94.2135V111.724H83.9271L83.8177 101.49C83.7605 95.8802 83.7084 87.9948 83.7084 83.9791V76.6979H80.9584V94.2135Z" fill="#6B725C"/>
<path d="M84.2552 93.2395C84.2552 102.354 84.3125 110.24 84.3646 110.75L84.4948 111.724H87.0052V76.6979H84.2552V93.2395Z" fill="#6B725C"/>
<path d="M87.5573 94.2135V111.724H90.4896V98.651C90.4896 91.4427 90.4375 83.5781 90.3646 81.1354L90.2552 76.6979H87.5573V94.2135Z" fill="#6B725C"/>
<path d="M90.8594 94.2135V111.724H93.6094V76.6979H90.8594V94.2135Z" fill="#6B725C"/>
<path d="M94.1615 94.1927V111.667L95.0209 111.781C95.5 111.833 96.1563 111.833 96.5052 111.781C97.0209 111.687 97.1094 111.615 97.0209 111.286C96.9636 111.062 96.9115 103.198 96.9115 93.7916V76.6979H94.1615V94.1927Z" fill="#6B725C"/>
<path d="M97.4584 94.177C97.4584 103.802 97.4948 111.708 97.5313 111.745C97.5677 111.781 98.1927 111.797 98.9063 111.76L100.208 111.687V76.6979H97.4584V94.177Z" fill="#6B725C"/>
<path d="M100.76 94.2135V111.724H103.88V76.6979H100.76V94.2135Z" fill="#6B725C"/>
<path d="M105.016 94.3594L105.068 111.818H111.12L111.177 95.6771C111.214 86.8021 111.177 78.9375 111.12 78.2032L110.995 76.8646L107.984 76.8855L104.979 76.9219L105.016 94.3594Z" fill="#6B725C"/>
<path d="M129.917 107.271V111.724H132.667V108.458L131.292 105.656L129.938 102.828L129.917 107.271Z" fill="#6B725C"/>
<path d="M261.047 107.396C260.865 107.599 260.865 107.766 261.026 108.073C261.25 108.479 261.25 108.495 260.495 108.953C260.292 109.083 260.276 109.229 260.458 109.708C260.75 110.589 260.714 110.938 260.276 111.047C259.615 111.229 259.911 111.818 260.714 111.87L261.396 111.927V109.542C261.396 108.224 261.359 107.141 261.323 107.141C261.286 107.141 261.156 107.25 261.047 107.396Z" fill="#6B725C"/>
<path d="M133.219 110.807C133.219 111.708 133.234 111.724 133.766 111.724C134.078 111.724 134.318 111.667 134.318 111.594C134.318 111.432 133.401 109.891 133.307 109.891C133.255 109.891 133.219 110.292 133.219 110.807Z" fill="#6B725C"/>
<path d="M104.979 113.099V113.557H111.031V112.641H104.979V113.099Z" fill="#6B725C"/>
<mask id="mask2_137_3" style="mask-type:luminance" maskUnits="userSpaceOnUse" x="0" y="138" width="275" height="33">
<path d="M274.667 138.667H0V170.667H274.667V138.667Z" fill="white"/>
</mask>
<g mask="url(#mask2_137_3)">
<path d="M1.87143 151.535C1.87143 150.118 2.06414 148.764 2.45476 147.472C2.84018 146.17 3.42351 145.009 4.20476 143.993C4.9808 142.967 5.93914 142.16 7.07976 141.576C8.21518 140.983 9.5433 140.681 11.0589 140.681C12.0277 140.681 12.8714 140.837 13.5798 141.139C14.2985 141.431 14.986 141.847 15.6423 142.389V145.535H15.3923C15.3923 145.009 15.2777 144.488 15.0589 143.972C14.835 143.446 14.5225 142.967 14.1214 142.535C13.7152 142.092 13.2568 141.743 12.7464 141.493C12.2308 141.233 11.6735 141.097 11.0798 141.097C9.8558 141.097 8.77768 141.399 7.8506 141.993C6.9183 142.576 6.14226 143.368 5.51726 144.368C4.89226 145.368 4.4131 146.488 4.07976 147.722C3.75685 148.962 3.6006 150.233 3.6006 151.535C3.6006 152.858 3.75685 154.134 4.07976 155.368C4.4131 156.608 4.89226 157.722 5.51726 158.722C6.14226 159.722 6.9183 160.524 7.8506 161.118C8.77768 161.701 9.8558 161.993 11.0798 161.993C11.6735 161.993 12.2308 161.868 12.7464 161.618C13.2568 161.358 13.7152 161.009 14.1214 160.576C14.5225 160.134 14.835 159.649 15.0589 159.118C15.2777 158.592 15.3923 158.071 15.3923 157.556H15.6423V160.701C14.986 161.243 14.2985 161.67 13.5798 161.972C12.8714 162.264 12.0277 162.41 11.0589 162.41C9.5433 162.41 8.21518 162.118 7.07976 161.535C5.93914 160.941 4.9808 160.134 4.20476 159.118C3.42351 158.092 2.84018 156.931 2.45476 155.639C2.06414 154.337 1.87143 152.967 1.87143 151.535Z" fill="#6B725C"/>
<path d="M16.897 141.097H30.5012V145.535H30.2928L28.9803 141.493C28.3137 141.509 27.6522 141.514 27.0012 141.514C26.3449 141.504 25.6939 141.504 25.0428 141.514C24.5689 141.514 24.0272 141.53 23.4178 141.556C22.8189 141.571 22.2199 141.613 21.6262 141.681C21.0428 141.738 20.5272 141.821 20.0845 141.931V148.368H26.4178L27.4595 145.493H27.5428V151.681H27.4595L26.4178 148.785H20.0845V161.16C20.5272 161.274 21.0428 161.363 21.6262 161.431C22.2199 161.488 22.8189 161.53 23.4178 161.556C24.0272 161.571 24.5689 161.576 25.0428 161.576C25.6939 161.592 26.3449 161.597 27.0012 161.597C27.6522 161.587 28.3137 161.587 28.9803 161.597L30.2928 157.576H30.5012V161.993H16.897V161.91L18.397 161.16V141.931L16.897 141.181V141.097Z" fill="#6B725C"/>
<path d="M31.7536 161.91L33.2536 161.16V141.931L31.7536 141.181V141.097H39.6911C40.2015 141.097 40.764 141.149 41.3786 141.243C42.0036 141.326 42.6129 141.483 43.2119 141.701C43.8057 141.925 44.3577 142.238 44.8577 142.639C45.3577 143.03 45.7588 143.53 46.0661 144.139C46.3682 144.738 46.5244 145.467 46.5244 146.326C46.5244 147.191 46.2796 148.024 45.7952 148.826C45.3057 149.618 44.5661 150.274 43.5661 150.785C42.5765 151.285 41.3161 151.535 39.7744 151.535L44.7744 161.097L46.7327 161.889V161.993H41.4827V161.91L42.8577 161.16L37.8994 151.535H34.9411V161.16L36.4411 161.91V161.993H31.7536V161.91ZM34.9411 151.118H38.8994C40.0244 151.118 41.0296 150.92 41.9202 150.514C42.8213 150.097 43.5244 149.53 44.0244 148.806C44.5348 148.087 44.7952 147.264 44.7952 146.347C44.7952 145.087 44.514 144.108 43.9619 143.41C43.4046 142.717 42.6286 142.233 41.6286 141.951C40.639 141.66 39.4932 141.514 38.1911 141.514C37.9515 141.514 37.6494 141.524 37.2744 141.535C36.8994 141.55 36.5036 141.587 36.0869 141.639C35.6807 141.696 35.3004 141.795 34.9411 141.931V151.118Z" fill="#6B725C"/>
<path d="M48.1982 141.097H61.8023V145.535H61.594L60.2815 141.493C59.6148 141.509 58.9534 141.514 58.3023 141.514C57.6461 141.504 56.9951 141.504 56.344 141.514C55.8701 141.514 55.3284 141.53 54.719 141.556C54.1201 141.571 53.5211 141.613 52.9273 141.681C52.344 141.738 51.8284 141.821 51.3857 141.931V148.368H57.719L58.7607 145.493H58.844V151.681H58.7607L57.719 148.785H51.3857V161.16C51.8284 161.274 52.344 161.363 52.9273 161.431C53.5211 161.488 54.1201 161.53 54.719 161.556C55.3284 161.571 55.8701 161.576 56.344 161.576C56.9951 161.592 57.6461 161.597 58.3023 161.597C58.9534 161.587 59.6148 161.587 60.2815 161.597L61.594 157.576H61.8023V161.993H48.1982V161.91L49.6982 161.16V141.931L48.1982 141.181V141.097Z" fill="#6B725C"/>
<path d="M67.7422 161.993H63.0547V161.91L64.5547 161.16V141.931L63.0547 141.181V141.097H66.3464L73.1589 156.035L79.6172 141.931L78.1172 141.181V141.097H82.8047V141.181L81.3047 141.931V161.16L82.8047 161.91V161.993H78.1172V161.91L79.6172 161.16V142.951L73.3881 156.556L74.0756 158.056L73.1797 159.889L64.9714 141.951L66.2422 161.16L67.7422 161.91V161.993Z" fill="#6B725C"/>
<path d="M92.5116 162.41C91.272 162.41 90.147 162.149 89.1366 161.639C88.1366 161.128 87.2668 160.389 86.5324 159.431C85.7928 158.462 85.2303 157.316 84.8449 155.993C84.4543 154.66 84.2616 153.175 84.2616 151.535C84.2616 149.91 84.4543 148.441 84.8449 147.118C85.2303 145.785 85.7928 144.639 86.5324 143.681C87.2668 142.712 88.1366 141.967 89.1366 141.451C90.147 140.941 91.272 140.681 92.5116 140.681C93.7616 140.681 94.8866 140.941 95.8866 141.451C96.8866 141.967 97.746 142.712 98.4699 143.681C99.2043 144.639 99.7668 145.785 100.157 147.118C100.558 148.441 100.762 149.91 100.762 151.535C100.762 153.175 100.558 154.66 100.157 155.993C99.7668 157.316 99.2043 158.462 98.4699 159.431C97.746 160.389 96.8866 161.128 95.8866 161.639C94.8866 162.149 93.7616 162.41 92.5116 162.41ZM85.9908 151.535C85.9908 153.634 86.2512 155.467 86.7824 157.035C87.3241 158.608 88.0793 159.826 89.0533 160.701C90.022 161.566 91.1783 161.993 92.5116 161.993C93.871 161.993 95.0324 161.566 95.9908 160.701C96.9595 159.826 97.7043 158.608 98.2199 157.035C98.746 155.467 99.0116 153.634 99.0116 151.535C99.0116 149.451 98.746 147.628 98.2199 146.056C97.7043 144.488 96.9595 143.274 95.9908 142.41C95.0324 141.535 93.871 141.097 92.5116 141.097C91.1783 141.097 90.022 141.535 89.0533 142.41C88.0793 143.274 87.3241 144.488 86.7824 146.056C86.2512 147.628 85.9908 149.451 85.9908 151.535Z" fill="#6B725C"/>
<path d="M106.858 161.993H102.213V161.91L103.713 161.16V141.931L102.213 141.181V141.097H105.504L115.483 158.535L114.463 141.931L112.963 141.181V141.097H117.608V141.181L116.108 141.931V161.993H115.692L104.129 142.035L105.358 161.16L106.858 161.91V161.993Z" fill="#6B725C"/>
<path d="M123.136 161.993H118.448V161.91L119.948 161.16V141.931L118.448 141.181V141.097H123.136V141.181L121.636 141.931V161.16L123.136 161.91V161.993Z" fill="#6B725C"/>
<path d="M123.548 161.993V161.91L125.298 161.118L131.777 143.16L131.048 141.097H132.819L139.965 161.118L141.735 161.91V161.993H136.485V161.91L138.194 161.16L136.506 156.41H128.402L127.048 161.16L128.756 161.91V161.993H123.548ZM132.006 143.785L128.527 155.993H136.36L132.006 143.785Z" fill="#6B725C"/>
<path d="M149.457 161.91L150.957 161.16V141.931L149.457 141.181V141.097H157.394C157.905 141.097 158.467 141.149 159.082 141.243C159.707 141.326 160.316 141.483 160.915 141.701C161.509 141.925 162.061 142.238 162.561 142.639C163.061 143.03 163.462 143.53 163.769 144.139C164.071 144.738 164.228 145.467 164.228 146.326C164.228 147.191 163.983 148.024 163.498 148.826C163.009 149.618 162.269 150.274 161.269 150.785C160.28 151.285 159.019 151.535 157.478 151.535L162.478 161.097L164.436 161.889V161.993H159.186V161.91L160.561 161.16L155.603 151.535H152.644V161.16L154.144 161.91V161.993H149.457V161.91ZM152.644 151.118H156.603C157.728 151.118 158.733 150.92 159.623 150.514C160.524 150.097 161.228 149.53 161.728 148.806C162.238 148.087 162.498 147.264 162.498 146.347C162.498 145.087 162.217 144.108 161.665 143.41C161.108 142.717 160.332 142.233 159.332 141.951C158.342 141.66 157.196 141.514 155.894 141.514C155.655 141.514 155.353 141.524 154.978 141.535C154.603 141.55 154.207 141.587 153.79 141.639C153.384 141.696 153.004 141.795 152.644 141.931V151.118Z" fill="#6B725C"/>
<path d="M165.901 141.097H179.506V145.535H179.297L177.985 141.493C177.318 141.509 176.657 141.514 176.006 141.514C175.349 141.504 174.698 141.504 174.047 141.514C173.573 141.514 173.032 141.53 172.422 141.556C171.823 141.571 171.224 141.613 170.631 141.681C170.047 141.738 169.532 141.821 169.089 141.931V148.368H175.422L176.464 145.493H176.547V151.681H176.464L175.422 148.785H169.089V161.16C169.532 161.274 170.047 161.363 170.631 161.431C171.224 161.488 171.823 161.53 172.422 161.556C173.032 161.571 173.573 161.576 174.047 161.576C174.698 161.592 175.349 161.597 176.006 161.597C176.657 161.587 177.318 161.587 177.985 161.597L179.297 157.576H179.506V161.993H165.901V161.91L167.401 161.16V141.931L165.901 141.181V141.097Z" fill="#6B725C"/>
<path d="M180.758 161.91L182.258 161.16V141.931L180.758 141.181V141.097H185.445V141.181L183.945 141.931V161.16C184.388 161.274 184.904 161.363 185.487 161.431C186.081 161.488 186.68 161.53 187.279 161.556C187.888 161.571 188.43 161.576 188.904 161.576C189.555 161.592 190.206 161.597 190.862 161.597C191.513 161.587 192.175 161.587 192.841 161.597L194.154 157.576H194.362V161.993H180.758V161.91Z" fill="#6B725C"/>
<path d="M200.302 161.993H195.615V161.91L197.115 161.16V141.931L195.615 141.181V141.097H200.302V141.181L198.802 141.931V161.16L200.302 161.91V161.993Z" fill="#6B725C"/>
<path d="M210.943 162.431C209.428 162.431 208.1 162.139 206.964 161.556C205.824 160.962 204.865 160.155 204.089 159.139C203.308 158.113 202.725 156.946 202.339 155.639C201.949 154.337 201.756 152.967 201.756 151.535C201.756 150.108 201.949 148.743 202.339 147.451C202.725 146.149 203.308 144.988 204.089 143.972C204.865 142.946 205.824 142.139 206.964 141.556C208.1 140.972 209.428 140.681 210.943 140.681C211.912 140.681 212.756 140.837 213.464 141.139C214.183 141.446 214.87 141.868 215.527 142.41V145.556H215.277C215.277 145.03 215.162 144.509 214.943 143.993C214.719 143.467 214.407 142.988 214.006 142.556C213.6 142.113 213.141 141.764 212.631 141.514C212.115 141.253 211.558 141.118 210.964 141.118C209.74 141.118 208.662 141.42 207.735 142.014C206.803 142.597 206.027 143.389 205.402 144.389C204.777 145.389 204.298 146.509 203.964 147.743C203.641 148.983 203.485 150.259 203.485 151.576C203.485 152.884 203.641 154.155 203.964 155.389C204.298 156.628 204.777 157.743 205.402 158.743C206.027 159.743 206.803 160.545 207.735 161.139C208.662 161.722 209.74 162.014 210.964 162.014C211.532 162.014 212.058 161.899 212.548 161.66C213.032 161.425 213.469 161.118 213.86 160.743V152.389L212.36 151.639V151.535H217.027V151.639L215.527 152.389V160.722C214.87 161.264 214.183 161.691 213.464 161.993C212.756 162.285 211.912 162.431 210.943 162.431Z" fill="#6B725C"/>
<path d="M222.347 161.993H217.659V161.91L219.159 161.16V141.931L217.659 141.181V141.097H222.347V141.181L220.847 141.931V161.16L222.347 161.91V161.993Z" fill="#6B725C"/>
<path d="M232.05 162.41C230.811 162.41 229.686 162.149 228.675 161.639C227.675 161.128 226.806 160.389 226.071 159.431C225.332 158.462 224.769 157.316 224.384 155.993C223.993 154.66 223.8 153.175 223.8 151.535C223.8 149.91 223.993 148.441 224.384 147.118C224.769 145.785 225.332 144.639 226.071 143.681C226.806 142.712 227.675 141.967 228.675 141.451C229.686 140.941 230.811 140.681 232.05 140.681C233.3 140.681 234.425 140.941 235.425 141.451C236.425 141.967 237.285 142.712 238.009 143.681C238.743 144.639 239.306 145.785 239.696 147.118C240.097 148.441 240.3 149.91 240.3 151.535C240.3 153.175 240.097 154.66 239.696 155.993C239.306 157.316 238.743 158.462 238.009 159.431C237.285 160.389 236.425 161.128 235.425 161.639C234.425 162.149 233.3 162.41 232.05 162.41ZM225.53 151.535C225.53 153.634 225.79 155.467 226.321 157.035C226.863 158.608 227.618 159.826 228.592 160.701C229.561 161.566 230.717 161.993 232.05 161.993C233.41 161.993 234.571 161.566 235.53 160.701C236.498 159.826 237.243 158.608 237.759 157.035C238.285 155.467 238.55 153.634 238.55 151.535C238.55 149.451 238.285 147.628 237.759 146.056C237.243 144.488 236.498 143.274 235.53 142.41C234.571 141.535 233.41 141.097 232.05 141.097C230.717 141.097 229.561 141.535 228.592 142.41C227.618 143.274 226.863 144.488 226.321 146.056C225.79 147.628 225.53 149.451 225.53 151.535Z" fill="#6B725C"/>
<path d="M242.169 146.035C242.169 145.05 242.419 144.155 242.919 143.347C243.43 142.545 244.221 141.899 245.294 141.41C246.378 140.925 247.773 140.681 249.482 140.681C250.05 140.681 250.633 140.722 251.232 140.806C251.826 140.878 252.404 140.993 252.961 141.16C253.513 141.326 253.987 141.556 254.378 141.847L255.023 140.681H255.107V145.535H255.023C254.675 144.175 254.003 143.097 253.003 142.306C252.013 141.503 250.742 141.097 249.19 141.097C247.951 141.097 246.919 141.3 246.086 141.701C245.263 142.092 244.654 142.618 244.253 143.285C243.862 143.951 243.669 144.701 243.669 145.535C243.669 146.274 243.841 146.899 244.19 147.41C244.534 147.925 245.008 148.368 245.607 148.743C246.201 149.108 246.862 149.431 247.586 149.722C248.32 150.003 249.076 150.28 249.857 150.556C250.648 150.821 251.409 151.128 252.148 151.472C252.883 151.806 253.544 152.201 254.128 152.66C254.721 153.108 255.195 153.655 255.544 154.306C255.888 154.946 256.065 155.722 256.065 156.639C256.065 157.53 255.878 158.337 255.503 159.056C255.128 159.764 254.612 160.368 253.961 160.868C253.32 161.368 252.591 161.753 251.773 162.014C250.951 162.274 250.107 162.41 249.232 162.41C248.023 162.41 246.961 162.269 246.044 161.993C245.128 161.701 244.201 161.253 243.273 160.639L242.44 162.431H242.357V156.722H242.44L243.315 159.389C244.023 160.17 244.815 160.795 245.69 161.264C246.576 161.738 247.612 161.972 248.794 161.972C249.503 161.972 250.18 161.863 250.836 161.639C251.503 161.405 252.107 161.076 252.648 160.66C253.19 160.233 253.612 159.722 253.919 159.139C254.237 158.556 254.398 157.92 254.398 157.222C254.398 156.405 254.221 155.717 253.878 155.16C253.544 154.592 253.076 154.118 252.482 153.743C251.898 153.358 251.242 153.024 250.523 152.743C249.8 152.467 249.05 152.196 248.273 151.931C247.508 151.67 246.758 151.384 246.023 151.076C245.3 150.774 244.648 150.405 244.065 149.972C243.482 149.545 243.013 149.009 242.669 148.368C242.336 147.733 242.169 146.951 242.169 146.035Z" fill="#6B725C"/>
<mask id="mask3_137_3" style="mask-type:luminance" maskUnits="userSpaceOnUse" x="254" y="140" width="21" height="23">
<path d="M254.667 140H274.578V162.667H254.667V140Z" fill="white"/>
</mask>
<g mask="url(#mask3_137_3)">
<path d="M255.648 161.993V161.91L257.398 161.118L263.877 143.16L263.148 141.097H264.919L272.064 161.118L273.835 161.91V161.993H268.585V161.91L270.294 161.16L268.606 156.41H260.502L259.148 161.16L260.856 161.91V161.993H255.648ZM264.106 143.785L260.627 155.993H268.46L264.106 143.785Z" fill="#6B725C"/>
</g>
</g>
</svg>
