<svg width="65" height="62" viewBox="0 0 65 62" fill="none" xmlns="http://www.w3.org/2000/svg">
<path d="M43.0521 48.5521C39.4375 48.5521 35.7812 47.5312 32.1823 45.5208C29.3177 43.9167 26.4844 41.6927 23.7604 38.8958C19.2083 34.2292 16.4687 29.4896 16.3541 29.2917C13.6719 24.8333 14.375 19.1667 18.0677 15.5156C18.9427 14.6406 20.1094 14.1562 21.3541 14.1562C22.6041 14.1562 23.776 14.6458 24.651 15.5312L25.6823 16.5625C28.7916 19.6719 28.7916 24.724 25.6823 27.8281L25.4219 28.0938C24.9114 28.6042 24.8385 29.401 25.2448 29.9896L25.3021 30.0677C28.2812 34.3906 32.4219 37.6927 37.2812 39.6198C37.4531 39.6823 37.6406 39.7188 37.8333 39.7188C38.276 39.7188 38.6927 39.526 38.9739 39.1927L40.4687 37.4323C41.4062 36.2812 42.8125 35.6146 44.3073 35.6146C45.026 35.6146 45.7239 35.7708 46.375 36.0677L49.8698 37.6667C51.2344 38.3021 52.1719 39.5104 52.4375 40.9844C52.7031 42.4583 52.2448 43.9115 51.1927 44.974L50.4791 45.6875C48.8229 47.3438 46.6614 48.3438 44.3906 48.5052C43.9479 48.5365 43.5 48.5521 43.0521 48.5521ZM21.3541 15.1198C20.3698 15.1198 19.4427 15.5 18.7448 16.1979C15.3698 19.5417 14.7291 24.724 17.1823 28.8021C17.2135 28.8594 19.9219 33.5833 24.4687 38.2396C28.6302 42.5052 35.2292 47.5885 43.0521 47.5938C43.4739 47.5938 43.901 47.5781 44.3229 47.5469C46.3594 47.401 48.3073 46.5 49.8021 45.0052L50.5104 44.2969C51.3385 43.4635 51.6979 42.3177 51.4896 41.1562C51.2812 39.9896 50.5416 39.0417 49.4687 38.5417L45.9739 36.9427C45.4479 36.7031 44.8854 36.5781 44.3073 36.5781C43.0989 36.5781 41.9687 37.1146 41.2031 38.0521L39.7083 39.8125C39.25 40.3646 38.5625 40.6823 37.8333 40.6823C37.526 40.6823 37.2239 40.625 36.9323 40.5156C31.8906 38.5156 27.5989 35.0938 24.5156 30.625L24.4583 30.5469C23.7812 29.5677 23.901 28.25 24.7396 27.4115L25.0052 27.1458C27.7344 24.4167 27.7344 19.974 25.0052 17.2448L23.9687 16.2083C23.276 15.5052 22.3489 15.1198 21.3541 15.1198Z" fill="#6B725C"/>
<mask id="mask0_116_5" style="mask-type:luminance" maskUnits="userSpaceOnUse" x="0" y="0" width="65" height="62">
<path d="M0 0H64.8646V61.8958H0V0Z" fill="white"/>
</mask>
<g mask="url(#mask0_116_5)">
<path d="M33.3906 62.3748C25.8333 62.3748 18.5729 59.6092 12.9063 54.5884L0.578137 56.5936C0.395845 56.6248 0.213554 56.5519 0.109387 56.4009C1.23959e-05 56.255 -0.0104046 56.0623 0.0729287 55.9009L5.64585 45.1144C3.48439 40.7759 2.38543 36.0884 2.38543 31.1769C2.38543 22.8488 5.60939 15.0207 11.4636 9.13005C17.3177 3.23942 25.1042 -0.00537109 33.3906 -0.00537109C41.6667 -0.00537109 49.4531 3.23942 55.3073 9.13005C61.1667 15.0207 64.3906 22.8488 64.3906 31.1769C64.3906 39.505 61.1667 47.3384 55.3073 53.229C49.4531 59.1196 41.6667 62.3696 33.3906 62.3748ZM13.0521 53.5936C13.1719 53.5936 13.2865 53.6405 13.375 53.7186C18.8906 58.6821 25.9948 61.4113 33.3906 61.4113C49.9531 61.4009 63.4271 47.8384 63.4271 31.1769C63.4271 14.5155 49.9531 0.958171 33.3906 0.958171C16.8229 0.958171 3.34897 14.5155 3.34897 31.1769C3.34897 36.0207 4.44793 40.6353 6.6146 44.9009C6.68751 45.0363 6.68751 45.203 6.6146 45.3384L1.3646 55.4946L12.974 53.604C13 53.5988 13.0261 53.5936 13.0521 53.5936Z" fill="#6B725C"/>
</g>
</svg>
